<?xml version="1.0" encoding="utf-8"?>
<!-- Generator: Adobe Illustrator 16.0.0, SVG Export Plug-In . SVG Version: 6.00 Build 0)  -->
<!DOCTYPE svg PUBLIC "-//W3C//DTD SVG 1.1//EN" "http://www.w3.org/Graphics/SVG/1.1/DTD/svg11.dtd">
<svg version="1.1" id="Layer_1" xmlns="http://www.w3.org/2000/svg" xmlns:xlink="http://www.w3.org/1999/xlink" x="0px" y="0px"
	 width="108px" height="108px" viewBox="0 0 108 108" enable-background="new 0 0 108 108" xml:space="preserve">
<circle fill="#BACACC" cx="54.016" cy="54.015" r="54.016"/>
<path fill="#3B696E" d="M54.149,108.092c15.886,0,30.169-6.861,40.054-17.777c0,0-6.09-4.203-11.828-6.282
	c-5.738-2.082-17.361-3.568-23.943-4.724c-6.582-1.154-21.536,5.159-25.63,4.724c-4.094-0.438-2.114-1.292-9.997-2.698
	c-7.882-1.407-15.284,0-15.284,0C16.896,97.336,34.261,108.092,54.149,108.092z"/>
<rect x="113.5" y="4.672" fill="#EF5756" width="15.42" height="8.095"/>
<rect x="113.5" y="17.06" fill="#EC9847" width="15.42" height="8.94"/>
<rect x="114.395" y="31.174" fill="#C3E7EB" width="14.525" height="7.598"/>
<rect x="116.182" y="45.52" fill="#5BA367" width="15.42" height="11.095"/>
<rect x="117.132" y="61.88" fill="#68B7C0" width="21.118" height="8.269"/>
<g>
	<g id="XMLID_3_">
		<g>
			<path fill="#8465AC" d="M13.525-17.447c2.155-0.122,4.083-0.794,5.833-2.086c1.386,3.571,2.764,7.117,4.17,10.735
				c-1.305-0.569-2.543-1.102-3.775-1.653c-0.227-0.1-0.313-0.088-0.417,0.159c-0.526,1.243-1.074,2.475-1.646,3.783
				C16.292-10.179,14.916-13.793,13.525-17.447z"/>
			<path fill="#8465AC" d="M13.004-18.495c-5.192,0.002-9.361-4.159-9.374-9.353c-0.015-5.198,4.159-9.39,9.359-9.399
				c5.194-0.01,9.375,4.161,9.389,9.37C22.393-22.685,18.208-18.497,13.004-18.495z M10.016-24.423
				c-0.21,0.559-0.418,1.121-0.648,1.738c0.122-0.069,0.191-0.107,0.258-0.149c1.031-0.677,2.066-1.348,3.09-2.038
				c0.208-0.141,0.348-0.157,0.566-0.008c1.037,0.701,2.086,1.379,3.132,2.063c0.054,0.037,0.116,0.064,0.223,0.123
				c-0.503-1.342-0.978-2.622-1.465-3.898c-0.07-0.184-0.036-0.273,0.128-0.38c0.947-0.619,1.886-1.252,2.826-1.879
				c-0.004-0.019-0.009-0.038-0.014-0.056c-0.081,0-0.163,0-0.244,0c-1.016,0-2.032-0.005-3.048,0.004
				c-0.193,0.002-0.279-0.061-0.345-0.239c-0.448-1.219-0.909-2.434-1.367-3.649c-0.027-0.072-0.061-0.141-0.106-0.247
				c-0.036,0.082-0.055,0.119-0.07,0.156c-0.468,1.247-0.941,2.493-1.402,3.744c-0.066,0.18-0.152,0.238-0.344,0.235
				c-1.033-0.009-2.065-0.004-3.098-0.003c-0.068,0-0.136,0.007-0.265,0.017c1.006,0.672,1.952,1.309,2.905,1.935
				c0.15,0.098,0.176,0.18,0.112,0.344C10.559-25.885,10.289-25.154,10.016-24.423z"/>
			<path fill="#8465AC" d="M12.584-17.445c-1.388,3.644-2.762,7.254-4.166,10.938c-0.604-1.384-1.18-2.702-1.774-4.06
				C5.296-9.979,3.972-9.404,2.583-8.801c1.403-3.61,2.78-7.156,4.168-10.728C8.479-18.202,10.424-17.583,12.584-17.445z"/>
		</g>
	</g>
</g>
<g>
	<g id="XMLID_5_">
		<g>
			<path fill="#C6CE5B" d="M76.734-8.798c-1.309-0.568-2.545-1.102-3.775-1.652c-0.227-0.1-0.313-0.088-0.416,0.159
				c-0.527,1.243-1.074,2.475-1.646,3.783c-1.396-3.67-2.773-7.285-4.166-10.938c2.154-0.122,4.082-0.794,5.832-2.086
				C73.949-15.962,75.328-12.417,76.734-8.798z"/>
			<path fill="#C6CE5B" d="M66.193-37.246c5.195-0.01,9.377,4.162,9.391,9.37c0.014,5.191-4.172,9.38-9.375,9.382
				c-5.191,0.002-9.361-4.159-9.373-9.353C56.82-33.045,60.994-37.236,66.193-37.246z M65.92-24.873
				c0.208-0.141,0.348-0.157,0.566-0.008c1.035,0.701,2.086,1.379,3.132,2.063c0.054,0.037,0.116,0.064,0.224,0.123
				c-0.504-1.342-0.979-2.622-1.467-3.898c-0.068-0.184-0.035-0.273,0.129-0.38c0.947-0.619,1.885-1.252,2.826-1.879
				c-0.004-0.019-0.01-0.038-0.014-0.056c-0.082,0-0.162,0-0.244,0c-1.016,0-2.031-0.005-3.047,0.004
				c-0.193,0.002-0.279-0.061-0.346-0.239c-0.447-1.219-0.91-2.434-1.367-3.649c-0.026-0.072-0.062-0.141-0.105-0.247
				c-0.037,0.082-0.055,0.119-0.07,0.156c-0.469,1.247-0.941,2.493-1.4,3.744c-0.066,0.18-0.151,0.237-0.344,0.235
				c-1.033-0.009-2.064-0.004-3.1-0.003c-0.066,0-0.135,0.007-0.264,0.017c1.006,0.672,1.951,1.309,2.904,1.935
				c0.148,0.098,0.178,0.18,0.111,0.344c-0.281,0.727-0.553,1.458-0.824,2.188c-0.213,0.559-0.421,1.122-0.648,1.738
				c0.121-0.07,0.191-0.107,0.258-0.15C63.861-23.512,64.896-24.183,65.92-24.873z"/>
			<path fill="#C6CE5B" d="M59.956-19.529c1.728,1.327,3.673,1.946,5.833,2.083c-1.387,3.644-2.762,7.254-4.165,10.938
				c-0.604-1.383-1.181-2.702-1.774-4.06c-1.349,0.588-2.674,1.163-4.062,1.767C57.189-12.411,58.568-15.957,59.956-19.529z"/>
		</g>
	</g>
</g>
<g>
	<path fill="#5F9196" d="M52.828,57.746c0,0,4.247-10.8,5.593-12.512c5.252-3.894,5.252-3.894,12.364-5.493
		c7.113-1.597,15.244,1.225,15.244,1.225s-2.84,8.846-5.789,12.085c-2.952,3.237-11.01,4.948-15.232,5.975
		C60.785,60.057,52.828,57.746,52.828,57.746z"/>
	<path fill="#5F9196" d="M52.418,61.191c0,0,0.733-11.581,0.238-13.701c-3.105-5.753-3.105-5.753-8.868-10.215
		c-5.765-4.462-14.327-5.353-14.327-5.353s-1.178,9.218,0.122,13.4c1.301,4.183,7.872,9.146,11.261,11.87
		C44.234,59.914,52.418,61.191,52.418,61.191z"/>
	<polygon fill="#5F9196" points="51.793,57.223 53.567,57.223 52.681,73.139 53.567,80.6 55.934,95.387 53.863,95.387 
		51.793,81.488 49.724,73.139 	"/>
</g>
<path fill="#5F9196" d="M22.671,97.977c8.845,6.322,19.667,10.057,31.367,10.057c13.431,0,25.708-4.914,35.16-13.027
	c0,0-9.564-7.997-15.827-5.468c-6.262,2.528-4.698,5.969-10.117,5.176c-5.418-0.792-13.803-6.522-22.763-5.176
	S22.671,97.977,22.671,97.977z"/>
<circle fill="#E1E54F" cx="-65.276" cy="45.519" r="53.391"/>
<path fill="#A4A837" d="M-53.547,212.843c8.742,6.249,19.439,9.938,31.004,9.938c13.276,0,25.411-4.857,34.753-12.877
	c0,0-9.454-7.904-15.644-5.404s-4.645,5.898-10,5.116c-5.355-0.783-13.644-6.449-22.5-5.116S-53.547,212.843-53.547,212.843z"/>
</svg>
