<?xml version="1.0" encoding="utf-8"?>
<!-- Generator: Adobe Illustrator 16.0.0, SVG Export Plug-In . SVG Version: 6.00 Build 0)  -->
<!DOCTYPE svg PUBLIC "-//W3C//DTD SVG 1.1//EN" "http://www.w3.org/Graphics/SVG/1.1/DTD/svg11.dtd">
<svg version="1.1" id="Layer_1" xmlns="http://www.w3.org/2000/svg" xmlns:xlink="http://www.w3.org/1999/xlink" x="0px" y="0px"
	 width="108px" height="108px" viewBox="0 0 108 108" enable-background="new 0 0 108 108" xml:space="preserve">
<circle fill="#A0D293" cx="54.016" cy="54.015" r="54.016"/>
<path fill="#3A6742" d="M53.982,108.092c15.887,0,30.17-6.861,40.055-17.778c0,0-17.912,1.187-22.787-0.563
	s-15.463,1.375-15.463,1.375s-22.64-7-28.787-7.75S7.354,81.332,7.354,81.332C16.729,97.336,34.095,108.092,53.982,108.092z"/>
<rect x="113.5" y="4.672" fill="#EF5756" width="15.42" height="8.095"/>
<rect x="113.5" y="17.06" fill="#EC9847" width="15.42" height="8.94"/>
<rect x="114.394" y="31.174" fill="#C3E7EB" width="14.526" height="7.598"/>
<rect x="116.182" y="45.52" fill="#5BA367" width="15.42" height="11.095"/>
<rect x="117.132" y="61.88" fill="#68B7C0" width="21.118" height="8.269"/>
<g>
	<g id="XMLID_3_">
		<g>
			<path fill="#8465AC" d="M13.525-17.447c2.155-0.122,4.083-0.794,5.833-2.086c1.386,3.571,2.764,7.117,4.17,10.735
				c-1.305-0.569-2.543-1.102-3.775-1.653c-0.227-0.1-0.313-0.088-0.417,0.159c-0.526,1.243-1.074,2.475-1.646,3.783
				C16.292-10.179,14.916-13.793,13.525-17.447z"/>
			<path fill="#8465AC" d="M13.004-18.495c-5.192,0.002-9.361-4.159-9.374-9.353c-0.015-5.198,4.159-9.39,9.359-9.399
				c5.194-0.01,9.375,4.161,9.389,9.37C22.393-22.685,18.208-18.497,13.004-18.495z M10.016-24.423
				c-0.21,0.559-0.418,1.121-0.648,1.738c0.122-0.069,0.191-0.107,0.258-0.149c1.031-0.677,2.066-1.348,3.09-2.038
				c0.208-0.141,0.348-0.157,0.566-0.008c1.037,0.701,2.086,1.379,3.132,2.063c0.054,0.037,0.116,0.064,0.223,0.123
				c-0.503-1.342-0.978-2.622-1.465-3.898c-0.07-0.184-0.036-0.273,0.128-0.38c0.947-0.619,1.886-1.252,2.826-1.879
				c-0.004-0.019-0.009-0.038-0.014-0.056c-0.081,0-0.163,0-0.244,0c-1.016,0-2.032-0.005-3.048,0.004
				c-0.193,0.002-0.279-0.061-0.345-0.239c-0.448-1.219-0.909-2.434-1.367-3.649c-0.027-0.072-0.061-0.141-0.106-0.247
				c-0.036,0.082-0.055,0.119-0.07,0.156c-0.468,1.247-0.941,2.493-1.402,3.744c-0.066,0.18-0.152,0.238-0.344,0.235
				c-1.033-0.009-2.065-0.004-3.098-0.003c-0.068,0-0.136,0.007-0.265,0.017c1.006,0.672,1.952,1.309,2.905,1.935
				c0.15,0.098,0.176,0.18,0.112,0.344C10.559-25.885,10.289-25.154,10.016-24.423z"/>
			<path fill="#8465AC" d="M12.584-17.445c-1.388,3.644-2.762,7.254-4.166,10.938c-0.604-1.384-1.18-2.702-1.774-4.06
				C5.296-9.979,3.972-9.404,2.583-8.801c1.403-3.61,2.78-7.156,4.168-10.728C8.479-18.202,10.424-17.583,12.584-17.445z"/>
		</g>
		<g>
		</g>
	</g>
</g>
<g>
	<g id="XMLID_5_">
		<g>
			<path fill="#C6CE5B" d="M76.734-8.798c-1.307-0.568-2.545-1.102-3.775-1.652c-0.227-0.1-0.313-0.088-0.416,0.159
				c-0.527,1.243-1.074,2.475-1.646,3.783c-1.398-3.67-2.775-7.285-4.166-10.938c2.154-0.122,4.082-0.794,5.832-2.086
				C73.949-15.962,75.328-12.417,76.734-8.798z"/>
			<path fill="#C6CE5B" d="M66.194-37.246c5.194-0.01,9.376,4.162,9.39,9.37c0.014,5.191-4.172,9.38-9.375,9.382
				c-5.191,0.002-9.361-4.159-9.373-9.353C56.82-33.045,60.994-37.236,66.194-37.246z M65.92-24.873
				c0.208-0.141,0.348-0.157,0.566-0.008c1.036,0.701,2.086,1.379,3.132,2.063c0.054,0.037,0.116,0.064,0.224,0.123
				c-0.504-1.342-0.979-2.622-1.467-3.898c-0.068-0.184-0.035-0.273,0.129-0.38c0.947-0.619,1.885-1.252,2.826-1.879
				c-0.004-0.019-0.01-0.038-0.014-0.056c-0.082,0-0.162,0-0.244,0c-1.016,0-2.031-0.005-3.047,0.004
				c-0.193,0.002-0.279-0.061-0.346-0.239c-0.447-1.219-0.909-2.434-1.366-3.649c-0.027-0.072-0.061-0.141-0.106-0.247
				c-0.037,0.082-0.055,0.119-0.07,0.156c-0.469,1.247-0.941,2.493-1.401,3.744c-0.067,0.18-0.152,0.237-0.344,0.235
				c-1.032-0.009-2.065-0.004-3.099-0.003c-0.066,0-0.135,0.007-0.264,0.017c1.006,0.672,1.951,1.309,2.904,1.935
				c0.15,0.098,0.178,0.18,0.113,0.344c-0.283,0.727-0.553,1.458-0.826,2.188c-0.211,0.559-0.419,1.122-0.648,1.738
				c0.121-0.07,0.191-0.107,0.258-0.15C63.861-23.512,64.896-24.183,65.92-24.873z"/>
			<path fill="#C6CE5B" d="M59.956-19.529c1.727,1.327,3.673,1.946,5.833,2.083c-1.387,3.644-2.762,7.254-4.165,10.938
				c-0.604-1.383-1.181-2.702-1.774-4.06c-1.349,0.588-2.674,1.163-4.062,1.767C57.19-12.411,58.568-15.957,59.956-19.529z"/>
		</g>
		<g>
		</g>
	</g>
</g>
<g>
	<path fill="#AFA934" d="M175.578,50.706c0,0,4.247-10.8,5.593-12.512c5.252-3.894,5.252-3.894,12.364-5.493
		c7.113-1.597,15.245,1.225,15.245,1.225s-2.84,8.846-5.79,12.085c-2.952,3.237-11.009,4.948-15.232,5.975
		C183.535,53.017,175.578,50.706,175.578,50.706z"/>
	<path fill="#AFA934" d="M175.168,54.152c0,0,0.733-11.58,0.238-13.702c-3.105-5.753-3.105-5.753-8.868-10.215
		c-5.765-4.462-14.327-5.353-14.327-5.353s-1.178,9.218,0.122,13.4c1.301,4.183,7.872,9.146,11.261,11.869
		C166.984,52.874,175.168,54.152,175.168,54.152z"/>
	<polygon fill="#AFA934" points="174.543,50.183 176.316,50.183 175.431,66.098 176.316,73.559 178.683,88.347 176.613,88.347 
		174.543,74.448 172.474,66.098 	"/>
</g>
<path fill="#51915C" d="M22.671,97.977c8.845,6.322,19.667,10.055,31.367,10.055c13.431,0,25.708-4.914,35.16-13.027
	c0,0-6.904,3.164-12.323,2.371c-5.418-0.792-33.592-6.472-36.625-4.875C35.872,94.803,22.671,97.977,22.671,97.977z"/>
<circle fill="#E1E54F" cx="-65.276" cy="45.519" r="53.391"/>
<path fill="#A4A837" d="M-53.547,212.843c8.742,6.249,19.439,9.938,31.004,9.938c13.276,0,25.411-4.857,34.753-12.877
	c0,0-9.454-7.904-15.644-5.404s-4.645,5.899-10,5.116s-13.644-6.449-22.5-5.116S-53.547,212.843-53.547,212.843z"/>
<g>
	<g id="XMLID_1_">
		<g>
			<path fill="#41374A" d="M102.36,227.831c1.43,0.858,2.79,1.793,4.716,1.748c-0.813-1.702-1.567-3.281-2.347-4.911
				C103.923,225.746,103.16,226.763,102.36,227.831z M107.081,225.663c0.93,1.505,1.825,3.034,2.853,4.468
				c0.75,1.05,1.638,0.953,2.126-0.237c0.568-1.385,0.935-2.846,1.387-4.273c-0.072-0.06-0.146-0.12-0.217-0.178
				c-2.343,0.263-4.565-0.154-6.858-1.229C106.667,224.822,106.835,225.266,107.081,225.663z M120.746,230.428
				c-1.636-1.853-2.601-3.967-2.979-6.341c-1.212,0.163-1.775,0.657-2.003,1.716c-0.248,1.13-0.577,2.251-0.727,3.396
				c-0.14,1.052-0.172,2.134-0.098,3.189c0.056,0.798,0.651,1.122,1.423,0.866C118.052,232.702,119.431,231.652,120.746,230.428z
				 M81.853,219.041c0-0.485-0.12-0.817-0.478-1.134c-1.766-1.569-2.959-3.502-3.56-5.788c-0.883-3.37-0.416-6.549,1.399-9.529
				c0.882-1.441,2.06-2.592,3.406-3.596c0.188-0.14,0.356-0.451,0.352-0.681c-0.089-3.306,0.917-6.215,3.154-8.66
				c2.18-2.38,4.896-3.709,8.131-3.901c0.757-0.046,1.518-0.007,2.287-0.007c0.052-0.207,0.089-0.352,0.123-0.5
				c1.174-4.865,4.176-7.957,9.003-9.278c0.456-0.126,0.918-0.231,1.379-0.346c0.878,0,1.755,0,2.634,0
				c0.102,0.036,0.199,0.092,0.303,0.107c3.041,0.45,5.612,1.779,7.62,4.125c0.523,0.609,0.964,1.282,1.459,1.945
				c0.129-0.065,0.244-0.122,0.357-0.183c3.055-1.627,6.264-1.975,9.539-0.9c3.238,1.059,5.673,3.146,7.109,6.279
				c0.323,0.71,0.726,1.033,1.508,1.175c2.455,0.442,4.614,1.549,6.323,3.377c3.265,3.481,4.263,7.549,2.884,12.143
				c-0.155,0.521-0.026,0.849,0.28,1.241c2.163,2.778,2.987,5.947,2.365,9.39c-0.772,4.28-3.218,7.339-7.217,9.129
				c-0.243,0.105-0.448,0.435-0.536,0.706c-0.329,1.016-0.502,2.094-0.914,3.069c-1.088,2.565-2.895,4.499-5.36,5.82
				c-3.096,1.657-6.312,1.818-9.601,0.755c-1.007-0.325-1.949-0.849-2.939-1.292c-0.047,0.037-0.12,0.088-0.178,0.151
				c-1.557,1.599-3.115,3.197-4.656,4.808c-0.121,0.125-0.174,0.344-0.207,0.526c-0.203,1.19-0.439,2.371-0.58,3.568
				c-0.248,2.152-0.527,4.317-0.095,6.48c0.655,3.326,1.34,6.649,2.011,9.976c-4.825,0-9.651,0-14.478,0
				c0.109-0.557,0.214-1.115,0.329-1.669c0.596-2.784,1.298-5.547,1.759-8.354c0.788-4.801,0.146-9.624-0.05-14.436
				c-0.014-0.317-0.12-0.445-0.468-0.472c-0.477-0.037-0.993-0.071-1.405-0.283c-1.529-0.789-3.049-1.604-4.516-2.502
				c-0.601-0.369-1.052-0.504-1.731-0.196c-2.805,1.266-5.707,1.324-8.588,0.348C85.114,228.789,81.853,224.182,81.853,219.041z"/>
		</g>
		<g>
		</g>
	</g>
</g>
<g>
	<g id="XMLID_2_">
		<g>
			<path fill="#51915C" d="M41.49,55.809c-1.42,4.164-2.25,8.461-2.644,12.836c-0.184,2.05-0.273,4.106-0.407,6.16
				c-0.012,0.204-0.032,0.404-0.17,0.646c-0.383-0.754-0.789-1.5-1.146-2.268c-1.884-4.048-2.979-8.303-3.352-12.751
				c-0.388-4.624-0.027-9.169,1.381-13.594c0.477-1.501,1.185-2.928,1.791-4.387c0.075-0.182,0.171-0.354,0.289-0.592
				c-6.965,1.828-12.278,6.1-17.286,10.954c0.081-0.233,0.152-0.471,0.242-0.702c2.642-6.804,6.991-12.159,13.448-15.681
				c2.307-1.259,4.789-1.976,7.439-1.952c0.757,0.007,1.558,0.023,2.257,0.268c0.974,0.343,1.792,0.039,2.725-0.292
				c-0.109-0.079-0.173-0.142-0.25-0.178c-2.88-1.39-5.825-2.575-9.032-2.986c-2.476-0.318-4.947-0.224-7.374,0.273
				c-2.896,0.593-5.757,1.355-8.633,2.044c-0.114,0.027-0.225,0.058-0.338,0.088c-0.039-0.041-0.078-0.083-0.116-0.124
				c0.89-1.147,1.729-2.339,2.681-3.431c2.291-2.629,5.013-4.689,8.284-5.959c4.262-1.656,8.562-1.817,12.887-0.23
				c2.939,1.079,5.423,2.813,7.493,5.156c0.12,0.137,0.275,0.241,0.393,0.342c0.047-3.236-1.701-12.329-6.478-17.895
				c0.956,0.288,1.78,0.503,2.581,0.785c3.696,1.298,6.761,3.397,8.598,6.976c1.47,2.864,1.838,5.95,1.68,9.118
				c-0.063,1.245-0.209,2.485-0.318,3.74c0.82-0.696,1.6-1.425,2.446-2.064c3.608-2.723,7.667-4.141,12.203-3.898
				c5.418,0.288,9.797,2.72,13.266,6.821c3.087,3.645,4.734,7.951,5.592,12.596c0.014,0.079,0.002,0.162,0.002,0.377
				c-0.349-0.307-0.631-0.553-0.909-0.802c-3.477-3.112-7.137-5.97-11.381-7.988c-3.527-1.677-7.231-2.596-11.153-2.499
				c-2.693,0.065-5.307,0.599-7.851,1.477c-0.05,0.017-0.087,0.069-0.094,0.074c1.459,0.466,2.964,0.849,4.392,1.424
				c2.436,0.98,4.641,2.359,6.634,4.091c2.186,1.9,4.21,3.932,5.866,6.316c2.919,4.2,4.382,8.805,3.861,13.95
				c-0.408,4.033-1.907,7.675-4.016,11.09c-0.009,0.019-0.035,0.02-0.103,0.053c-0.519-1.396-1.021-2.793-1.554-4.178
				c-2.553-6.617-5.521-13.027-9.488-18.933c-2.156-3.21-4.57-6.197-7.572-8.668c-0.076-0.062-0.153-0.119-0.286-0.219
				c0.585,1.608,1.186,3.127,1.692,4.677c1.489,4.563,2.27,9.258,2.563,14.04c0.396,6.438-0.027,12.836-0.852,19.221
				c-0.935,7.224-2.354,14.363-3.791,21.499c-0.26,1.29-0.278,1.286-1.607,1.286c-3.295,0-6.589,0-9.991,0
				c0.09-0.273,0.155-0.492,0.236-0.709c2.901-7.764,5.474-15.631,7.275-23.734c1.611-7.254,2.611-14.579,2.409-22.031
				c-0.133-4.96-0.819-9.835-2.337-14.573c-0.063-0.191-0.135-0.378-0.221-0.614c-1.624,0.873-3.053,1.933-4.354,3.166
				C45.356,46.861,43.085,51.136,41.49,55.809z"/>
		</g>
		<g>
		</g>
	</g>
</g>
</svg>
