<?xml version="1.0" encoding="utf-8"?>
<!-- Generator: Adobe Illustrator 16.0.0, SVG Export Plug-In . SVG Version: 6.00 Build 0)  -->
<!DOCTYPE svg PUBLIC "-//W3C//DTD SVG 1.1//EN" "http://www.w3.org/Graphics/SVG/1.1/DTD/svg11.dtd">
<svg version="1.1" id="Layer_1" xmlns="http://www.w3.org/2000/svg" xmlns:xlink="http://www.w3.org/1999/xlink" x="0px" y="0px"
	 width="1000px" height="1000px" viewBox="0 0 1000 1000" enable-background="new 0 0 1000 1000" xml:space="preserve">
<path fill="#69B7C0" d="M1000,414.068l-67.034-135.593l8.475-184.746L782.119,0L507.542,59.831L317.712,8.983l-106.78,84.746
	L14.322,166.61l22.034,149.152L0,453.051l43.136,147.458L7.542,819.152l110.169,89.831l255.932,57.627l164.407-37.288L726.187,1000
	l57.627-85.933L1000,786.949l-73.813-266.102L1000,414.068z M719.68,514.068c-6.779,0-52.542,22.033-52.542,22.033l-13.56,30.508
	l-25.424,42.373c0,0-45.763,15.254-50.848,15.254s-57.627-23.729-57.627-23.729l-1.968-4.723v35.231v64.407v71.187l-28.813,55.932
	l-57.627-10.169l18.644-62.712l6.78-94.915v-62.976l-33.625,32.466l-59.322-20.338l-11.865-67.797l-37.288-18.645l-37.288-38.983
	v-50.848l57.627-11.864l-13.56-52.542l-6.78-35.593l37.288-16.949l11.865-47.458l50.847-11.864h49.153l32.204,49.152l47.457-19.491
	l40.679-29.661l57.627,8.475v62.712v52.542l47.457,52.542l30.509,40.678C719.68,468.305,726.459,514.068,719.68,514.068z"/>
</svg>
