<?xml version="1.0" encoding="utf-8"?>
<!-- Generator: Adobe Illustrator 16.0.0, SVG Export Plug-In . SVG Version: 6.00 Build 0)  -->
<!DOCTYPE svg PUBLIC "-//W3C//DTD SVG 1.1//EN" "http://www.w3.org/Graphics/SVG/1.1/DTD/svg11.dtd">
<svg version="1.1" id="Layer_1" xmlns="http://www.w3.org/2000/svg" xmlns:xlink="http://www.w3.org/1999/xlink" x="0px" y="0px"
	 width="1000px" height="1000px" viewBox="0 0 1000 1000" enable-background="new 0 0 1000 1000" xml:space="preserve">
<path fill="#A2D07D" d="M1000,414.068l-45-111.864L916.017,163.22L782.119,0L593.983,17.458L316.017,0L93.983,115.763L0,222.542
	l56.695,93.22L0,453.051l43.136,147.458L7.542,819.152L148.22,1000l83.051-89.322l142.373,55.933l164.407-37.288L726.187,1000
	l152.542-77.458L1000,786.949l-53.475-213.56L1000,414.068z M640.166,531.225L529.167,706.528v166.131h-64.308V712.223
	L339.814,531.225V342.063L496.533,107l143.633,222.002V531.225z"/>
</svg>
