<?xml version="1.0" encoding="utf-8"?>
<!-- Generator: Adobe Illustrator 16.0.0, SVG Export Plug-In . SVG Version: 6.00 Build 0)  -->
<!DOCTYPE svg PUBLIC "-//W3C//DTD SVG 1.1//EN" "http://www.w3.org/Graphics/SVG/1.1/DTD/svg11.dtd">
<svg version="1.1" id="Layer_1" xmlns="http://www.w3.org/2000/svg" xmlns:xlink="http://www.w3.org/1999/xlink" x="0px" y="0px"
	 width="108px" height="108px" viewBox="0 0 108 108" enable-background="new 0 0 108 108" xml:space="preserve">
<circle fill="#D2B1F0" cx="54.016" cy="54.015" r="54.016"/>
<path fill="#473E51" d="M53.982,108.092c15.887,0,30.17-6.861,40.055-17.777c0,0-5.578-3.813-10.453-5.563
	s-30.581,1.312-30.581,1.312S27.605,87.5,21.458,86.75S7.354,81.332,7.354,81.332C16.729,97.336,34.095,108.092,53.982,108.092z"/>
<rect x="113.5" y="4.672" fill="#EF5756" width="15.42" height="8.095"/>
<rect x="113.5" y="17.06" fill="#EC9847" width="15.42" height="8.94"/>
<rect x="114.395" y="31.174" fill="#C3E7EB" width="14.525" height="7.598"/>
<rect x="116.182" y="45.52" fill="#5BA367" width="15.42" height="11.095"/>
<rect x="117.132" y="61.88" fill="#68B7C0" width="21.118" height="8.269"/>
<g>
	<g id="XMLID_3_">
		<g>
			<path fill="#8465AC" d="M13.525-17.447c2.155-0.122,4.083-0.794,5.833-2.086c1.386,3.571,2.764,7.117,4.17,10.735
				c-1.305-0.569-2.543-1.102-3.775-1.653c-0.227-0.1-0.313-0.088-0.417,0.159c-0.526,1.243-1.074,2.475-1.646,3.783
				C16.292-10.179,14.916-13.793,13.525-17.447z"/>
			<path fill="#8465AC" d="M13.004-18.495c-5.192,0.002-9.361-4.159-9.374-9.353c-0.015-5.198,4.159-9.39,9.359-9.399
				c5.194-0.01,9.375,4.161,9.389,9.37C22.393-22.685,18.208-18.497,13.004-18.495z M10.016-24.423
				c-0.21,0.559-0.418,1.121-0.648,1.738c0.122-0.069,0.191-0.107,0.258-0.149c1.031-0.677,2.066-1.348,3.09-2.038
				c0.208-0.141,0.348-0.157,0.566-0.008c1.037,0.701,2.086,1.379,3.132,2.063c0.054,0.037,0.116,0.064,0.223,0.123
				c-0.503-1.342-0.978-2.622-1.465-3.898c-0.07-0.184-0.036-0.273,0.128-0.38c0.947-0.619,1.886-1.252,2.826-1.879
				c-0.004-0.019-0.009-0.038-0.014-0.056c-0.081,0-0.163,0-0.244,0c-1.016,0-2.032-0.005-3.048,0.004
				c-0.193,0.002-0.279-0.061-0.345-0.239c-0.448-1.219-0.909-2.434-1.367-3.649c-0.027-0.072-0.061-0.141-0.106-0.247
				c-0.036,0.082-0.055,0.119-0.07,0.156c-0.468,1.247-0.941,2.493-1.402,3.744c-0.066,0.18-0.152,0.238-0.344,0.235
				c-1.033-0.009-2.065-0.004-3.098-0.003c-0.068,0-0.136,0.007-0.265,0.017c1.006,0.672,1.952,1.309,2.905,1.935
				c0.15,0.098,0.176,0.18,0.112,0.344C10.559-25.885,10.289-25.154,10.016-24.423z"/>
			<path fill="#8465AC" d="M12.584-17.445c-1.388,3.644-2.762,7.254-4.166,10.938c-0.604-1.384-1.18-2.702-1.774-4.06
				C5.296-9.979,3.972-9.404,2.583-8.801c1.403-3.61,2.78-7.156,4.168-10.728C8.479-18.202,10.424-17.583,12.584-17.445z"/>
		</g>
	</g>
</g>
<g>
	<g id="XMLID_5_">
		<g>
			<path fill="#C6CE5B" d="M76.734-8.798c-1.308-0.568-2.545-1.102-3.775-1.652c-0.227-0.1-0.313-0.088-0.416,0.159
				c-0.527,1.243-1.074,2.475-1.646,3.783c-1.397-3.67-2.774-7.285-4.166-10.938c2.154-0.122,4.082-0.794,5.832-2.086
				C73.949-15.962,75.328-12.417,76.734-8.798z"/>
			<path fill="#C6CE5B" d="M66.193-37.246c5.195-0.01,9.377,4.162,9.391,9.37c0.014,5.191-4.172,9.38-9.375,9.382
				c-5.191,0.002-9.361-4.159-9.373-9.353C56.82-33.045,60.994-37.236,66.193-37.246z M65.92-24.873
				c0.208-0.141,0.348-0.157,0.566-0.008c1.035,0.701,2.086,1.379,3.132,2.063c0.054,0.037,0.116,0.064,0.224,0.123
				c-0.504-1.342-0.979-2.622-1.467-3.898c-0.068-0.184-0.035-0.273,0.129-0.38c0.947-0.619,1.885-1.252,2.826-1.879
				c-0.004-0.019-0.01-0.038-0.014-0.056c-0.082,0-0.162,0-0.244,0c-1.016,0-2.031-0.005-3.047,0.004
				c-0.193,0.002-0.279-0.061-0.346-0.239c-0.447-1.219-0.91-2.434-1.367-3.649c-0.026-0.072-0.061-0.141-0.105-0.247
				c-0.037,0.082-0.055,0.119-0.07,0.156c-0.469,1.247-0.941,2.493-1.4,3.744c-0.067,0.18-0.152,0.237-0.344,0.235
				c-1.033-0.009-2.065-0.004-3.1-0.003c-0.066,0-0.135,0.007-0.264,0.017c1.006,0.672,1.951,1.309,2.904,1.935
				c0.149,0.098,0.178,0.18,0.112,0.344c-0.282,0.727-0.553,1.458-0.825,2.188c-0.212,0.559-0.42,1.122-0.648,1.738
				c0.121-0.07,0.191-0.107,0.258-0.15C63.861-23.512,64.896-24.183,65.92-24.873z"/>
			<path fill="#C6CE5B" d="M59.956-19.529c1.728,1.327,3.673,1.946,5.833,2.083c-1.387,3.644-2.762,7.254-4.165,10.938
				c-0.604-1.383-1.181-2.702-1.774-4.06c-1.349,0.588-2.674,1.163-4.062,1.767C57.189-12.411,58.568-15.957,59.956-19.529z"/>
		</g>
	</g>
</g>
<g>
	<path fill="#AFA934" d="M175.578,50.706c0,0,4.247-10.8,5.593-12.512c5.252-3.894,5.252-3.894,12.364-5.493
		c7.113-1.597,15.244,1.225,15.244,1.225s-2.84,8.846-5.789,12.085c-2.952,3.237-11.01,4.948-15.232,5.975
		C183.535,53.017,175.578,50.706,175.578,50.706z"/>
	<path fill="#AFA934" d="M175.168,54.152c0,0,0.732-11.58,0.238-13.702c-3.105-5.753-3.105-5.753-8.868-10.215
		c-5.765-4.462-14.327-5.353-14.327-5.353s-1.178,9.218,0.122,13.4c1.301,4.183,7.872,9.146,11.261,11.869
		C166.984,52.874,175.168,54.152,175.168,54.152z"/>
	<polygon fill="#AFA934" points="174.543,50.183 176.316,50.183 175.432,66.098 176.316,73.559 178.684,88.348 176.613,88.348 
		174.543,74.448 172.475,66.098 	"/>
</g>
<path fill="#6C5B7A" d="M22.671,97.977c8.845,6.322,19.667,10.056,31.367,10.056c13.431,0,25.708-4.914,35.16-13.027
	c0,0-20.525,0.501-25.944-0.292c-5.418-0.792-23.554-1.109-26.587,0.486C32.289,97.501,22.671,97.977,22.671,97.977z"/>
<circle fill="#E1E54F" cx="-65.276" cy="45.519" r="53.391"/>
<path fill="#A4A837" d="M-53.547,212.843c8.742,6.249,19.439,9.938,31.004,9.938c13.276,0,25.411-4.857,34.753-12.877
	c0,0-9.454-7.904-15.644-5.404s-4.645,5.898-10,5.116c-5.355-0.783-13.644-6.449-22.5-5.116S-53.547,212.843-53.547,212.843z"/>
<g>
	<g id="XMLID_1_">
		<g>
			<path fill="#6C5B7A" d="M45.527,65.164c1.428,0.857,2.791,1.793,4.716,1.748c-0.813-1.702-1.567-3.281-2.347-4.911
				C47.09,63.079,46.328,64.096,45.527,65.164z M50.249,62.996c0.929,1.505,1.824,3.033,2.852,4.468
				c0.75,1.05,1.637,0.953,2.125-0.237c0.568-1.385,0.936-2.846,1.387-4.272c-0.071-0.06-0.146-0.12-0.217-0.179
				c-2.342,0.264-4.565-0.153-6.858-1.229C49.834,62.154,50.002,62.6,50.249,62.996z M63.913,67.761
				c-1.636-1.853-2.601-3.967-2.979-6.341c-1.211,0.163-1.774,0.657-2.002,1.716c-0.248,1.13-0.578,2.251-0.728,3.396
				c-0.14,1.052-0.172,2.134-0.099,3.188c0.057,0.799,0.651,1.122,1.424,0.866C61.219,70.035,62.598,68.984,63.913,67.761z
				 M65.854,69.992c-1.557,1.599-3.115,3.197-4.655,4.808c-0.121,0.125-0.175,0.345-0.207,0.526
				c-0.203,1.189-0.439,2.371-0.58,3.568c-0.248,2.151-0.527,4.316-0.095,6.479c0.654,3.326,1.34,6.649,2.011,9.976
				c-4.825,0-9.652,0-14.477,0c0.109-0.557,0.213-1.115,0.33-1.668c0.593-2.785,1.297-5.548,1.757-8.354
				c0.789-4.802,0.146-9.624-0.05-14.437c-0.012-0.316-0.12-0.445-0.467-0.472c-0.477-0.037-0.994-0.071-1.406-0.283
				c-1.529-0.788-3.048-1.604-4.516-2.502c-0.6-0.368-1.052-0.504-1.731-0.196c-2.805,1.267-5.707,1.324-8.588,0.349
				c-4.898-1.665-8.159-6.272-8.159-11.413c0-0.484-0.12-0.816-0.478-1.134c-1.765-1.569-2.959-3.501-3.559-5.788
				c-0.884-3.371-0.416-6.55,1.399-9.53c0.882-1.441,2.06-2.591,3.406-3.596c0.188-0.14,0.356-0.452,0.351-0.681
				c-0.088-3.306,0.917-6.215,3.155-8.661c2.18-2.379,4.895-3.709,8.13-3.901c0.757-0.046,1.518-0.006,2.288-0.006
				c0.051-0.206,0.088-0.352,0.122-0.5c1.174-4.865,4.176-7.957,9.003-9.278c0.457-0.126,0.919-0.231,1.379-0.346
				c0.878,0,1.755,0,2.634,0c0.102,0.037,0.199,0.092,0.303,0.108c3.041,0.45,5.613,1.78,7.621,4.125
				c0.522,0.61,0.963,1.282,1.459,1.946c0.129-0.066,0.244-0.123,0.356-0.183c3.056-1.627,6.265-1.975,9.539-0.9
				c3.238,1.058,5.673,3.146,7.108,6.28c0.324,0.709,0.727,1.033,1.509,1.174c2.455,0.442,4.614,1.549,6.323,3.377
				c3.265,3.481,4.263,7.549,2.884,12.142c-0.155,0.522-0.026,0.849,0.28,1.241c2.162,2.779,2.986,5.948,2.365,9.39
				c-0.772,4.28-3.219,7.339-7.218,9.129c-0.243,0.105-0.448,0.435-0.536,0.705c-0.328,1.017-0.502,2.095-0.914,3.07
				c-1.088,2.564-2.895,4.498-5.359,5.819c-3.096,1.657-6.313,1.817-9.602,0.755c-1.007-0.324-1.949-0.849-2.939-1.292
				C65.984,69.878,65.911,69.93,65.854,69.992z"/>
		</g>
	</g>
</g>
</svg>
