<?xml version="1.0" encoding="utf-8"?>
<!-- Generator: Adobe Illustrator 16.0.0, SVG Export Plug-In . SVG Version: 6.00 Build 0)  -->
<!DOCTYPE svg PUBLIC "-//W3C//DTD SVG 1.1//EN" "http://www.w3.org/Graphics/SVG/1.1/DTD/svg11.dtd">
<svg version="1.1" id="Layer_1" xmlns="http://www.w3.org/2000/svg" xmlns:xlink="http://www.w3.org/1999/xlink" x="0px" y="0px"
	 width="987.723px" height="855.393px" viewBox="0 0 987.723 855.393" enable-background="new 0 0 987.723 855.393"
	 xml:space="preserve">
<path fill="#69B7C0" d="M740.792,0h-493.86L0,427.697l246.931,427.696h493.86l246.932-427.696L740.792,0z M721.358,424.238
	c-6.779,0-52.542,22.033-52.542,22.033l-13.56,30.508l-25.424,42.374c0,0-45.763,15.254-50.848,15.254s-57.627-23.729-57.627-23.729
	l-1.968-4.723v35.23v64.408v71.186l-28.813,55.932l-57.628-10.168l18.645-62.713l6.779-94.914v-62.977l-33.625,32.467
	l-59.322-20.338l-11.864-67.797l-37.288-18.645l-37.288-38.982v-50.848l57.628-11.864l-13.561-52.542l-6.779-35.593l37.288-16.949
	l11.864-47.458l50.848-11.864h49.152l32.204,49.152l47.457-19.491l40.679-29.661L643.392,170v62.712v52.542l47.457,52.542
	l30.509,40.678C721.358,378.474,728.137,424.238,721.358,424.238z"/>
</svg>
