<?xml version="1.0" encoding="utf-8"?>
<!-- Generator: Adobe Illustrator 16.0.0, SVG Export Plug-In . SVG Version: 6.00 Build 0)  -->
<!DOCTYPE svg PUBLIC "-//W3C//DTD SVG 1.1//EN" "http://www.w3.org/Graphics/SVG/1.1/DTD/svg11.dtd">
<svg version="1.1" id="Layer_1" xmlns="http://www.w3.org/2000/svg" xmlns:xlink="http://www.w3.org/1999/xlink" x="0px" y="0px"
	 width="818.184px" height="118.925px" viewBox="0 0 818.184 118.925" enable-background="new 0 0 818.184 118.925"
	 xml:space="preserve">
<g>
	<polygon fill="#5A9965" points="727.69,0 726.346,6.005 729.362,14.772 733.116,20.729 738.381,24.886 743.768,28.149 
		744.85,21.383 742.229,13.759 736.163,6.039 731.731,2.446 	"/>
	<polygon fill="#5A9965" points="742.836,28.149 746.866,20.087 752.108,13.637 758.155,10.814 765.815,8.799 775.491,8.799 
		769.846,13.637 764.606,18.475 759.163,24.118 751.301,25.73 	"/>
	<polygon fill="#5A9965" points="742.6,26.135 742.6,29.359 742.6,35.851 740.936,44.68 739.725,50.323 739.725,57.494 
		739.725,64.836 739.725,70.884 738.231,78.945 737.192,83.6 737.192,85.396 738.856,83.6 739.725,80.156 739.725,76.93 
		739.895,74.512 741.145,67.256 740.936,59.999 740.936,55.766 741.352,48.711 742.6,43.469 744.499,38.632 744.499,34.196 
		744.499,30.569 744.499,26.135 	"/>
</g>
<polygon fill="#5A9965" points="0,105.274 52.223,99.729 109.323,102.502 153.572,90.771 200.424,88.638 258.556,96.956 
	289.791,101.009 334.909,96.956 380.026,78.826 439.893,60.909 513.643,72.428 573.51,85.651 644.655,95.036 709.729,83.092 
	781.743,60.909 818.184,51.525 818.184,118.925 0,118.925 "/>
<g>
	<polygon fill="#5A9965" points="577.026,10.668 575.915,17.147 576.247,22.397 572.52,28.56 565.18,35.481 560.633,37.781 
		560.09,31.143 561.415,26.053 565.327,19.582 571.407,13.582 	"/>
	<polygon fill="#5A9965" points="560.45,37.781 558.362,29.942 553.038,24.059 549.276,21.862 540.809,20.121 541.25,25.105 
		544.68,31.158 551.204,35.426 555.961,36.088 	"/>
	<polygon fill="#5A9965" points="560.954,36.208 562.336,42.329 564.411,47.429 564.411,56.882 562.682,62.492 560.954,68.973 
		560.954,74.542 562.682,81.214 564.411,88.055 562.682,88.055 560.954,83.734 559.801,79.054 558.651,74.542 558.651,69.692 
		560.493,62.132 561.53,58.171 563.028,50.97 561.53,47.429 560.264,43.05 559.801,39.089 559.571,36.208 	"/>
</g>
<g>
	<polygon fill="#5A9965" points="600.368,62 600.942,65.342 600.77,68.051 602.692,71.229 606.477,74.8 608.823,75.986 
		609.104,72.562 608.42,69.937 606.403,66.598 603.266,63.503 	"/>
	<polygon fill="#5A9965" points="608.918,75.986 609.997,71.942 612.743,68.907 614.682,67.774 619.051,66.876 618.823,69.447 
		617.053,72.57 613.688,74.771 611.233,75.113 	"/>
	<polygon fill="#5A9965" points="608.659,75.175 607.946,78.332 606.875,80.963 606.875,85.84 607.766,88.734 608.659,92.077 
		608.659,94.95 607.766,98.392 606.875,101.921 607.766,101.921 608.659,99.692 609.252,97.277 609.846,94.95 609.846,92.448 
		608.897,88.548 608.362,86.505 607.588,82.79 608.362,80.963 609.014,78.704 609.252,76.661 609.372,75.175 	"/>
</g>
<g>
	<polygon fill="#5A9965" points="334.229,60.224 334.967,63.516 333.313,68.322 331.256,71.587 328.37,73.865 325.417,75.655 
		324.823,71.945 326.26,67.767 329.584,63.534 332.016,61.565 	"/>
	<polygon fill="#5A9965" points="325.928,75.655 323.717,71.235 320.844,67.699 317.53,66.152 313.331,65.048 308.027,65.048 
		311.121,67.699 313.994,70.352 316.978,73.445 321.288,74.329 	"/>
	<polygon fill="#5A9965" points="326.057,74.551 326.057,76.318 326.057,79.876 326.969,84.716 327.633,87.81 327.633,91.741 
		327.633,95.766 327.633,99.081 328.452,103.5 329.022,106.052 329.022,107.036 328.11,106.052 327.633,104.163 327.633,102.395 
		327.54,101.069 326.856,97.092 326.969,93.114 326.969,90.793 326.741,86.926 326.057,84.053 325.016,81.4 325.016,78.97 
		325.016,76.981 325.016,74.551 	"/>
</g>
</svg>
