<?xml version="1.0" encoding="utf-8"?>
<!-- Generator: Adobe Illustrator 16.0.0, SVG Export Plug-In . SVG Version: 6.00 Build 0)  -->
<!DOCTYPE svg PUBLIC "-//W3C//DTD SVG 1.1//EN" "http://www.w3.org/Graphics/SVG/1.1/DTD/svg11.dtd">
<svg version="1.1" id="Layer_1" xmlns="http://www.w3.org/2000/svg" xmlns:xlink="http://www.w3.org/1999/xlink" x="0px" y="0px"
	 width="247.458px" height="247.458px" viewBox="0 0 247.458 247.458" enable-background="new 0 0 247.458 247.458"
	 xml:space="preserve">
<path fill="#5BA367" d="M123.729,0C55.395,0,0,55.395,0,123.729c0,68.333,55.395,123.729,123.729,123.729
	c68.334,0,123.729-55.395,123.729-123.729C247.458,55.395,192.063,0,123.729,0z M135.029,207.704
	c-3.653,3.687-8.107,5.532-13.365,5.532c-5.187,0-9.624-1.862-13.311-5.587c-3.689-3.725-5.533-8.143-5.533-13.256
	c0-5.185,1.844-9.586,5.533-13.201c3.687-3.615,8.124-5.423,13.311-5.423c5.258,0,9.712,1.808,13.365,5.423
	c3.651,3.615,5.478,8.016,5.478,13.201C140.506,199.58,138.68,204.017,135.029,207.704z M162.965,119.569
	c-5.989,7.085-14.718,11.832-26.183,14.242v28.264h-30.127v-46.888h9.641c7.45,0,13.237-2.136,17.364-6.409
	c4.125-4.272,6.189-10.205,6.189-17.802c0-6.938-1.517-12.27-4.546-15.995c-3.031-3.725-7.432-5.587-13.201-5.587
	c-5.77,0-10.188,1.753-13.256,5.258c-3.067,3.506-4.601,8.655-4.601,15.447c0,0.367,0.036,0.914,0.109,1.644
	c0.072,0.731,0.11,1.279,0.11,1.643H73.46V89.88c0-13.584,4.618-24.466,13.858-32.647c9.238-8.179,21.454-12.27,36.646-12.27
	c14.825,0,26.529,4.201,35.111,12.598c8.581,8.4,12.873,19.903,12.873,34.509C171.948,103.319,168.953,112.486,162.965,119.569z"/>
</svg>
