<?xml version="1.0" encoding="utf-8"?>
<!-- Generator: Adobe Illustrator 16.0.0, SVG Export Plug-In . SVG Version: 6.00 Build 0)  -->
<!DOCTYPE svg PUBLIC "-//W3C//DTD SVG 1.1//EN" "http://www.w3.org/Graphics/SVG/1.1/DTD/svg11.dtd">
<svg version="1.1" id="Layer_1" xmlns="http://www.w3.org/2000/svg" xmlns:xlink="http://www.w3.org/1999/xlink" x="0px" y="0px"
	 width="247.458px" height="247.458px" viewBox="0 0 247.458 247.458" enable-background="new 0 0 247.458 247.458"
	 xml:space="preserve">
<path fill="#71BCD3" d="M39.858,214.684l24.629-23.408l29.037-19.237h0.023c-20.075-10.029-33.869-30.763-33.869-54.73
	c0-33.776,27.381-61.157,61.157-61.157c33.776,0,61.157,27.381,61.157,61.157c0,23.967-13.794,44.701-33.869,54.73h1.487
	l36.364,22.129l23.394,18.856c23.473-22.519,38.089-54.199,38.089-89.295C247.458,55.395,192.063,0,123.729,0
	C55.395,0,0,55.395,0,123.729C0,159.698,15.354,192.077,39.858,214.684z"/>
</svg>
