<?xml version="1.0" encoding="utf-8"?>
<!-- Generator: Adobe Illustrator 16.0.0, SVG Export Plug-In . SVG Version: 6.00 Build 0)  -->
<!DOCTYPE svg PUBLIC "-//W3C//DTD SVG 1.1//EN" "http://www.w3.org/Graphics/SVG/1.1/DTD/svg11.dtd">
<svg version="1.1" id="Layer_1" xmlns="http://www.w3.org/2000/svg" xmlns:xlink="http://www.w3.org/1999/xlink" x="0px" y="0px"
	 width="247.458px" height="247.458px" viewBox="0 0 247.458 247.458" enable-background="new 0 0 247.458 247.458"
	 xml:space="preserve">
<path fill="#ED3C3B" d="M123.729,0C55.395,0,0,55.395,0,123.729c0,68.333,55.395,123.729,123.729,123.729
	c68.334,0,123.729-55.395,123.729-123.729C247.458,55.395,192.063,0,123.729,0z M64.901,142.516
	c-11.183,0-20.248-9.065-20.248-20.248s9.065-20.248,20.248-20.248s20.248,9.065,20.248,20.248S76.083,142.516,64.901,142.516z
	 M126.099,142.516c-11.183,0-20.248-9.065-20.248-20.248s9.065-20.248,20.248-20.248s20.248,9.065,20.248,20.248
	S137.282,142.516,126.099,142.516z M189.603,142.516c-11.183,0-20.248-9.065-20.248-20.248s9.065-20.248,20.248-20.248
	s20.248,9.065,20.248,20.248S200.786,142.516,189.603,142.516z"/>
</svg>
