<?xml version="1.0" encoding="utf-8"?>
<!-- Generator: Adobe Illustrator 16.0.0, SVG Export Plug-In . SVG Version: 6.00 Build 0)  -->
<!DOCTYPE svg PUBLIC "-//W3C//DTD SVG 1.1//EN" "http://www.w3.org/Graphics/SVG/1.1/DTD/svg11.dtd">
<svg version="1.1" id="Layer_1" xmlns="http://www.w3.org/2000/svg" xmlns:xlink="http://www.w3.org/1999/xlink" x="0px" y="0px"
	 width="247.458px" height="247.458px" viewBox="0 0 247.458 247.458" enable-background="new 0 0 247.458 247.458"
	 xml:space="preserve">
<circle fill="#EB9747" cx="123.729" cy="123.729" r="123.729"/>
<g>
	<g id="XMLID_1_">
		<g>
			<path fill="#191919" d="M219.06,72.29c0,3.451,0,6.905,0,10.355c-0.304,2.05-0.624,4.097-0.898,6.146
				c-1.675,12.42-5.232,24.165-12.493,34.551c-5.385,7.712-12.345,13.517-21.201,16.864c-7.179,2.704-14.61,3.73-22.271,3.134
				c-1.137-0.088-2.169-0.262-3.089,0.96c-6.058,8.067-13.252,14.79-22.782,18.612c-0.92,0.371-1.288,0.893-1.288,1.931
				c0.046,8.172,0.052,16.347,0,24.519c-0.012,1.288,0.417,1.617,1.654,1.608c7.964-0.046,15.938-0.021,23.902-0.021
				c0.598,0,1.194,0,1.992,0c0,0.722,0,1.27,0,1.812c0,4.469,0,8.937,0,13.401c0,1.952,0.003,1.952,2.02,1.956
				c2.317,0,4.636,0,6.95,0c0,3.295,0,6.359,0,9.411c-31.98,0-63.82,0-95.639,0c0-3.187,0-6.244,0-9.411
				c2.476,0,4.809-0.092,7.13,0.033c1.526,0.085,1.87-0.479,1.843-1.906c-0.076-4.508-0.031-9.031-0.031-13.545
				c0-0.539,0-1.078,0-1.761c0.762,0,1.313,0,1.861,0c8.019,0,16.042-0.027,24.055,0.021c1.249,0.01,1.66-0.329,1.647-1.614
				c-0.055-7.358-0.161-14.717,0.046-22.072c0.07-2.805-0.414-4.699-3.454-5.229c-0.426-0.07-0.813-0.405-1.218-0.609
				c-7.748-3.959-13.888-9.795-19.094-16.645c-0.932-1.228-1.818-1.645-3.283-1.489c-5.982,0.636-11.875-0.019-17.65-1.548
				c-13.271-3.518-22.715-11.881-29.297-23.68c-5.111-9.156-7.849-19.082-9.183-29.428c-0.265-2.007-0.591-3.999-0.893-6
				c0-3.451,0-6.905,0-10.355c12.183,0.018,24.36,0.018,36.543,0.058c1.142,0.009,1.353-0.49,1.337-1.477
				c-0.042-2.628-0.012-5.26-0.012-7.986c38.379,0,76.534,0,114.931,0c0,2.732,0.03,5.364-0.009,7.986
				c-0.013,0.978,0.191,1.486,1.334,1.477C194.704,72.308,206.88,72.302,219.06,72.29z M204.688,93.802
				c0.615-2.903,0.995-5.851,1.482-8.75c-0.414-0.146-0.56-0.235-0.697-0.235c-8.016-0.015-16.026-0.033-24.046,0.024
				c-0.356,0.006-0.932,0.661-1.015,1.084c-0.311,1.69-0.472,3.414-0.682,5.123c-1.315,10.87-3.759,21.457-8.114,31.542
				c-1.176,2.729-2.521,5.385-3.819,8.126c0.231,0.124,0.28,0.173,0.317,0.173c13.011-0.526,22.736-6.502,29.306-17.674
				C200.972,107.169,203.238,100.627,204.688,93.802z M79.761,130.832c-0.314-0.654-0.539-1.097-0.74-1.55
				c-1.861-4.268-3.926-8.461-5.525-12.826c-3.579-9.713-5.269-19.867-6.332-30.128c-0.134-1.249-0.57-1.575-1.779-1.565
				C57.98,84.82,50.57,84.789,43.16,84.789c-0.536,0-1.081,0-1.663,0c0,0.606-0.037,1.008,0.009,1.398
				c1.151,9.287,3.57,18.171,8.193,26.385c6.238,11.087,15.585,17.297,28.328,18.256C78.548,130.869,79.066,130.832,79.761,130.832z
				"/>
		</g>
		<g>
		</g>
	</g>
</g>
</svg>
