<?xml version="1.0" encoding="utf-8"?>
<!-- Generator: Adobe Illustrator 16.0.0, SVG Export Plug-In . SVG Version: 6.00 Build 0)  -->
<!DOCTYPE svg PUBLIC "-//W3C//DTD SVG 1.1//EN" "http://www.w3.org/Graphics/SVG/1.1/DTD/svg11.dtd">
<svg version="1.1" id="Layer_1" xmlns="http://www.w3.org/2000/svg" xmlns:xlink="http://www.w3.org/1999/xlink" x="0px" y="0px"
	 width="247.458px" height="247.458px" viewBox="0 0 247.458 247.458" enable-background="new 0 0 247.458 247.458"
	 xml:space="preserve">
<circle fill="#EB9747" cx="123.729" cy="123.729" r="123.729"/>
<g>
	<g id="XMLID_1_">
		<g>
			<path fill="#191919" d="M150.769,82.193c1.144,2.343,2.512,3.471,5.337,3.868c17.622,2.463,35.212,5.243,52.81,7.888
				c2.302,0.342,3.84,1.216,4.033,4.203c-1.127,1.533-2.053,3.273-3.405,4.576c-12.204,11.733-24.448,23.426-36.766,35.032
				c-2.004,1.891-2.785,3.52-2.205,6.49c3.212,16.332,6.126,32.729,8.911,49.141c0.338,1.954-0.129,4.671-1.36,6.014
				c-0.74,0.802-3.937,0.095-5.619-0.747c-15.408-7.682-30.752-15.498-46.047-23.402c-2.165-1.12-3.775-1.08-5.901,0.039
				c-15.118,7.96-30.276,15.841-45.507,23.569c-1.667,0.843-4.162,1.145-5.812,0.517c-0.805-0.31-1.006-3.392-0.717-5.092
				c2.906-16.929,5.901-33.849,9.081-50.729c0.435-2.327-0.177-3.606-1.755-5.107c-12.768-12.114-25.479-24.276-38.149-36.486
				c-1.095-1.057-2.222-2.479-2.479-3.885c-0.048-0.262-0.072-0.508-0.072-0.73c0-1.899,1.618-2.59,3.703-2.908
				c14.684-2.256,29.343-4.631,44.01-6.967c0.926-0.151,1.86-0.508,2.77-0.445c8.348,0.556,11.866-4.424,14.949-11.232
				c6.054-13.377,12.873-26.413,19.562-39.504c0.773-1.509,2.648-3.225,4.154-3.368c1.143-0.111,2.97,1.915,3.703,3.376
				C135.691,51.545,143.258,66.853,150.769,82.193z"/>
		</g>
		<g>
		</g>
	</g>
</g>
</svg>
