<?xml version="1.0" encoding="utf-8"?>
<!-- Generator: Adobe Illustrator 16.0.0, SVG Export Plug-In . SVG Version: 6.00 Build 0)  -->
<!DOCTYPE svg PUBLIC "-//W3C//DTD SVG 1.1//EN" "http://www.w3.org/Graphics/SVG/1.1/DTD/svg11.dtd">
<svg version="1.1" id="Layer_1" xmlns="http://www.w3.org/2000/svg" xmlns:xlink="http://www.w3.org/1999/xlink" x="0px" y="0px"
	 width="92.996px" height="39.667px" viewBox="0 0 92.996 39.667" enable-background="new 0 0 92.996 39.667" xml:space="preserve">
<g>
	<path fill="#EF5756" d="M31.94,19.978c-0.769,0-1.377,0.231-1.826,0.693s-0.674,1.087-0.674,1.875c0,0.781,0.225,1.406,0.674,1.875
		s1.058,0.703,1.826,0.703c0.762,0,1.372-0.234,1.831-0.703s0.688-1.094,0.688-1.875s-0.228-1.405-0.684-1.87
		S32.708,19.978,31.94,19.978z"/>
	<path fill="#EF5756" d="M44.049,19.783c-0.762,0-1.357,0.243-1.787,0.728s-0.645,1.154-0.645,2.007s0.212,1.517,0.635,1.992
		s1.016,0.713,1.777,0.713s1.355-0.238,1.782-0.713s0.64-1.139,0.64-1.992c0-0.846-0.215-1.514-0.645-2.002
		S44.792,19.783,44.049,19.783z"/>
	<path fill="#EF5756" d="M79.521,0H49.291L33.518,6.182L14.584,0L0,16.485V32.97l22.345,2.061l33.518,4.636L89.05,31.94
		l3.945-15.062L79.521,0z M25.534,27.322h-7.939V13.025h3.057v11.699h4.883V27.322z M35.783,26.238
		c-1.006,0.977-2.28,1.465-3.823,1.465c-1.556,0-2.839-0.488-3.848-1.465s-1.514-2.201-1.514-3.672c0-1.465,0.508-2.689,1.523-3.672
		s2.295-1.475,3.838-1.475c1.55,0,2.825,0.485,3.828,1.455s1.504,2.201,1.504,3.691C37.292,24.037,36.789,25.261,35.783,26.238z
		 M48.971,27.166c0,1.009-0.061,1.719-0.181,2.129s-0.327,0.765-0.62,1.064c-0.417,0.449-0.95,0.781-1.602,0.996
		s-1.442,0.322-2.373,0.322c-1.556,0-2.737-0.248-3.545-0.742s-1.247-1.247-1.318-2.256h3.057c0.046,0.371,0.215,0.645,0.508,0.82
		s0.726,0.264,1.299,0.264c0.755,0,1.301-0.195,1.636-0.586s0.503-1.042,0.503-1.953v-1.367c-0.371,0.592-0.818,1.032-1.343,1.318
		s-1.145,0.43-1.86,0.43c-1.315,0-2.366-0.46-3.154-1.382s-1.182-2.163-1.182-3.726c0-1.588,0.384-2.832,1.152-3.73
		s1.829-1.348,3.184-1.348c0.696,0,1.316,0.161,1.86,0.483s0.998,0.796,1.362,1.421v-1.582h2.617V27.166z M60.739,27.322h-2.773
		v-9.58h2.773V27.322z M60.5,14.958c-0.322,0.319-0.708,0.479-1.157,0.479c-0.442,0-0.823-0.163-1.143-0.488
		s-0.479-0.707-0.479-1.143c0-0.443,0.159-0.824,0.479-1.143s0.7-0.479,1.143-0.479c0.449,0,0.835,0.158,1.157,0.474
		s0.483,0.698,0.483,1.147S60.822,14.64,60.5,14.958z M73.288,21.726v5.596h-2.783v-4.736c0-1.178-0.137-1.957-0.41-2.334
		s-0.742-0.566-1.406-0.566c-0.384,0-0.737,0.08-1.06,0.239s-0.591,0.386-0.806,0.679c-0.169,0.228-0.291,0.488-0.366,0.781
		s-0.112,0.739-0.112,1.338v0.381v4.219h-2.783v-9.58h2.725v1.504c0.501-0.625,1.04-1.085,1.616-1.382s1.216-0.444,1.919-0.444
		c0.742,0,1.365,0.125,1.87,0.376s0.903,0.633,1.196,1.147c0.144,0.267,0.246,0.568,0.308,0.903s0.093,0.861,0.093,1.577V21.726z"/>
</g>
</svg>
