<?xml version="1.0" encoding="utf-8"?>
<!-- Generator: Adobe Illustrator 16.0.0, SVG Export Plug-In . SVG Version: 6.00 Build 0)  -->
<!DOCTYPE svg PUBLIC "-//W3C//DTD SVG 1.1//EN" "http://www.w3.org/Graphics/SVG/1.1/DTD/svg11.dtd">
<svg version="1.1" id="Layer_1" xmlns="http://www.w3.org/2000/svg" xmlns:xlink="http://www.w3.org/1999/xlink" x="0px" y="0px"
	 width="108px" height="108px" viewBox="0 0 108 108" enable-background="new 0 0 108 108" xml:space="preserve">
<path fill="#5BA367" d="M54.308,17.939c-22.737,0-41.17,18.433-41.17,41.167c0,22.739,18.433,41.172,41.17,41.172
	s41.165-18.433,41.165-41.172C95.473,36.372,77.045,17.939,54.308,17.939z M51.777,55.645C51.351,67.177,42.29,75.69,39.175,78.287
	v6.235h-2.197v-6.222c-3.397-2.549-13.131-10.975-12.279-23.358c1.032-14.968,13.431-21.25,13.431-21.25
	S52.293,41.708,51.777,55.645z M72.125,83.392c-0.976,1.022-2.146,1.532-3.519,1.532c-1.329,0-2.49-0.488-3.486-1.465
	c-0.998-0.976-1.495-2.173-1.495-3.593c0-1.421,0.487-2.641,1.464-3.662c0.976-1.021,2.146-1.532,3.518-1.532
	c1.372,0,2.543,0.49,3.519,1.466c0.977,0.977,1.464,2.177,1.464,3.596S73.102,82.374,72.125,83.392z M81.128,55.304
	c-0.957,1.597-2.557,3.438-4.796,5.525c-1.705,1.596-2.815,2.872-3.334,3.826c-0.521,0.955-0.78,2.363-0.78,4.227v1.73h-7.346
	v-2.528c0-2.131,0.287-3.881,0.871-5.259c0.58-1.373,1.659-2.862,3.236-4.461l2.803-2.863c1.908-1.862,2.867-3.835,2.867-5.922
	c0-1.774-0.528-3.239-1.589-4.393c-1.06-1.153-2.48-1.73-4.268-1.73c-1.868,0-3.374,0.677-4.514,2.029
	c-1.143,1.355-1.756,2.985-1.84,4.893l-7.661-0.732c0.458-4.17,2.016-7.455,4.675-9.852c2.655-2.396,5.935-3.594,9.839-3.594
	c3.777,0,6.934,1.131,9.469,3.395c2.532,2.263,3.797,5.415,3.797,9.452C82.558,51.622,82.081,53.705,81.128,55.304z"/>
<g>
	<path fill="#5BA367" d="M10.603,78.692c-1.47,0.481-2.799,0.401-3.988-0.24c-1.19-0.644-2.023-1.69-2.499-3.144
		c-0.482-1.47-0.434-2.817,0.143-4.043c0.577-1.227,1.601-2.08,3.071-2.563c1.443-0.474,2.777-0.39,3.999,0.251
		c1.224,0.642,2.074,1.692,2.553,3.154c0.473,1.443,0.407,2.784-0.202,4.02C13.074,77.364,12.047,78.219,10.603,78.692z
		 M10.014,76.895c0.999-0.328,1.721-0.894,2.169-1.7c0.448-0.806,0.519-1.677,0.212-2.613c-0.309-0.944-0.883-1.608-1.723-1.994
		c-0.837-0.384-1.756-0.413-2.753-0.086c-0.971,0.318-1.684,0.88-2.138,1.683c-0.455,0.803-0.525,1.682-0.213,2.635
		c0.31,0.945,0.886,1.606,1.727,1.985C8.137,77.182,9.043,77.213,10.014,76.895z"/>
	<path fill="#5BA367" d="M11.901,66.035l-9.758,0.654L1.99,64.388l7-5.024l-0.001-0.027l-7.306,0.489l-0.116-1.736l9.759-0.654
		l0.147,2.205l-7.229,5.137l0.002,0.027l7.539-0.506L11.901,66.035z"/>
	<path fill="#5BA367" d="M11.516,55.769l-9.673-1.442l0.956-6.408l1.502,0.224l-0.698,4.687l2.459,0.366l0.663-4.439l1.447,0.216
		l-0.662,4.44l2.732,0.406l0.736-4.932l1.53,0.229L11.516,55.769z"/>
	<path fill="#5BA367" d="M16.976,34.689l1.268,0.613l-2.567,5.311c-0.688,1.426-1.639,2.371-2.85,2.833
		c-1.211,0.464-2.521,0.354-3.931-0.327c-1.327-0.642-2.195-1.611-2.605-2.909c-0.412-1.298-0.288-2.627,0.369-3.986
		c0.658-1.359,1.62-2.275,2.886-2.748c1.267-0.472,2.563-0.387,3.89,0.253c0.73,0.353,1.298,0.812,1.706,1.377
		c0.407,0.565,0.66,1.147,0.758,1.748l0.025,0.012L16.976,34.689z M8.066,36.903c-0.412,0.854-0.463,1.709-0.151,2.565
		c0.312,0.857,0.915,1.501,1.811,1.934c0.938,0.454,1.829,0.546,2.673,0.279c0.845-0.266,1.481-0.843,1.911-1.73
		c0.424-0.878,0.482-1.739,0.171-2.579c-0.309-0.84-0.933-1.486-1.869-1.939c-0.903-0.437-1.781-0.521-2.633-0.252
		C9.128,35.45,8.491,36.024,8.066,36.903z"/>
	<path fill="#5BA367" d="M16.23,22.589l4.772,3.939c0.894,0.738,1.375,1.617,1.443,2.634c0.068,1.018-0.262,1.967-0.99,2.847
		c-0.726,0.881-1.595,1.385-2.607,1.51c-1.011,0.126-1.964-0.18-2.859-0.919l-4.773-3.939l1.108-1.342l4.72,3.896
		c0.504,0.417,1.042,0.635,1.618,0.655c0.574,0.021,1.104-0.264,1.591-0.854c0.486-0.589,0.666-1.163,0.537-1.724
		c-0.129-0.561-0.445-1.048-0.949-1.464l-4.72-3.896L16.23,22.589z"/>
	<path fill="#5BA367" d="M24.966,27.752l-6.116-7.632l5.056-4.051l0.95,1.186l-3.697,2.962l1.555,1.94l3.504-2.808l0.916,1.143
		l-3.504,2.808l1.728,2.156l3.891-3.119l0.968,1.208L24.966,27.752z"/>
	<path fill="#5BA367" d="M32.456,12.092l-0.41,1.631c-0.279-0.131-0.604-0.187-0.975-0.166c-0.37,0.021-0.706,0.113-1.005,0.273
		c-0.397,0.214-0.697,0.503-0.897,0.867c-0.202,0.365-0.199,0.742,0.01,1.131c0.105,0.194,0.228,0.34,0.37,0.437
		c0.14,0.097,0.326,0.151,0.557,0.163c0.231,0.012,0.439,0.004,0.625-0.021c0.184-0.026,0.453-0.071,0.806-0.135
		c0.332-0.063,0.606-0.112,0.823-0.146c0.218-0.033,0.492-0.047,0.825-0.042c0.331,0.004,0.615,0.047,0.853,0.129
		c0.237,0.082,0.481,0.225,0.732,0.43c0.251,0.205,0.464,0.47,0.638,0.794c0.475,0.884,0.542,1.724,0.201,2.519
		c-0.34,0.795-0.962,1.435-1.862,1.918c-0.576,0.309-1.188,0.499-1.834,0.569c-0.646,0.071-1.242,0-1.782-0.21l0.545-1.611
		c0.364,0.171,0.767,0.25,1.21,0.237c0.442-0.014,0.837-0.113,1.187-0.301c0.414-0.223,0.72-0.522,0.919-0.902
		c0.198-0.378,0.182-0.783-0.048-1.212c-0.079-0.146-0.17-0.267-0.274-0.363s-0.236-0.163-0.398-0.202
		c-0.162-0.039-0.3-0.066-0.413-0.083c-0.114-0.017-0.294-0.009-0.543,0.025c-0.25,0.034-0.427,0.059-0.533,0.074
		s-0.315,0.055-0.627,0.117c-0.359,0.068-0.679,0.108-0.954,0.121s-0.578-0.01-0.907-0.069c-0.33-0.059-0.632-0.199-0.91-0.422
		c-0.276-0.222-0.517-0.524-0.722-0.906c-0.44-0.819-0.466-1.613-0.079-2.379c0.387-0.768,1.011-1.382,1.871-1.844
		c0.455-0.245,0.949-0.409,1.484-0.492C31.472,11.938,31.978,11.961,32.456,12.092z"/>
	<path fill="#5BA367" d="M39.668,18.938l-2.626-7.833L34.2,12.058l-0.482-1.441l7.334-2.459L41.534,9.6l-2.842,0.952l2.625,7.832
		L39.668,18.938z"/>
	<path fill="#5BA367" d="M45.025,17.405L43.15,7.807l1.708-0.333l1.875,9.598L45.025,17.405z"/>
	<path fill="#5BA367" d="M47.864,11.641c-0.029-1.547,0.437-2.794,1.399-3.744c0.963-0.949,2.208-1.438,3.736-1.467
		c1.547-0.03,2.822,0.41,3.826,1.321c1.002,0.911,1.519,2.14,1.549,3.687c0.029,1.519-0.441,2.77-1.412,3.75
		c-0.972,0.981-2.227,1.487-3.764,1.517c-1.519,0.03-2.781-0.427-3.784-1.371C48.41,14.391,47.894,13.16,47.864,11.641z
		 M49.756,11.604c0.02,1.049,0.35,1.906,0.99,2.571c0.639,0.664,1.451,0.987,2.436,0.968c0.994-0.019,1.798-0.373,2.412-1.062
		c0.612-0.689,0.908-1.559,0.888-2.608c-0.02-1.022-0.347-1.867-0.981-2.537c-0.635-0.669-1.454-0.994-2.457-0.975
		c-0.995,0.02-1.796,0.376-2.404,1.069S49.737,10.582,49.756,11.604z"/>
	<path fill="#5BA367" d="M59.601,16.594l2.262-9.514l2.244,0.534l2.729,8.173l0.026,0.006l1.692-7.122l1.694,0.402l-2.262,9.516
		l-2.149-0.512l-2.769-8.424l-0.027-0.007l-1.747,7.352L59.601,16.594z"/>
	<path fill="#5BA367" d="M72.501,20.571l4.881-8.476l5.613,3.233l-0.759,1.316l-4.104-2.364l-1.242,2.155l3.891,2.239l-0.729,1.27
		l-3.892-2.241l-1.379,2.394l4.322,2.488l-0.772,1.341L72.501,20.571z"/>
	<path fill="#5BA367" d="M81.345,26.409l3.509-9.914l1.469,1.279l-2.915,7.446l0.042,0.037l6.997-3.889l1.417,1.233l-9.383,4.797
		L81.345,26.409z"/>
	<path fill="#5BA367" d="M85.68,30.447l7.737-5.981l3.962,5.126l-1.201,0.929l-2.897-3.748l-1.968,1.521l2.745,3.552l-1.158,0.896
		l-2.746-3.552l-2.186,1.689l3.049,3.945l-1.223,0.946L85.68,30.447z"/>
	<path fill="#5BA367" d="M90.428,36.835l8.73-4.408l1.532,3.034c0.295,0.583,0.483,1.146,0.565,1.687
		c0.082,0.542,0.008,1.069-0.223,1.583c-0.231,0.514-0.637,0.918-1.222,1.212c-0.615,0.312-1.217,0.393-1.803,0.246
		c-0.585-0.149-1.105-0.5-1.561-1.054l-2.695,4.286l-0.946-1.875l2.678-3.89l-0.572-1.134l-3.699,1.868L90.428,36.835z
		 M96.182,35.88l0.642,1.271c0.631,1.249,1.37,1.66,2.217,1.232c0.427-0.216,0.646-0.538,0.657-0.966
		c0.011-0.429-0.106-0.886-0.351-1.37l-0.711-1.406L96.182,35.88z"/>
	<path fill="#5BA367" d="M94.61,46.456l4.077-1.164l4.318-5.054l0.584,2.045l-3.284,3.495l4.64,1.261l0.554,1.939l-6.334-2.013
		l-4.078,1.163L94.61,46.456z"/>
	<path fill="#5BA367" d="M96.499,54.941l9.78,0.041l-0.015,3.467c-0.003,0.682-0.091,1.325-0.265,1.933
		c-0.172,0.606-0.441,1.177-0.808,1.709c-0.365,0.533-0.878,0.957-1.538,1.272c-0.66,0.314-1.427,0.471-2.302,0.467
		c-0.82-0.004-1.552-0.166-2.194-0.486c-0.644-0.32-1.155-0.746-1.535-1.277s-0.666-1.107-0.855-1.73
		c-0.191-0.622-0.285-1.264-0.283-1.928L96.499,54.941z M98.012,56.688l-0.007,1.45c-0.001,0.377,0.029,0.738,0.092,1.084
		c0.064,0.347,0.176,0.689,0.336,1.031c0.159,0.342,0.36,0.635,0.604,0.88c0.243,0.244,0.564,0.444,0.964,0.597
		c0.399,0.154,0.853,0.232,1.36,0.234c2.266,0.01,3.403-1.257,3.413-3.799l0.007-1.45L98.012,56.688z"/>
	<path fill="#5BA367" d="M96.533,63.511l8.586,6.327l-0.336,1.468l-10.473,1.928l0.443-1.939l2.385-0.391l0.944-4.134l-1.984-1.36
		L96.533,63.511z M99.405,67.682l-0.678,2.962l4.215-0.581L99.405,67.682z"/>
	<path fill="#5BA367" d="M93.3,75.069l3.889,1.693l6.545-1.157l-0.85,1.951l-4.756,0.61l2.782,3.923l-0.806,1.85l-3.612-5.581
		l-3.887-1.693L93.3,75.069z"/>
</g>
</svg>
