<?xml version="1.0" encoding="utf-8"?>
<!-- Generator: Adobe Illustrator 16.0.0, SVG Export Plug-In . SVG Version: 6.00 Build 0)  -->
<!DOCTYPE svg PUBLIC "-//W3C//DTD SVG 1.1//EN" "http://www.w3.org/Graphics/SVG/1.1/DTD/svg11.dtd">
<svg version="1.1" id="Layer_1" xmlns="http://www.w3.org/2000/svg" xmlns:xlink="http://www.w3.org/1999/xlink" x="0px" y="0px"
	 width="108px" height="108px" viewBox="0 0 108 108" enable-background="new 0 0 108 108" xml:space="preserve">
<path fill="#5BA367" d="M54.092,16.916c-21.571,0-39.06,17.487-39.06,39.057c0,21.574,17.489,39.063,39.06,39.063
	c21.572,0,39.056-17.488,39.056-39.063C93.148,34.403,75.664,16.916,54.092,16.916z M51.692,52.689
	c-0.405,10.942-9.001,19.018-11.956,21.483v5.914h-2.084v-5.902c-3.223-2.418-12.458-10.412-11.65-22.161
	c0.979-14.201,12.742-20.161,12.742-20.161S52.181,39.466,51.692,52.689z M70.998,79.014c-0.928,0.971-2.037,1.455-3.34,1.455
	c-1.262,0-2.363-0.465-3.307-1.391c-0.947-0.926-1.418-2.061-1.418-3.408c0-1.35,0.461-2.506,1.389-3.475
	c0.924-0.969,2.035-1.455,3.336-1.455c1.303,0,2.412,0.467,3.34,1.391c0.926,0.928,1.389,2.066,1.389,3.412
	C72.387,76.891,71.924,78.049,70.998,79.014z M79.539,52.366c-0.908,1.515-2.426,3.261-4.551,5.242
	c-1.617,1.514-2.672,2.725-3.164,3.631c-0.494,0.906-0.738,2.242-0.738,4.01v1.643h-6.971v-2.4c0-2.021,0.273-3.682,0.828-4.988
	c0.549-1.303,1.572-2.715,3.068-4.232l2.66-2.717c1.811-1.767,2.721-3.638,2.721-5.618c0-1.684-0.502-3.073-1.508-4.167
	s-2.354-1.642-4.049-1.642c-1.771,0-3.201,0.643-4.281,1.925c-1.086,1.286-1.666,2.833-1.746,4.642l-7.27-0.694
	c0.436-3.957,1.913-7.073,4.436-9.347c2.52-2.273,5.631-3.41,9.334-3.41c3.584,0,6.58,1.073,8.984,3.221
	c2.402,2.147,3.602,5.137,3.602,8.967C80.895,48.872,80.441,50.849,79.539,52.366z"/>
<g>
	<path fill="#5BA367" d="M36.425,100.935c-1.021,1.781-2.402,2.882-4.145,3.307c-1.744,0.422-3.494,0.132-5.254-0.876
		c-1.781-1.021-2.932-2.394-3.453-4.113c-0.52-1.721-0.271-3.471,0.75-5.252c1.002-1.749,2.391-2.852,4.166-3.306
		c1.774-0.455,3.546-0.175,5.317,0.84c1.749,1.002,2.874,2.382,3.373,4.139C37.678,97.432,37.427,99.186,36.425,100.935z
		 M34.245,99.687c0.694-1.21,0.903-2.41,0.628-3.602c-0.274-1.193-0.979-2.114-2.114-2.765c-1.145-0.655-2.301-0.8-3.469-0.435
		c-1.167,0.367-2.097,1.153-2.789,2.362c-0.675,1.177-0.878,2.362-0.614,3.557c0.267,1.194,0.979,2.124,2.133,2.786
		c1.145,0.655,2.3,0.796,3.465,0.422S33.572,100.862,34.245,99.687z"/>
	<path fill="#5BA367" d="M26.683,87.341l-9.826,8.476L14.859,93.5l3.416-10.912l-0.023-0.026l-7.355,6.344l-1.509-1.747l9.825-8.478
		l1.916,2.222L17.56,92.114l0.023,0.026l7.591-6.549L26.683,87.341z"/>
	<path fill="#5BA367" d="M18.32,76.853L6.478,82.157l-3.514-7.844l1.839-0.826l2.57,5.74l3.011-1.351L7.949,72.44l1.772-0.793
		l2.436,5.435l3.344-1.499l-2.704-6.039l1.873-0.837L18.32,76.853z"/>
	<path fill="#5BA367" d="M11.038,49.239l1.87-0.026l0.11,7.826c0.03,2.101-0.536,3.786-1.698,5.055
		c-1.161,1.268-2.78,1.918-4.857,1.946c-1.954,0.027-3.561-0.607-4.82-1.902c-1.258-1.294-1.901-2.945-1.93-4.949
		c-0.028-2.001,0.569-3.661,1.79-4.973c1.222-1.313,2.811-1.982,4.765-2.01c1.075-0.016,2.022,0.19,2.841,0.621
		c0.818,0.428,1.465,0.969,1.938,1.622l0.037,0L11.038,49.239z M1.782,57.159c0.018,1.26,0.466,2.305,1.346,3.136
		c0.88,0.829,1.979,1.236,3.299,1.217c1.381-0.021,2.493-0.438,3.337-1.257c0.843-0.816,1.255-1.882,1.238-3.188
		c-0.019-1.295-0.461-2.349-1.328-3.161c-0.867-0.813-1.991-1.21-3.372-1.189c-1.331,0.018-2.423,0.439-3.271,1.265
		C2.181,54.807,1.765,55.866,1.782,57.159z"/>
	<path fill="#5BA367" d="M4.257,34.719l7.813,2.527c1.466,0.474,2.487,1.322,3.069,2.544c0.581,1.221,0.638,2.553,0.172,3.995
		c-0.467,1.441-1.292,2.487-2.479,3.137c-1.186,0.65-2.512,0.738-3.976,0.264l-7.813-2.527l0.711-2.197l7.725,2.499
		c0.825,0.267,1.597,0.273,2.315,0.018c0.719-0.256,1.235-0.867,1.546-1.832c0.313-0.964,0.253-1.76-0.181-2.389
		c-0.432-0.627-1.062-1.075-1.886-1.341l-7.726-2.499L4.257,34.719z"/>
	<path fill="#5BA367" d="M17.598,36.992l-10.8-7.193l4.763-7.154l1.679,1.117l-3.484,5.233l2.746,1.828l3.302-4.958l1.617,1.077
		L14.118,31.9l3.052,2.032l3.667-5.506l1.708,1.137L17.598,36.992z"/>
	<path fill="#5BA367" d="M21.645,14.188l-0.005,2.231c-0.403-0.08-0.838-0.046-1.309,0.099c-0.47,0.146-0.872,0.371-1.207,0.675
		c-0.443,0.402-0.736,0.87-0.879,1.404c-0.142,0.534-0.017,1.019,0.377,1.452c0.197,0.218,0.402,0.366,0.615,0.444
		c0.212,0.081,0.47,0.091,0.771,0.032c0.301-0.06,0.567-0.134,0.796-0.228c0.229-0.091,0.561-0.236,0.994-0.432
		c0.408-0.188,0.746-0.338,1.015-0.45c0.269-0.111,0.618-0.217,1.047-0.318c0.429-0.102,0.809-0.137,1.14-0.107
		c0.332,0.028,0.692,0.135,1.081,0.317c0.389,0.183,0.748,0.457,1.076,0.818c0.895,0.986,1.25,2.046,1.066,3.18
		c-0.185,1.131-0.78,2.154-1.784,3.065c-0.642,0.583-1.369,1.025-2.178,1.322c-0.811,0.298-1.599,0.398-2.364,0.301l0.187-2.249
		c0.523,0.104,1.068,0.077,1.633-0.083c0.566-0.158,1.042-0.415,1.432-0.768c0.461-0.419,0.76-0.904,0.895-1.454
		c0.134-0.552-0.016-1.068-0.451-1.547c-0.148-0.164-0.304-0.29-0.469-0.38c-0.164-0.089-0.357-0.133-0.577-0.132
		c-0.222,0.002-0.407,0.011-0.56,0.025c-0.151,0.014-0.382,0.083-0.692,0.206c-0.308,0.124-0.529,0.212-0.661,0.267
		c-0.133,0.054-0.39,0.171-0.77,0.353c-0.443,0.204-0.84,0.357-1.19,0.46c-0.351,0.105-0.749,0.172-1.191,0.202
		c-0.442,0.031-0.876-0.052-1.304-0.25c-0.428-0.199-0.834-0.51-1.22-0.936c-0.83-0.914-1.118-1.928-0.865-3.04
		c0.254-1.112,0.858-2.103,1.818-2.974c0.507-0.459,1.091-0.829,1.753-1.107C20.328,14.305,20.987,14.174,21.645,14.188z"/>
	<path fill="#5BA367" d="M33.143,20.958l-5.296-9.596l-3.481,1.922l-0.975-1.765l8.986-4.961l0.974,1.765l-3.482,1.923l5.296,9.594
		L33.143,20.958z"/>
	<path fill="#5BA367" d="M39.654,17.859L35.465,5.577l2.186-0.746l4.188,12.283L39.654,17.859z"/>
	<path fill="#5BA367" d="M42.615,9.618c-0.193-2.044,0.3-3.741,1.479-5.093c1.179-1.351,2.779-2.122,4.798-2.313
		c2.044-0.195,3.774,0.262,5.191,1.367c1.419,1.104,2.226,2.679,2.417,4.724c0.191,2.007-0.307,3.707-1.496,5.102
		c-1.187,1.396-2.795,2.189-4.827,2.382c-2.006,0.19-3.721-0.288-5.143-1.437C43.612,13.201,42.806,11.624,42.615,9.618z
		 M45.115,9.38c0.132,1.387,0.653,2.488,1.565,3.304c0.912,0.815,2.018,1.162,3.32,1.038c1.314-0.125,2.341-0.673,3.084-1.646
		c0.742-0.972,1.05-2.151,0.918-3.539c-0.129-1.351-0.646-2.436-1.553-3.259c-0.905-0.822-2.021-1.17-3.347-1.045
		c-1.314,0.125-2.339,0.675-3.075,1.653C45.292,6.867,44.987,8.029,45.115,9.38z"/>
	<path fill="#5BA367" d="M58.416,15.113L61.584,2.53l2.967,0.749l3.477,10.891l0.037,0.008l2.371-9.419l2.24,0.563l-3.168,12.583
		l-2.844-0.716L63.139,5.963l-0.035-0.008l-2.449,9.722L58.416,15.113z"/>
	<path fill="#5BA367" d="M75.092,20.891l7.732-10.421l6.904,5.123l-1.201,1.62l-5.049-3.747l-1.965,2.65l4.783,3.549l-1.158,1.56
		l-4.785-3.549l-2.182,2.944l5.313,3.942l-1.221,1.649L75.092,20.891z"/>
	<path fill="#5BA367" d="M85.51,30.04l6.998-12.073l1.604,2.027l-5.623,8.997l0.047,0.059l10.076-3.362l1.545,1.955L86.75,31.607
		L85.51,30.04z"/>
	<path fill="#5BA367" d="M90.006,36.259l11.926-5.11l3.385,7.903l-1.852,0.793l-2.477-5.78l-3.033,1.3l2.346,5.475l-1.785,0.766
		l-2.346-5.477l-3.369,1.444l2.605,6.082l-1.889,0.809L90.006,36.259z"/>
	<path fill="#5BA367" d="M93.879,45.924l12.834-1.929l0.668,4.457c0.129,0.858,0.133,1.645,0.012,2.361
		c-0.121,0.716-0.432,1.35-0.938,1.902c-0.504,0.55-1.186,0.893-2.041,1.021c-0.906,0.137-1.697-0.01-2.375-0.44
		c-0.678-0.428-1.186-1.088-1.529-1.974l-5.176,4.28l-0.414-2.754l4.99-3.791l-0.25-1.667l-5.438,0.818L93.879,45.924z
		 M101.525,47.109l0.281,1.867c0.275,1.835,1.035,2.661,2.281,2.474c0.627-0.093,1.039-0.409,1.23-0.944
		c0.191-0.536,0.23-1.161,0.125-1.873l-0.311-2.067L101.525,47.109z"/>
	<path fill="#5BA367" d="M94.857,59.604l5.59,0.618l7.842-4.039l-0.309,2.805l-5.787,2.644l5.064,3.877l-0.293,2.661l-6.77-5.652
		L94.602,61.9L94.857,59.604z"/>
	<path fill="#5BA367" d="M92.736,70.701l11.438,6.13L102,80.887c-0.426,0.797-0.93,1.498-1.51,2.101
		c-0.58,0.604-1.25,1.105-2.01,1.502c-0.762,0.396-1.625,0.573-2.594,0.531c-0.971-0.04-1.965-0.336-2.988-0.883
		c-0.959-0.514-1.717-1.16-2.271-1.934c-0.555-0.776-0.889-1.594-1.006-2.451c-0.113-0.86-0.088-1.713,0.076-2.563
		c0.164-0.847,0.451-1.659,0.867-2.435L92.736,70.701z M93.422,73.689l-0.908,1.695c-0.238,0.441-0.426,0.886-0.566,1.329
		c-0.141,0.445-0.223,0.917-0.248,1.416c-0.025,0.498,0.027,0.969,0.158,1.407c0.135,0.436,0.387,0.872,0.76,1.301
		s0.855,0.802,1.449,1.12c2.648,1.419,4.77,0.643,6.363-2.33l0.91-1.697L93.422,73.689z"/>
	<path fill="#5BA367" d="M87.574,80.649l5.158,13.178l-1.416,1.41l-13.117-5.251l1.871-1.86l2.949,1.249l3.988-3.971l-1.264-2.932
		L87.574,80.649z M87.846,87.363l-2.857,2.845l5.141,2.33L87.846,87.363z"/>
	<path fill="#5BA367" d="M75.756,91.002l2.848,4.854l7.926,3.868l-2.434,1.431l-5.58-3.06l-0.078,6.381l-2.309,1.355l0.484-8.808
		l-2.85-4.852L75.756,91.002z"/>
</g>
<circle fill="#5BA367" cx="43.956" cy="102.601" r="1.828"/>
<circle fill="#5BA367" cx="55.918" cy="104.429" r="1.828"/>
<circle fill="#5BA367" cx="67.374" cy="102.601" r="1.828"/>
</svg>
