<?xml version="1.0" encoding="utf-8"?>
<!-- Generator: Adobe Illustrator 16.0.0, SVG Export Plug-In . SVG Version: 6.00 Build 0)  -->
<!DOCTYPE svg PUBLIC "-//W3C//DTD SVG 1.1//EN" "http://www.w3.org/Graphics/SVG/1.1/DTD/svg11.dtd">
<svg version="1.1" id="Layer_1" xmlns="http://www.w3.org/2000/svg" xmlns:xlink="http://www.w3.org/1999/xlink" x="0px" y="0px"
	 width="108px" height="108px" viewBox="0 0 108 108" enable-background="new 0 0 108 108" xml:space="preserve">
<path fill="#5BA367" d="M54.092,16.916c-21.571,0-39.06,17.487-39.06,39.057c0,21.574,17.489,39.063,39.06,39.063
	c21.572,0,39.056-17.488,39.056-39.063C93.148,34.403,75.664,16.916,54.092,16.916z M51.692,52.689
	c-0.405,10.942-9.001,19.018-11.956,21.483v5.914h-2.084v-5.902c-3.223-2.418-12.458-10.412-11.65-22.161
	c0.979-14.201,12.742-20.161,12.742-20.161S52.181,39.466,51.692,52.689z M70.998,79.014c-0.928,0.971-2.037,1.455-3.34,1.455
	c-1.262,0-2.363-0.465-3.307-1.391c-0.947-0.926-1.418-2.061-1.418-3.408c0-1.35,0.461-2.506,1.389-3.475
	c0.924-0.969,2.035-1.455,3.336-1.455c1.303,0,2.412,0.467,3.34,1.391c0.926,0.928,1.389,2.066,1.389,3.412
	C72.387,76.891,71.924,78.049,70.998,79.014z M79.539,52.366c-0.908,1.515-2.426,3.261-4.551,5.242
	c-1.617,1.514-2.672,2.725-3.164,3.631c-0.494,0.906-0.738,2.242-0.738,4.01v1.643h-6.971v-2.4c0-2.021,0.273-3.682,0.828-4.988
	c0.549-1.303,1.572-2.715,3.068-4.232l2.66-2.717c1.811-1.767,2.721-3.638,2.721-5.618c0-1.684-0.502-3.073-1.508-4.167
	s-2.354-1.642-4.049-1.642c-1.771,0-3.201,0.643-4.281,1.925c-1.086,1.286-1.666,2.833-1.746,4.642l-7.27-0.694
	c0.436-3.957,1.913-7.073,4.436-9.347c2.52-2.273,5.631-3.41,9.334-3.41c3.584,0,6.58,1.073,8.984,3.221
	c2.402,2.147,3.602,5.137,3.602,8.967C80.895,48.872,80.441,50.849,79.539,52.366z"/>
<g>
	<path fill="#5BA367" d="M36.633,99.742c-1.003,1.752-2.362,2.835-4.076,3.253c-1.715,0.415-3.437,0.129-5.168-0.862
		c-1.752-1.004-2.884-2.354-3.396-4.045c-0.512-1.692-0.266-3.414,0.737-5.166c0.986-1.72,2.352-2.805,4.097-3.251
		c1.745-0.447,3.488-0.172,5.229,0.826c1.72,0.985,2.826,2.343,3.317,4.07C37.866,96.297,37.62,98.022,36.633,99.742z M34.49,98.515
		c0.682-1.189,0.888-2.37,0.618-3.542c-0.27-1.174-0.963-2.079-2.079-2.719c-1.126-0.645-2.264-0.787-3.412-0.428
		c-1.148,0.361-2.063,1.135-2.743,2.323c-0.664,1.157-0.864,2.323-0.604,3.498c0.263,1.175,0.962,2.089,2.098,2.74
		c1.126,0.645,2.262,0.783,3.408,0.415C32.923,100.436,33.828,99.672,34.49,98.515z"/>
	<path fill="#5BA367" d="M27.052,86.373l-9.664,8.336l-1.966-2.278l3.36-10.732l-0.023-0.026l-7.234,6.239l-1.484-1.718l9.663-8.338
		l1.884,2.185l-3.51,11.027l0.023,0.026l7.466-6.441L27.052,86.373z"/>
	<path fill="#5BA367" d="M18.827,76.057L7.179,81.274L3.723,73.56l1.809-0.813l2.528,5.646l2.961-1.328l-2.395-5.347l1.743-0.78
		l2.396,5.345l3.289-1.474l-2.659-5.939l1.842-0.823L18.827,76.057z"/>
	<path fill="#5BA367" d="M11.664,48.898l1.839-0.026l0.108,7.697c0.029,2.066-0.527,3.725-1.67,4.972
		c-1.142,1.247-2.734,1.887-4.777,1.914c-1.922,0.027-3.502-0.597-4.741-1.871c-1.237-1.272-1.87-2.896-1.898-4.867
		c-0.027-1.968,0.56-3.601,1.761-4.892c1.202-1.291,2.765-1.949,4.687-1.977c1.057-0.016,1.989,0.188,2.794,0.61
		c0.805,0.421,1.441,0.953,1.906,1.595l0.036,0L11.664,48.898z M2.561,56.688c0.018,1.239,0.459,2.267,1.324,3.084
		c0.866,0.815,1.947,1.217,3.245,1.197c1.358-0.021,2.452-0.432,3.282-1.236c0.83-0.803,1.235-1.851,1.218-3.136
		c-0.019-1.274-0.453-2.31-1.306-3.109c-0.853-0.799-1.958-1.19-3.316-1.169c-1.309,0.018-2.383,0.433-3.217,1.245
		C2.954,54.374,2.544,55.416,2.561,56.688z"/>
	<path fill="#5BA367" d="M4.995,34.617l7.684,2.486c1.442,0.466,2.447,1.3,3.019,2.502c0.571,1.201,0.627,2.511,0.169,3.929
		c-0.459,1.417-1.271,2.446-2.438,3.085c-1.167,0.64-2.471,0.726-3.911,0.26l-7.685-2.485l0.7-2.161l7.598,2.458
		c0.812,0.263,1.571,0.269,2.277,0.018c0.707-0.252,1.214-0.852,1.521-1.802c0.307-0.948,0.249-1.731-0.178-2.35
		c-0.425-0.617-1.044-1.058-1.855-1.319l-7.599-2.458L4.995,34.617z"/>
	<path fill="#5BA367" d="M18.117,36.853L7.495,29.778l4.685-7.037l1.651,1.099l-3.427,5.147l2.701,1.798l3.248-4.876l1.59,1.059
		l-3.248,4.876l3.002,1.999l3.606-5.416l1.68,1.118L18.117,36.853z"/>
	<path fill="#5BA367" d="M22.097,14.424l-0.005,2.194c-0.396-0.079-0.825-0.045-1.288,0.097c-0.462,0.144-0.857,0.364-1.187,0.664
		c-0.436,0.396-0.724,0.856-0.865,1.381c-0.14,0.525-0.016,1.001,0.371,1.428c0.194,0.214,0.395,0.359,0.604,0.437
		c0.209,0.079,0.462,0.089,0.758,0.032c0.296-0.059,0.558-0.132,0.783-0.225c0.226-0.09,0.552-0.232,0.978-0.425
		c0.401-0.185,0.733-0.333,0.998-0.443c0.265-0.109,0.607-0.213,1.03-0.313c0.422-0.1,0.795-0.135,1.122-0.106
		c0.326,0.028,0.681,0.133,1.063,0.313c0.382,0.18,0.735,0.449,1.059,0.805c0.88,0.97,1.229,2.012,1.048,3.127
		c-0.182,1.113-0.767,2.119-1.755,3.015c-0.631,0.573-1.346,1.008-2.143,1.3c-0.797,0.293-1.572,0.392-2.325,0.296l0.184-2.212
		c0.514,0.103,1.05,0.075,1.606-0.081c0.557-0.156,1.025-0.408,1.409-0.755c0.454-0.412,0.747-0.889,0.88-1.43
		c0.132-0.543-0.015-1.05-0.443-1.521c-0.146-0.161-0.299-0.285-0.461-0.375c-0.161-0.088-0.351-0.131-0.567-0.129
		c-0.218,0.002-0.4,0.011-0.55,0.025c-0.149,0.014-0.376,0.082-0.681,0.203c-0.303,0.122-0.521,0.208-0.65,0.262
		c-0.13,0.053-0.383,0.168-0.757,0.347c-0.436,0.201-0.826,0.352-1.171,0.453c-0.345,0.103-0.736,0.169-1.171,0.198
		c-0.435,0.031-0.862-0.051-1.283-0.246c-0.42-0.195-0.82-0.501-1.2-0.92c-0.816-0.898-1.1-1.896-0.851-2.99
		c0.25-1.093,0.844-2.068,1.788-2.925c0.499-0.452,1.073-0.815,1.725-1.089C20.801,14.539,21.45,14.41,22.097,14.424z"/>
	<path fill="#5BA367" d="M33.406,21.083l-5.209-9.438l-3.424,1.89l-0.958-1.736l8.838-4.879l0.958,1.736l-3.425,1.891l5.209,9.437
		L33.406,21.083z"/>
	<path fill="#5BA367" d="M39.809,18.035l-4.12-12.08l2.15-0.733l4.12,12.081L39.809,18.035z"/>
	<path fill="#5BA367" d="M42.722,9.929c-0.19-2.011,0.295-3.679,1.454-5.009c1.16-1.329,2.733-2.087,4.719-2.275
		c2.01-0.191,3.712,0.258,5.106,1.345c1.396,1.086,2.188,2.635,2.377,4.646c0.188,1.974-0.302,3.646-1.471,5.018
		c-1.167,1.373-2.75,2.153-4.748,2.342c-1.973,0.188-3.66-0.283-5.059-1.413C43.703,13.454,42.91,11.902,42.722,9.929z M45.18,9.695
		c0.13,1.365,0.643,2.448,1.54,3.25c0.896,0.802,1.985,1.143,3.265,1.021c1.292-0.123,2.303-0.662,3.033-1.618
		c0.73-0.956,1.032-2.116,0.903-3.48c-0.126-1.329-0.635-2.396-1.528-3.205c-0.89-0.809-1.987-1.151-3.292-1.028
		c-1.292,0.123-2.3,0.664-3.024,1.626C45.354,7.224,45.055,8.367,45.18,9.695z"/>
	<path fill="#5BA367" d="M58.263,15.334l3.115-12.376l2.919,0.737l3.419,10.712l0.036,0.008l2.333-9.264l2.202,0.554L69.171,18.08
		l-2.797-0.704L62.908,6.335l-0.036-0.008l-2.408,9.562L58.263,15.334z"/>
	<path fill="#5BA367" d="M74.664,21.017l7.605-10.25l6.79,5.038l-1.181,1.593l-4.966-3.685l-1.934,2.606l4.705,3.491l-1.14,1.534
		l-4.705-3.491l-2.147,2.896l5.226,3.877l-1.201,1.622L74.664,21.017z"/>
	<path fill="#5BA367" d="M84.91,30.015l6.883-11.874l1.577,1.994l-5.529,8.849l0.046,0.058l9.91-3.307l1.519,1.923L86.13,31.556
		L84.91,30.015z"/>
	<path fill="#5BA367" d="M89.332,36.131l11.73-5.026l3.328,7.772l-1.82,0.78l-2.436-5.685l-2.983,1.278l2.307,5.385l-1.756,0.753
		l-2.307-5.386l-3.314,1.42l2.563,5.981l-1.857,0.796L89.332,36.131z"/>
	<path fill="#5BA367" d="M93.142,45.638l12.622-1.897l0.657,4.384c0.128,0.844,0.131,1.618,0.013,2.323
		c-0.12,0.704-0.426,1.328-0.922,1.87c-0.496,0.542-1.166,0.878-2.009,1.004c-0.892,0.134-1.669-0.01-2.335-0.433
		c-0.666-0.421-1.167-1.07-1.504-1.942l-5.092,4.21l-0.406-2.709l4.907-3.728l-0.245-1.639l-5.349,0.804L93.142,45.638z
		 M100.663,46.803l0.276,1.836c0.271,1.805,1.019,2.617,2.243,2.433c0.617-0.092,1.021-0.402,1.21-0.928
		c0.188-0.527,0.228-1.142,0.124-1.842l-0.306-2.033L100.663,46.803z"/>
	<path fill="#5BA367" d="M94.104,59.092l5.498,0.608l7.713-3.973l-0.305,2.758l-5.691,2.601l4.981,3.813l-0.289,2.617l-6.658-5.56
		l-5.501-0.606L94.104,59.092z"/>
	<path fill="#5BA367" d="M92.019,70.007l11.248,6.029l-2.137,3.988c-0.42,0.784-0.916,1.474-1.486,2.066
		c-0.57,0.594-1.229,1.087-1.976,1.478c-0.75,0.389-1.6,0.563-2.552,0.522c-0.954-0.04-1.933-0.331-2.939-0.868
		c-0.943-0.506-1.688-1.142-2.233-1.902c-0.545-0.764-0.874-1.567-0.989-2.411c-0.111-0.846-0.087-1.685,0.074-2.52
		c0.161-0.833,0.445-1.632,0.854-2.395L92.019,70.007z M92.692,72.946L91.8,74.613c-0.234,0.435-0.42,0.871-0.559,1.308
		c-0.137,0.438-0.219,0.901-0.244,1.393c-0.024,0.489,0.028,0.952,0.157,1.384c0.131,0.429,0.38,0.857,0.746,1.279
		c0.368,0.422,0.842,0.789,1.426,1.102c2.604,1.396,4.691,0.632,6.259-2.291l0.895-1.67L92.692,72.946z"/>
	<path fill="#5BA367" d="M86.941,79.791l5.072,12.961l-1.393,1.387L77.72,88.975l1.84-1.83l2.901,1.229l3.923-3.905l-1.242-2.883
		L86.941,79.791z M87.208,86.395l-2.811,2.798l5.057,2.292L87.208,86.395z"/>
	<path fill="#5BA367" d="M75.316,89.974l2.802,4.773l7.795,3.805l-2.393,1.407l-5.489-3.01l-0.077,6.276l-2.27,1.333l0.476-8.663
		l-2.803-4.771L75.316,89.974z"/>
</g>
</svg>
