<?xml version="1.0" encoding="utf-8"?>
<!-- Generator: Adobe Illustrator 16.0.0, SVG Export Plug-In . SVG Version: 6.00 Build 0)  -->
<!DOCTYPE svg PUBLIC "-//W3C//DTD SVG 1.1//EN" "http://www.w3.org/Graphics/SVG/1.1/DTD/svg11.dtd">
<svg version="1.1" id="Layer_1" xmlns="http://www.w3.org/2000/svg" xmlns:xlink="http://www.w3.org/1999/xlink" x="0px" y="0px"
	 width="108px" height="108px" viewBox="0 0 108 108" enable-background="new 0 0 108 108" xml:space="preserve">
<path fill="#5BA367" d="M54.08,0.016c-29.63,0-53.649,24.019-53.649,53.646c0,29.627,24.02,53.648,53.649,53.648
	c29.627,0,53.641-24.021,53.641-53.648C107.721,24.034,83.707,0.016,54.08,0.016z M50.781,49.149
	c-0.554,15.028-12.362,26.122-16.42,29.503v8.129h-2.862v-8.109c-4.427-3.32-17.112-14.302-16.001-30.437
	c1.344-19.505,17.5-27.691,17.5-27.691S51.454,30.988,50.781,49.149z M77.298,85.307c-1.271,1.332-2.8,1.996-4.585,1.996
	c-1.732,0-3.247-0.637-4.546-1.908c-1.298-1.271-1.947-2.834-1.947-4.684c0-1.852,0.635-3.439,1.907-4.771
	c1.271-1.33,2.8-1.994,4.586-1.994c1.785,0,3.313,0.637,4.585,1.908s1.907,2.834,1.907,4.684
	C79.205,82.389,78.569,83.979,77.298,85.307z M89.026,48.705c-1.245,2.082-3.328,4.482-6.25,7.2
	c-2.219,2.08-3.666,3.744-4.342,4.986c-0.678,1.244-1.015,3.08-1.015,5.508v2.256h-9.577v-3.297c0-2.775,0.378-5.059,1.137-6.852
	c0.757-1.791,2.163-3.73,4.22-5.812l3.652-3.729c2.488-2.429,3.733-5.001,3.733-7.72c0-2.312-0.689-4.22-2.069-5.725
	c-1.38-1.503-3.233-2.255-5.56-2.255c-2.435,0-4.396,0.882-5.884,2.645c-1.489,1.765-2.287,3.89-2.395,6.375l-9.983-0.954
	c0.595-5.435,2.624-9.714,6.088-12.837c3.462-3.123,7.736-4.684,12.823-4.684c4.923,0,9.035,1.475,12.337,4.424
	c3.299,2.949,4.95,7.055,4.95,12.316C90.893,43.906,90.271,46.623,89.026,48.705z"/>
</svg>
