<?xml version="1.0" encoding="utf-8"?>
<!-- Generator: Adobe Illustrator 16.0.0, SVG Export Plug-In . SVG Version: 6.00 Build 0)  -->
<!DOCTYPE svg PUBLIC "-//W3C//DTD SVG 1.1//EN" "http://www.w3.org/Graphics/SVG/1.1/DTD/svg11.dtd">
<svg version="1.1" id="Layer_1" xmlns="http://www.w3.org/2000/svg" xmlns:xlink="http://www.w3.org/1999/xlink" x="0px" y="0px"
	 width="113.667px" height="113.664px" viewBox="0 0 113.667 113.664" enable-background="new 0 0 113.667 113.664"
	 xml:space="preserve">
<circle fill="#191819" cx="56.809" cy="56.804" r="53.976"/>
<path fill="#D2C6A7" d="M88.266,47.829H24.697c0,0-1.692-0.223-1.708-3.799c-0.016-3.576,1.708-3.799,1.708-3.799h63.568
	c0,0,1.705,0,1.707,3.799C89.973,47.829,88.266,47.829,88.266,47.829z"/>
<path fill="#D2C6A7" d="M88.267,63.298H24.698c0,0-1.692-0.223-1.708-3.799c-0.016-3.577,1.708-3.798,1.708-3.798h63.569
	c0,0,1.705,0,1.707,3.798C89.974,63.298,88.267,63.298,88.267,63.298z"/>
<path fill="#D2C6A7" d="M88.266,78.83H24.697c0,0-1.692-0.224-1.708-3.8c-0.016-3.575,1.708-3.799,1.708-3.799h63.568
	c0,0,1.705,0,1.707,3.799C89.973,78.83,88.266,78.83,88.266,78.83z"/>
</svg>
