<?xml version="1.0" encoding="utf-8"?>
<!-- Generator: Adobe Illustrator 16.0.0, SVG Export Plug-In . SVG Version: 6.00 Build 0)  -->
<!DOCTYPE svg PUBLIC "-//W3C//DTD SVG 1.1//EN" "http://www.w3.org/Graphics/SVG/1.1/DTD/svg11.dtd">
<svg version="1.1" id="Layer_1" xmlns="http://www.w3.org/2000/svg" xmlns:xlink="http://www.w3.org/1999/xlink" x="0px" y="0px"
	 width="216px" height="216px" viewBox="0 0 216 216" enable-background="new 0 0 216 216" xml:space="preserve">
<polygon fill="#DE8D42" points="6.156,106.33 -0.421,96.165 -7.597,106.928 -7.597,115.589 -1.871,123.877 -1.871,131.224 
	1.073,131.224 1.073,123.617 6.156,115.589 "/>
<polygon fill="#DE8D42" points="57.648,79.959 52.404,71.854 46.682,80.437 46.682,87.342 51.248,93.952 51.248,99.809 
	53.595,99.809 53.595,93.744 57.648,87.342 "/>
<polygon fill="#DE8D42" points="44.858,31.228 40.198,24.024 35.113,31.651 35.113,37.788 39.17,43.661 39.17,48.866 41.257,48.866 
	41.257,43.477 44.858,37.788 "/>
<polygon fill="#DE8D42" points="18.648,139.329 13.405,131.224 7.683,139.806 7.683,146.71 12.249,153.319 12.249,159.177 
	14.596,159.177 14.596,153.111 18.648,146.71 "/>
<polygon fill="#DE8D42" points="75.584,103.518 69.204,93.654 62.24,104.097 62.24,112.5 67.796,120.542 67.796,127.671 
	70.653,127.671 70.653,120.289 75.584,112.5 "/>
<g>
	<g>
		<path fill="#DE8D42" d="M84.061,82.313c-1.036-1.174-2.335-1.118-2.888,0.125c-0.553,1.243-1.569,3.125-2.26,4.18
			c-0.691,1.056-1.256,2.978-1.256,4.27c0,1.292,0.735,3.14,1.632,4.106c0.898,0.967,2.706,1.476,4.019,1.13
			c1.312-0.345,2.725-1.518,3.139-2.605c0.415-1.087,0.471-3.574,0.126-5.525S85.097,83.486,84.061,82.313z"/>
	</g>
	<polygon fill="#DE8D42" points="81.007,82.811 82.177,80.178 84.501,82.811 	"/>
</g>
<g>
	<g>
		<path fill="#DE8D42" d="M53.797,49.685c-1.036-1.174-2.335-1.118-2.888,0.125s-1.569,3.125-2.26,4.18
			c-0.691,1.056-1.256,2.978-1.256,4.269s0.734,3.14,1.632,4.107c0.898,0.967,2.706,1.475,4.018,1.13
			c1.312-0.345,2.725-1.518,3.139-2.605c0.415-1.087,0.471-3.573,0.126-5.525C55.963,53.415,54.833,50.858,53.797,49.685z"/>
	</g>
	<polygon fill="#DE8D42" points="50.743,50.183 51.913,47.55 54.237,50.183 	"/>
</g>
<g>
	<g>
		<path fill="#DE8D42" d="M76.025,58.342c1.036-1.174,2.335-1.118,2.888,0.125c0.552,1.243,1.569,3.125,2.26,4.18
			c0.691,1.056,1.256,2.978,1.256,4.269s-0.735,3.14-1.633,4.107c-0.898,0.967-2.706,1.475-4.018,1.13
			c-1.312-0.345-2.725-1.518-3.14-2.605c-0.415-1.087-0.471-3.573-0.125-5.525C73.859,62.072,74.989,59.516,76.025,58.342z"/>
	</g>
	<polygon fill="#DE8D42" points="79.079,58.84 77.908,56.207 75.584,58.84 	"/>
</g>
<g>
	<g>
		<path fill="#DE8D42" d="M18.401,93.619c1.036-1.174,2.335-1.117,2.888,0.125s1.569,3.124,2.26,4.181s1.256,2.978,1.256,4.27
			s-0.734,3.14-1.632,4.106c-0.898,0.967-2.706,1.476-4.018,1.13s-2.725-1.517-3.139-2.604s-0.471-3.574-0.125-5.525
			S17.365,94.792,18.401,93.619z"/>
	</g>
	<polygon fill="#DE8D42" points="21.455,94.118 20.285,91.485 17.96,94.118 	"/>
</g>
<g>
	<g>
		<path fill="#DE8D42" d="M-0.28,152.856c1.036-1.174,2.335-1.117,2.888,0.126c0.553,1.242,1.569,3.124,2.26,4.18
			s1.256,2.977,1.256,4.27c0,1.292-0.735,3.14-1.632,4.105c-0.898,0.967-2.706,1.476-4.019,1.131
			c-1.312-0.345-2.725-1.517-3.139-2.604c-0.415-1.088-0.471-3.574-0.126-5.525S-1.316,154.03-0.28,152.856z"/>
	</g>
	<polygon fill="#DE8D42" points="2.773,153.354 1.604,150.722 -0.721,153.354 	"/>
</g>
<g>
	<g>
		<path fill="#DE8D42" d="M30.399,79.679c1.036-1.174,2.335-1.117,2.888,0.126c0.552,1.243,1.569,3.124,2.26,4.18
			c0.691,1.056,1.256,2.978,1.256,4.27c0,1.292-0.735,3.14-1.633,4.106c-0.897,0.967-2.706,1.476-4.018,1.13
			c-1.313-0.345-2.725-1.517-3.14-2.604c-0.414-1.087-0.471-3.574-0.125-5.525C28.232,83.41,29.363,80.853,30.399,79.679z"/>
	</g>
	<polygon fill="#DE8D42" points="33.453,80.177 32.283,77.544 29.958,80.177 	"/>
</g>
<g>
	<g>
		<path fill="#DE8D42" d="M45.762,0.996c1.036-1.174,2.335-1.118,2.888,0.125s1.569,3.125,2.26,4.18
			c0.691,1.056,1.256,2.978,1.256,4.27c0,1.292-0.734,3.14-1.632,4.106c-0.898,0.966-2.706,1.475-4.018,1.13
			c-1.312-0.345-2.725-1.517-3.139-2.604c-0.415-1.087-0.471-3.573-0.126-5.524C43.595,4.727,44.726,2.17,45.762,0.996z"/>
	</g>
	<polygon fill="#DE8D42" points="48.815,1.495 47.646,-1.139 45.321,1.495 	"/>
</g>
<polygon fill="#DE8D42" points="13.184,199.348 11.578,202.166 10.609,204.735 9.604,200.613 8.999,199.022 9.937,197.999 
	12.847,193.296 14.021,186.958 10.945,189.879 9.224,193.271 8.115,196.702 7.24,194.406 6.606,192.015 7.454,191.039 
	8.948,187.587 9.737,184.516 9.418,180.993 6.665,185.608 5.983,189.663 5.247,186.88 5.167,186.88 5.36,186.206 5.225,181.177 
	4.449,177.005 2.073,172.912 1.339,180.063 2.977,186.011 3.404,186.88 3.099,186.88 3.587,188.661 2.814,187.618 0.13,184.982 
	-3.678,183.215 -0.574,188.785 3.641,192.275 4.746,192.884 5.247,194.713 6.286,198.038 3.177,195.023 -2.478,192.638 
	-0.388,196.096 2.416,198.389 6.126,200.555 7.145,200.785 8.314,204.528 8.514,206.049 8.318,205.771 5.42,202.961 1.086,201.133 
	2.688,203.782 4.837,205.541 7.679,207.199 8.695,207.431 9.604,214.347 11.382,214.347 11.382,207.904 11.171,207.036 
	11.992,206.224 14.664,202.334 15.924,196.985 "/>
<polygon fill="#DE8D42" points="43.632,162.416 45.554,166.778 46.583,170.681 48.672,164.808 49.799,162.573 48.582,160.936 
	45.039,153.624 44.281,144.185 48.334,148.918 50.338,154.135 51.441,159.315 53.065,156.093 54.353,152.693 53.261,151.14 
	51.599,145.868 50.91,141.26 51.908,136.16 55.235,143.321 55.618,149.35 57.115,145.394 57.231,145.407 57.052,144.393 
	58.008,137.063 59.772,131.082 63.863,125.459 63.854,136.022 60.563,144.467 59.809,145.673 60.254,145.719 59.272,148.247 
	60.558,146.841 64.879,143.393 70.712,141.386 65.333,149.057 58.647,153.521 56.942,154.244 55.933,156.841 53.912,161.545 
	58.911,157.607 67.537,154.976 63.958,159.713 59.514,162.64 53.766,165.248 52.241,165.431 49.968,170.725 49.445,172.915 
	49.774,172.539 54.434,168.87 61.044,166.854 58.303,170.484 54.897,172.729 50.492,174.722 48.973,174.908 46.6,184.878 
	44.001,184.61 44.974,175.195 45.414,173.956 44.336,172.646 41.018,166.559 39.985,158.551 "/>
<polygon fill="#DE8D42" points="32.302,140.104 33.667,138.447 35.436,136.529 35.436,134.1 34.552,134.1 32.302,134.1 
	29.807,132.856 27.12,130.579 24.937,128.659 23.28,127.005 25.766,126.034 28.457,126.031 27.12,123.332 27.12,119.242 
	27.12,115.791 29.807,116.104 31.562,117.448 32.302,114.12 33.667,111.814 35.436,109.046 37.131,106.993 39.429,109.938 
	41.708,113.608 42.535,117.448 44.4,117.448 47.814,116.104 47.814,119.242 47.814,121.916 46.677,125.751 49.51,125.751 
	52.645,126.034 51.277,128.659 47.814,131.822 43.985,134.1 40.465,134.928 37.962,134.721 37.131,137.006 37.131,137.006 
	35.703,139.022 33.667,141.967 "/>
<polygon fill="#DE8D42" points="4.052,86.644 6.252,83.977 9.098,80.891 9.098,76.977 7.674,76.977 4.052,76.977 0.035,74.977 
	-4.291,71.312 -7.805,68.221 -10.471,65.557 -6.471,63.992 -2.138,63.99 -4.291,59.644 -4.291,53.06 -4.291,47.503 0.035,48.007 
	2.862,50.172 4.052,44.812 6.252,41.102 9.098,36.644 11.828,33.338 15.527,38.082 19.195,43.987 20.528,50.172 23.528,50.172 
	29.027,48.007 29.027,53.06 29.027,57.363 27.195,63.537 31.757,63.537 36.803,63.992 34.603,68.221 29.027,73.312 22.862,76.977 
	17.194,78.31 13.166,77.977 11.828,81.658 11.828,81.658 9.528,84.903 6.252,89.644 "/>
<polygon fill="#DE8D42" points="222.156,105.064 215.579,94.899 208.403,105.663 208.403,114.323 214.129,122.611 214.129,129.958 
	217.073,129.958 217.073,122.352 222.156,114.323 "/>
<g>
	<g>
		<path fill="#DE8D42" d="M215.72,151.591c1.036-1.174,2.336-1.117,2.888,0.126c0.552,1.242,1.569,3.124,2.26,4.18
			s1.256,2.977,1.256,4.27c0,1.292-0.734,3.14-1.633,4.105c-0.897,0.967-2.705,1.476-4.018,1.131
			c-1.312-0.345-2.724-1.517-3.139-2.604c-0.415-1.088-0.472-3.574-0.126-5.525S214.684,152.765,215.72,151.591z"/>
	</g>
	<polygon fill="#DE8D42" points="218.773,152.089 217.604,149.456 215.279,152.089 	"/>
</g>
<polygon fill="#DE8D42" points="229.184,198.082 227.578,200.9 226.609,203.47 225.604,199.348 224.998,197.757 225.937,196.733 
	228.848,192.03 230.021,185.692 226.945,188.613 225.225,192.006 224.115,195.437 223.24,193.141 222.606,190.749 223.453,189.773 
	224.948,186.321 225.737,183.25 225.418,179.728 222.665,184.343 221.983,188.397 221.246,185.614 221.166,185.614 221.359,184.94 
	221.225,179.911 220.449,175.739 218.072,171.646 217.34,178.798 218.977,184.745 219.404,185.614 219.099,185.614 219.588,187.396 
	218.814,186.353 216.131,183.717 212.322,181.949 215.426,187.52 219.641,191.01 220.746,191.618 221.246,193.447 222.285,196.772 
	219.178,193.758 213.521,191.372 215.612,194.83 218.416,197.123 222.126,199.289 223.145,199.52 224.314,203.263 224.514,204.783 
	224.318,204.505 221.42,201.695 217.086,199.867 218.688,202.517 220.837,204.275 223.68,205.934 224.695,206.165 225.604,213.081 
	227.383,213.081 227.383,206.639 227.171,205.771 227.992,204.958 230.664,201.068 231.924,195.72 "/>
<polygon fill="#DE8D42" points="220.053,85.378 222.252,82.711 225.098,79.625 225.098,75.711 223.674,75.711 220.053,75.711 
	216.035,73.711 211.709,70.046 208.195,66.955 205.529,64.292 209.529,62.727 213.861,62.725 211.709,58.378 211.709,51.794 
	211.709,46.238 216.035,46.742 218.862,48.906 220.053,43.546 222.252,39.836 225.098,35.378 227.828,32.072 231.527,36.816 
	235.195,42.722 236.527,48.906 239.527,48.906 245.027,46.742 245.027,51.794 245.027,56.098 243.195,62.271 247.757,62.271 
	252.803,62.727 250.604,66.955 245.027,72.046 238.861,75.711 233.194,77.044 229.166,76.711 227.828,80.392 227.828,80.392 
	225.527,83.637 222.252,88.378 "/>
<polygon fill="#DE8D42" points="110.407,152.824 108.208,150.156 105.362,147.071 105.362,143.156 106.785,143.156 110.407,143.156 
	114.424,141.156 118.75,137.491 122.264,134.401 124.931,131.737 120.93,130.172 116.598,130.17 118.75,125.823 118.75,119.24 
	118.75,113.684 114.424,114.188 111.597,116.352 110.407,110.992 108.208,107.282 105.362,102.824 102.631,99.518 98.932,104.262 
	95.265,110.168 93.932,116.352 90.932,116.352 85.433,114.188 85.433,119.24 85.433,123.543 87.264,129.718 82.703,129.718 
	77.657,130.172 79.856,134.401 85.433,139.491 91.598,143.156 97.265,144.49 101.294,144.157 102.631,147.838 102.631,147.838 
	104.932,151.082 108.208,155.823 "/>
<polygon fill="#DE8D42" points="62.789,34.305 65.228,39.84 66.534,44.792 69.186,37.339 70.614,34.503 69.071,32.426 
	64.574,23.147 63.611,11.169 68.755,17.176 71.299,23.796 72.698,30.371 74.759,26.28 76.393,21.966 75.008,19.995 72.898,13.307 
	72.024,7.459 73.291,0.988 77.512,10.073 77.999,17.725 79.898,12.705 80.046,12.721 79.818,11.434 81.032,2.132 83.271,-5.457 
	88.46,-12.592 88.449,0.813 84.274,11.528 83.317,13.058 83.881,13.117 82.635,16.325 84.267,14.54 89.75,10.165 97.151,7.619 
	90.326,17.353 81.842,23.019 79.678,23.936 78.398,27.23 75.834,33.199 82.177,28.203 93.123,24.863 88.582,30.875 82.943,34.589 
	75.648,37.898 73.714,38.13 70.83,44.847 70.166,47.628 70.583,47.151 76.496,42.494 84.884,39.935 81.406,44.543 77.083,47.39 
	71.493,49.92 69.566,50.156 66.555,62.808 63.258,62.467 64.491,50.521 65.05,48.949 63.682,47.286 59.472,39.563 58.162,29.399 "/>
<polygon fill="#DE8D42" points="104.376,62.195 106.062,60.152 108.243,57.786 108.243,54.787 107.152,54.787 104.376,54.787 
	101.297,53.253 97.982,50.442 95.288,48.074 93.244,46.033 96.311,44.834 99.632,44.831 97.982,41.501 97.982,36.455 97.982,32.196 
	101.297,32.582 103.463,34.241 104.376,30.133 106.062,27.289 108.243,23.873 110.335,21.339 113.169,24.974 115.982,29.502 
	117.003,34.241 119.305,34.241 123.519,32.582 123.519,36.455 123.519,39.752 122.114,44.486 125.61,44.486 129.478,44.834 
	127.791,48.074 123.519,51.978 118.793,54.787 114.448,55.809 111.36,55.553 110.335,58.373 110.335,58.373 108.573,60.862 
	106.062,64.495 "/>
<polygon fill="#DE8D42" points="30.157,3.711 23.581,-6.454 16.404,4.31 16.404,12.97 22.13,21.259 22.13,28.605 25.075,28.605 
	25.075,20.999 30.157,12.97 "/>
<g>
	<g>
		<path fill="#DE8D42" d="M6.051,10.668c1.036-1.174,2.335-1.117,2.888,0.126c0.552,1.243,1.569,3.124,2.26,4.18
			s1.256,2.978,1.256,4.269c0,1.292-0.734,3.14-1.632,4.106c-0.898,0.967-2.706,1.476-4.018,1.13
			c-1.313-0.345-2.725-1.517-3.14-2.604c-0.414-1.087-0.471-3.574-0.125-5.525S5.015,11.842,6.051,10.668z"/>
	</g>
	<polygon fill="#DE8D42" points="9.105,11.167 7.935,8.534 5.611,11.167 	"/>
</g>
<polygon fill="#DE8D42" points="126.367,90.948 124.749,93.784 123.774,96.37 122.764,92.221 122.153,90.62 123.098,89.59 
	126.027,84.857 127.208,78.479 124.112,81.418 122.381,84.833 121.265,88.285 120.384,85.974 119.748,83.567 120.6,82.586 
	122.103,79.111 122.896,76.02 122.577,72.476 119.807,77.12 119.119,81.2 118.378,78.4 118.298,78.4 118.492,77.722 118.355,72.661 
	117.575,68.462 115.185,64.343 114.446,71.54 116.095,77.525 116.523,78.4 116.216,78.4 116.708,80.193 115.931,79.144 
	113.229,76.49 109.396,74.712 112.521,80.318 116.762,83.83 117.873,84.442 118.378,86.282 119.424,89.629 116.295,86.596 
	110.604,84.195 112.707,87.674 115.53,89.982 119.263,92.163 120.288,92.395 121.465,96.162 121.667,97.691 121.47,97.411 
	118.553,94.583 114.191,92.744 115.803,95.411 117.966,97.18 120.826,98.849 121.85,99.082 122.764,106.042 124.553,106.042 
	124.553,99.559 124.34,98.685 125.167,97.867 127.856,93.954 129.123,88.57 "/>
<polygon fill="#DE8D42" points="102.989,77.593 98.329,70.39 93.244,78.017 93.244,84.154 97.301,90.027 97.301,95.231 
	99.388,95.231 99.388,89.842 102.989,84.154 "/>
<polygon fill="#DE8D42" points="32.506,168.634 25.141,157.248 17.103,169.305 17.103,179.003 23.517,188.288 23.517,196.517 
	26.815,196.517 26.815,187.995 32.506,179.003 "/>
<polygon fill="#DE8D42" points="170.818,55.301 172.638,53.094 174.996,50.537 174.996,47.298 173.816,47.298 170.818,47.298 
	167.491,45.642 163.91,42.605 161.001,40.047 158.793,37.842 162.106,36.547 165.692,36.543 163.91,32.946 163.91,27.495 
	163.91,22.895 167.491,23.312 169.831,25.104 170.818,20.666 172.638,17.592 174.996,13.903 177.256,11.167 180.317,15.093 
	183.355,19.984 184.458,25.104 186.943,25.104 191.495,23.312 191.495,27.495 191.495,31.057 189.979,36.17 193.755,36.17 
	197.933,36.547 196.11,40.047 191.495,44.262 186.392,47.298 181.698,48.402 178.363,48.125 177.256,51.172 177.256,51.172 
	175.352,53.861 172.638,57.785 "/>
<polygon fill="#DE8D42" points="102.911,158.599 97.667,150.493 91.945,159.075 91.945,165.981 96.511,172.59 96.511,178.447 
	98.857,178.447 98.857,172.383 102.911,165.981 "/>
<g>
	<g>
		<path fill="#DE8D42" d="M72.331,167.67c1.036-1.175,2.335-1.117,2.888,0.125c0.552,1.243,1.569,3.125,2.26,4.182
			c0.69,1.056,1.256,2.977,1.256,4.269s-0.735,3.14-1.633,4.106c-0.897,0.967-2.706,1.476-4.018,1.131
			c-1.313-0.346-2.725-1.518-3.14-2.605c-0.414-1.087-0.471-3.573-0.125-5.525C70.164,171.4,71.294,168.844,72.331,167.67z"/>
	</g>
	<polygon fill="#DE8D42" points="75.384,168.169 74.214,165.535 71.89,168.169 	"/>
</g>
<g>
	<g>
		<path fill="#DE8D42" d="M141.666,83.491c1.036-1.174,2.335-1.117,2.887,0.125c0.553,1.243,1.569,3.125,2.26,4.181
			c0.69,1.057,1.256,2.978,1.256,4.27c0,1.292-0.734,3.14-1.632,4.106c-0.897,0.967-2.706,1.476-4.019,1.131
			c-1.312-0.345-2.725-1.517-3.139-2.604s-0.471-3.574-0.125-5.525C139.499,87.222,140.629,84.665,141.666,83.491z"/>
	</g>
	<polygon fill="#DE8D42" points="144.719,83.99 143.55,81.356 141.226,83.99 	"/>
</g>
<g>
	<g>
		<path fill="#DE8D42" d="M79.072,144.57c1.036-1.175,2.335-1.118,2.888,0.125s1.569,3.124,2.26,4.181s1.256,2.978,1.256,4.27
			s-0.734,3.14-1.632,4.106c-0.898,0.966-2.706,1.475-4.018,1.129c-1.312-0.345-2.725-1.517-3.14-2.604
			c-0.414-1.088-0.471-3.574-0.125-5.525C76.906,148.301,78.036,145.744,79.072,144.57z"/>
	</g>
	<polygon fill="#DE8D42" points="82.126,145.068 80.956,142.436 78.632,145.068 	"/>
</g>
<g>
	<g>
		<path fill="#DE8D42" d="M52.887,186.873c0.857-0.972,1.933-0.925,2.39,0.104c0.457,1.029,1.299,2.586,1.871,3.461
			c0.572,0.874,1.04,2.464,1.04,3.533c0,1.068-0.608,2.598-1.351,3.398c-0.744,0.801-2.24,1.222-3.326,0.936
			c-1.085-0.286-2.255-1.256-2.598-2.156c-0.343-0.899-0.39-2.957-0.104-4.572C51.093,189.96,52.029,187.844,52.887,186.873z"/>
	</g>
	<polygon fill="#DE8D42" points="55.414,187.286 54.446,185.106 52.522,187.286 	"/>
</g>
<polygon fill="#DE8D42" points="73.916,195.372 69.13,187.976 63.909,195.807 63.909,202.109 68.076,208.14 68.076,213.485 
	70.217,213.485 70.217,207.951 73.916,202.109 "/>
<polygon fill="#DE8D42" points="171.274,180.012 172.916,183.738 173.795,187.068 175.579,182.054 176.542,180.147 175.502,178.748 
	172.476,172.505 171.829,164.441 175.29,168.484 177.001,172.938 177.944,177.365 179.33,174.611 180.43,171.71 179.497,170.38 
	178.077,165.882 177.489,161.945 178.341,157.59 181.184,163.706 181.511,168.854 182.79,165.476 182.888,165.486 182.735,164.621 
	183.552,158.36 185.058,153.253 188.551,148.45 188.543,157.472 185.733,164.682 185.091,165.713 185.47,165.754 184.633,167.912 
	185.729,166.712 189.419,163.765 194.401,162.052 189.807,168.604 184.097,172.416 182.64,173.033 181.78,175.251 180.054,179.269 
	184.323,175.905 191.688,173.659 188.633,177.705 184.837,180.202 179.929,182.43 178.626,182.588 176.687,187.107 176.239,188.979 
	176.521,188.657 180.5,185.522 186.145,183.802 183.802,186.902 180.895,188.818 177.133,190.521 175.835,190.679 173.808,199.194 
	171.59,198.966 172.42,190.927 172.798,189.867 171.876,188.75 169.042,183.55 168.161,176.712 "/>
<g>
	<g>
		<path fill="#DE8D42" d="M85.83,187.734c-1.036-1.174-2.335-1.117-2.888,0.126s-1.569,3.124-2.26,4.18s-1.256,2.977-1.256,4.269
			s0.734,3.14,1.632,4.107c0.898,0.967,2.706,1.476,4.018,1.13s2.725-1.518,3.14-2.604c0.415-1.088,0.472-3.574,0.125-5.525
			C87.996,191.465,86.866,188.908,85.83,187.734z"/>
	</g>
	<polygon fill="#DE8D42" points="82.776,188.233 83.946,185.601 86.271,188.233 	"/>
</g>
<g>
	<g>
		<path fill="#DE8D42" d="M99.235,202.895c-0.71-0.806-1.601-0.767-1.979,0.086c-0.379,0.852-1.076,2.142-1.55,2.865
			c-0.473,0.724-0.861,2.041-0.861,2.926c0,0.886,0.503,2.153,1.119,2.816c0.616,0.662,1.855,1.012,2.754,0.774
			c0.899-0.237,1.868-1.041,2.152-1.786s0.323-2.449,0.086-3.787S99.945,203.699,99.235,202.895z"/>
	</g>
	<polygon fill="#DE8D42" points="97.142,203.236 97.944,201.431 99.537,203.236 	"/>
</g>
<g>
	<g>
		<path fill="#DE8D42" d="M182.848,123.838c-1.243-1.409-2.803-1.342-3.465,0.15c-0.663,1.492-1.884,3.75-2.713,5.018
			c-0.829,1.269-1.508,3.574-1.508,5.125s0.882,3.77,1.959,4.93c1.078,1.161,3.248,1.771,4.823,1.357
			c1.575-0.415,3.271-1.822,3.769-3.128s0.565-4.289,0.15-6.632C185.449,128.315,184.092,125.246,182.848,123.838z"/>
	</g>
	<polygon fill="#DE8D42" points="179.184,124.437 180.587,121.275 183.379,124.437 	"/>
</g>
<polygon fill="#DE8D42" points="120.067,190.467 121.752,188.425 123.934,186.058 123.934,183.06 122.843,183.06 120.067,183.06 
	116.987,181.526 113.672,178.716 110.979,176.346 108.935,174.306 112.002,173.106 115.322,173.104 113.672,169.774 
	113.672,164.728 113.672,160.468 116.987,160.854 119.153,162.515 120.067,158.406 121.752,155.562 123.934,152.146 
	126.025,149.611 128.86,153.247 131.673,157.775 132.693,162.515 134.995,162.515 139.209,160.854 139.209,164.728 139.209,168.025 
	137.805,172.759 141.301,172.759 145.168,173.106 143.481,176.346 139.209,180.25 134.484,183.06 130.14,184.082 127.051,183.826 
	126.025,186.646 126.025,186.646 124.264,189.136 121.752,192.768 "/>
<polygon fill="#DE8D42" points="148.313,145.817 144.924,140.578 141.226,146.125 141.226,150.588 144.177,154.86 144.177,158.646 
	145.693,158.646 145.693,154.726 148.313,150.588 "/>
<g>
	<g>
		<path fill="#DE8D42" d="M128.317,135.883c0.736-0.834,1.66-0.794,2.052,0.09c0.393,0.884,1.116,2.221,1.607,2.972
			s0.894,2.116,0.894,3.034c0,0.919-0.522,2.232-1.161,2.919c-0.638,0.687-1.923,1.049-2.855,0.804
			c-0.934-0.245-1.938-1.078-2.232-1.851c-0.294-0.772-0.334-2.54-0.089-3.928S127.581,136.718,128.317,135.883z"/>
	</g>
	<polygon fill="#DE8D42" points="130.488,136.238 129.656,134.366 128.005,136.238 	"/>
</g>
<g>
	<g>
		<path fill="#DE8D42" d="M163.623,95.389c0.736-0.834,1.66-0.794,2.053,0.089s1.116,2.221,1.607,2.971
			c0.49,0.751,0.893,2.117,0.893,3.035s-0.522,2.231-1.16,2.918c-0.639,0.688-1.924,1.049-2.857,0.804
			c-0.933-0.245-1.937-1.078-2.23-1.851c-0.295-0.773-0.335-2.541-0.09-3.928C162.083,98.041,162.887,96.223,163.623,95.389z"/>
	</g>
	<polygon fill="#DE8D42" points="165.794,95.744 164.962,93.872 163.311,95.744 	"/>
</g>
<g>
	<g>
		<path fill="#DE8D42" d="M136.203,110.955c-1.036-1.174-2.335-1.117-2.887,0.126c-0.553,1.243-1.569,3.124-2.26,4.181
			c-0.69,1.056-1.256,2.977-1.256,4.268c0,1.292,0.734,3.14,1.632,4.107c0.897,0.967,2.705,1.476,4.018,1.13s2.726-1.518,3.14-2.604
			c0.415-1.088,0.472-3.574,0.126-5.525S137.239,112.129,136.203,110.955z"/>
	</g>
	<polygon fill="#DE8D42" points="133.15,111.454 134.319,108.821 136.646,111.454 	"/>
</g>
<polygon fill="#DE8D42" points="171.873,149.298 166.629,141.192 160.907,149.773 160.907,156.68 165.474,163.289 165.474,169.146 
	167.82,169.146 167.82,163.081 171.873,156.68 "/>
<g>
	<g>
		<path fill="#DE8D42" d="M147.629,192.672c-1.035-1.175-2.335-1.117-2.887,0.125c-0.553,1.243-1.57,3.125-2.261,4.181
			s-1.256,2.977-1.256,4.269s0.734,3.14,1.633,4.107c0.898,0.967,2.706,1.476,4.019,1.13c1.312-0.346,2.725-1.518,3.139-2.604
			c0.415-1.088,0.472-3.574,0.126-5.525S148.665,193.846,147.629,192.672z"/>
	</g>
	<polygon fill="#DE8D42" points="144.575,193.171 145.746,190.537 148.071,193.171 	"/>
</g>
<g>
	<g>
		<path fill="#DE8D42" d="M155.762,167.004c-0.926-1.05-2.088-0.999-2.582,0.112c-0.493,1.111-1.403,2.793-2.021,3.737
			c-0.617,0.945-1.123,2.663-1.123,3.818c0,1.154,0.657,2.807,1.46,3.672s2.42,1.319,3.593,1.011
			c1.174-0.309,2.438-1.356,2.809-2.329c0.37-0.973,0.421-3.195,0.111-4.94C157.699,170.34,156.688,168.054,155.762,167.004z"/>
	</g>
	<polygon fill="#DE8D42" points="153.031,167.45 154.078,165.096 156.156,167.45 	"/>
</g>
<g>
	<g>
		<path fill="#DE8D42" d="M153.733,184.988c0.546-0.618,1.23-0.589,1.521,0.066s0.826,1.646,1.19,2.203
			c0.365,0.558,0.663,1.57,0.663,2.251s-0.387,1.655-0.86,2.165s-1.427,0.778-2.118,0.596c-0.691-0.182-1.437-0.799-1.655-1.372
			s-0.248-1.884-0.066-2.913C152.591,186.956,153.188,185.607,153.733,184.988z"/>
	</g>
	<polygon fill="#DE8D42" points="155.343,185.252 154.727,183.863 153.501,185.252 	"/>
</g>
<polygon fill="#DE8D42" points="153.68,132.881 154.859,131.452 156.387,129.795 156.387,127.695 155.622,127.695 153.68,127.695 
	151.522,126.621 149.203,124.653 147.315,122.994 145.885,121.566 148.032,120.727 150.357,120.725 149.203,118.393 
	149.203,114.859 149.203,111.877 151.522,112.148 153.039,113.311 153.68,110.434 154.859,108.442 156.387,106.05 157.851,104.276 
	159.837,106.821 161.806,109.992 162.52,113.311 164.132,113.311 167.081,112.148 167.081,114.859 167.081,117.169 166.099,120.483 
	168.547,120.483 171.255,120.727 170.073,122.994 167.081,125.729 163.773,127.695 160.732,128.411 158.57,128.231 157.851,130.207 
	157.851,130.207 156.618,131.948 154.859,134.492 "/>
<polygon fill="#DE8D42" points="165.242,65.636 158.861,55.773 151.897,66.216 151.897,74.62 157.454,82.661 157.454,89.79 
	160.311,89.79 160.311,82.409 165.242,74.62 "/>
<polygon fill="#DE8D42" points="143.398,56.274 138.739,49.07 133.654,56.698 133.654,62.835 137.711,68.708 137.711,73.912 
	139.798,73.912 139.798,68.522 143.398,62.835 "/>
<polygon fill="#DE8D42" points="174.901,84.792 176.823,89.154 177.852,93.056 179.942,87.184 181.068,84.948 179.852,83.311 
	176.308,76 175.55,66.56 179.603,71.293 181.607,76.51 182.71,81.691 184.335,78.468 185.622,75.069 184.53,73.515 182.868,68.244 
	182.179,63.636 183.178,58.536 186.504,65.696 186.887,71.726 188.384,67.77 188.501,67.783 188.322,66.768 189.277,59.438 
	191.041,53.457 195.132,47.834 195.123,58.398 191.833,66.842 191.079,68.048 191.524,68.095 190.541,70.623 191.826,69.216 
	196.148,65.768 201.981,63.761 196.604,71.432 189.917,75.897 188.212,76.62 187.202,79.217 185.182,83.921 190.179,79.983 
	198.806,77.351 195.227,82.088 190.783,85.016 185.035,87.624 183.511,87.807 181.236,93.1 180.714,95.291 181.043,94.915 
	185.702,91.246 192.313,89.229 189.572,92.86 186.165,95.104 181.762,97.097 180.242,97.284 177.869,107.253 175.271,106.986 
	176.244,97.571 176.683,96.332 175.605,95.022 172.288,88.935 171.255,80.926 "/>
<g>
	<g>
		<path fill="#DE8D42" d="M28.943,201.854c0.645-0.73,1.453-0.695,1.797,0.078c0.343,0.773,0.976,1.944,1.406,2.601
			c0.43,0.657,0.781,1.853,0.781,2.656c0,0.805-0.457,1.954-1.016,2.556c-0.559,0.602-1.684,0.918-2.5,0.703
			c-0.816-0.215-1.695-0.944-1.953-1.62c-0.258-0.677-0.293-2.224-0.079-3.438C27.595,204.176,28.298,202.585,28.943,201.854z"/>
	</g>
	<polygon fill="#DE8D42" points="30.843,202.165 30.115,200.526 28.669,202.165 	"/>
</g>
<g>
	<g>
		<path fill="#DE8D42" d="M40.505,195.764c1.036-1.175,2.335-1.118,2.888,0.125s1.569,3.124,2.26,4.181s1.256,2.978,1.256,4.27
			s-0.734,3.14-1.632,4.106c-0.898,0.966-2.706,1.475-4.018,1.129c-1.312-0.345-2.725-1.517-3.14-2.604
			c-0.414-1.088-0.471-3.574-0.125-5.525C38.338,199.494,39.469,196.938,40.505,195.764z"/>
	</g>
	<polygon fill="#DE8D42" points="43.559,196.262 42.389,193.629 40.064,196.262 	"/>
</g>
<polygon fill="#DE8D42" points="151.336,29.525 149.033,33.561 147.646,37.238 146.209,31.337 145.342,29.06 146.684,27.594 
	150.852,20.862 152.531,11.789 148.127,15.971 145.665,20.827 144.077,25.737 142.824,22.451 141.92,19.027 143.131,17.631 
	145.27,12.689 146.398,8.292 145.943,3.25 142.003,9.856 141.025,15.66 139.971,11.677 139.857,11.677 140.133,10.713 
	139.939,3.513 138.829,-2.459 135.428,-8.319 134.379,1.919 136.723,10.433 137.333,11.677 136.896,11.677 137.596,14.227 
	136.49,12.734 132.646,8.959 127.195,6.431 131.639,14.405 137.672,19.401 139.252,20.271 139.971,22.889 141.459,27.65 
	137.008,23.335 128.912,19.92 131.904,24.869 135.92,28.152 141.229,31.254 142.688,31.584 144.361,36.942 144.649,39.118 
	144.369,38.72 140.22,34.697 134.016,32.08 136.308,35.874 139.385,38.391 143.453,40.765 144.909,41.096 146.209,50.996 
	148.754,50.996 148.754,41.775 148.451,40.53 149.629,39.369 153.453,33.801 155.256,26.143 "/>
<polygon fill="#DE8D42" points="121.192,10.342 117.771,5.053 114.038,10.652 114.038,15.159 117.018,19.471 117.018,23.291 
	118.55,23.291 118.55,19.334 121.192,15.159 "/>
<g>
	<g>
		<path fill="#DE8D42" d="M102.838,6.793c0.736-0.834,1.66-0.794,2.052,0.089s1.115,2.221,1.607,2.972s0.894,2.117,0.894,3.035
			s-0.522,2.231-1.161,2.918s-1.924,1.049-2.856,0.804s-1.937-1.078-2.231-1.851s-0.335-2.541-0.089-3.928
			S102.102,7.628,102.838,6.793z"/>
	</g>
	<polygon fill="#DE8D42" points="105.009,7.148 104.177,5.276 102.526,7.148 	"/>
</g>
<g>
	<g>
		<path fill="#DE8D42" d="M161.538-4.657c1.036-1.174,2.336-1.118,2.888,0.125s1.569,3.125,2.26,4.18
			c0.69,1.056,1.256,2.978,1.256,4.27c0,1.292-0.734,3.14-1.633,4.106c-0.897,0.966-2.705,1.475-4.018,1.13
			c-1.312-0.345-2.724-1.517-3.139-2.604c-0.415-1.087-0.472-3.573-0.126-5.524C159.372-0.926,160.502-3.483,161.538-4.657z"/>
	</g>
	<polygon fill="#DE8D42" points="164.592,-4.159 163.422,-6.792 161.098,-4.159 	"/>
</g>
<polygon fill="#DE8D42" points="212.648,3.93 206.268,-5.933 199.304,4.51 199.304,12.914 204.86,20.955 204.86,28.084 
	207.717,28.084 207.717,20.703 212.648,12.914 "/>
<g>
	<g>
		<path fill="#DE8D42" d="M186.93,4.161c0.736-0.834,1.66-0.794,2.053,0.089c0.392,0.884,1.115,2.221,1.606,2.972
			s0.894,2.117,0.894,3.035s-0.522,2.231-1.16,2.918c-0.639,0.687-1.924,1.049-2.857,0.804c-0.933-0.245-1.937-1.078-2.23-1.851
			c-0.295-0.773-0.335-2.541-0.09-3.928S186.193,4.995,186.93,4.161z"/>
	</g>
	<polygon fill="#DE8D42" points="189.101,4.516 188.269,2.644 186.617,4.516 	"/>
</g>
<g>
	<g>
		<path fill="#DE8D42" d="M45.762,216.996c1.036-1.174,2.335-1.117,2.888,0.125c0.552,1.243,1.569,3.125,2.26,4.182
			c0.691,1.056,1.256,2.977,1.256,4.269s-0.734,3.14-1.632,4.106s-2.706,1.476-4.018,1.13c-1.312-0.346-2.725-1.518-3.139-2.604
			c-0.415-1.087-0.471-3.573-0.126-5.524S44.726,218.17,45.762,216.996z"/>
	</g>
	<polygon fill="#DE8D42" points="48.815,217.494 47.646,214.861 45.321,217.494 	"/>
</g>
<polygon fill="#DE8D42" points="62.789,250.305 65.228,255.84 66.534,260.792 69.186,253.34 70.614,250.504 69.071,248.426 
	64.574,239.147 63.611,227.17 68.755,233.176 71.299,239.796 72.698,246.371 74.759,242.279 76.393,237.967 75.008,235.995 
	72.898,229.307 72.024,223.459 73.291,216.988 77.512,226.073 77.999,233.725 79.898,228.705 80.046,228.721 79.818,227.434 
	81.032,218.133 83.271,210.543 88.46,203.408 88.449,216.813 84.274,227.527 83.317,229.059 83.881,229.117 82.635,232.325 
	84.267,230.54 89.75,226.165 97.151,223.619 90.326,233.354 81.842,239.019 79.678,239.936 78.398,243.23 75.834,249.199 
	82.177,244.203 93.123,240.863 88.582,246.875 82.943,250.59 75.648,253.898 73.714,254.13 70.83,260.848 70.166,263.628 
	70.583,263.15 76.496,258.494 84.884,255.936 81.406,260.543 77.083,263.391 71.493,265.92 69.566,266.156 66.555,278.809 
	63.258,278.467 64.491,266.521 65.05,264.949 63.682,263.286 59.472,255.563 58.162,245.399 "/>
<polygon fill="#DE8D42" points="30.157,219.711 23.581,209.546 16.404,220.311 16.404,228.971 22.13,237.259 22.13,244.605 
	25.075,244.605 25.075,236.998 30.157,228.971 "/>
<polygon fill="#DE8D42" points="151.336,245.525 149.033,249.561 147.646,253.238 146.209,247.337 145.342,245.06 146.684,243.594 
	150.852,236.862 152.531,227.789 148.127,231.971 145.665,236.827 144.077,241.737 142.824,238.451 141.92,235.027 143.131,233.631 
	145.27,228.689 146.398,224.291 145.943,219.25 142.003,225.856 141.025,231.66 139.971,227.678 139.857,227.678 140.133,226.713 
	139.939,219.513 138.829,213.541 135.428,207.682 134.379,217.919 136.723,226.433 137.333,227.678 136.896,227.678 
	137.596,230.227 136.49,228.734 132.646,224.959 127.195,222.431 131.639,230.404 137.672,235.4 139.252,236.271 139.971,238.889 
	141.459,243.65 137.008,239.335 128.912,235.92 131.904,240.869 135.92,244.152 141.229,247.254 142.688,247.584 144.361,252.942 
	144.649,255.118 144.369,254.72 140.22,250.697 134.016,248.08 136.308,251.874 139.385,254.391 143.453,256.766 144.909,257.096 
	146.209,266.996 148.754,266.996 148.754,257.775 148.451,256.53 149.629,255.369 153.453,249.801 155.256,242.143 "/>
<g>
	<g>
		<path fill="#DE8D42" d="M161.538,211.342c1.036-1.174,2.336-1.116,2.888,0.127c0.552,1.242,1.569,3.124,2.26,4.18
			s1.256,2.977,1.256,4.27c0,1.292-0.734,3.14-1.633,4.105c-0.897,0.967-2.705,1.476-4.018,1.131
			c-1.312-0.345-2.724-1.517-3.139-2.604c-0.415-1.088-0.472-3.574-0.126-5.525C159.372,215.073,160.502,212.517,161.538,211.342z"
			/>
	</g>
	<polygon fill="#DE8D42" points="164.592,211.842 163.422,209.208 161.098,211.842 	"/>
</g>
<polygon fill="#DE8D42" points="212.648,219.93 206.268,210.067 199.304,220.51 199.304,228.914 204.86,236.955 204.86,244.084 
	207.717,244.084 207.717,236.703 212.648,228.914 "/>
<g>
	<g>
		<path fill="#DE8D42" d="M186.93,220.16c0.736-0.834,1.66-0.794,2.053,0.09c0.392,0.884,1.115,2.221,1.606,2.972
			s0.894,2.116,0.894,3.034c0,0.919-0.522,2.232-1.16,2.919c-0.639,0.687-1.924,1.049-2.857,0.804
			c-0.933-0.245-1.937-1.078-2.23-1.851c-0.295-0.772-0.335-2.54-0.09-3.928S186.193,220.995,186.93,220.16z"/>
	</g>
	<polygon fill="#DE8D42" points="189.101,220.516 188.269,218.644 186.617,220.516 	"/>
</g>
<polygon fill="#DE8D42" points="196.064,191.051 196.846,190.104 197.857,189.007 197.857,187.616 197.351,187.616 196.064,187.616 
	194.635,186.904 193.099,185.601 191.848,184.502 190.9,183.556 192.322,182.999 193.863,182.998 193.099,181.453 193.099,179.112 
	193.099,177.136 194.635,177.316 195.64,178.086 196.064,176.18 196.846,174.86 197.857,173.276 198.827,172.1 200.144,173.786 
	201.447,175.887 201.921,178.086 202.988,178.086 204.942,177.316 204.942,179.112 204.942,180.642 204.292,182.838 
	205.914,182.838 207.708,182.999 206.926,184.502 204.942,186.313 202.752,187.616 200.737,188.089 199.305,187.971 198.827,189.28 
	198.827,189.28 198.011,190.433 196.846,192.119 "/>
<polygon fill="#DE8D42" points="113.091,194.373 109.115,188.23 104.779,194.735 104.779,199.969 108.239,204.979 108.239,209.418 
	110.019,209.418 110.019,204.821 113.091,199.969 "/>
<g>
	<g>
		<path fill="#DE8D42" d="M199.195,197.165c0.703-0.797,1.585-0.759,1.96,0.085c0.375,0.845,1.065,2.122,1.534,2.839
			c0.47,0.717,0.854,2.021,0.854,2.898s-0.499,2.132-1.109,2.788c-0.609,0.657-1.837,1.003-2.729,0.768
			c-0.891-0.234-1.85-1.03-2.131-1.768c-0.281-0.738-0.319-2.427-0.085-3.752S198.491,197.962,199.195,197.165z"/>
	</g>
	<polygon fill="#DE8D42" points="201.268,197.504 200.474,195.716 198.896,197.504 	"/>
</g>
<polygon fill="#DE8D42" points="208.988,136.978 202.939,127.625 196.336,137.527 196.336,145.494 201.604,153.119 201.604,159.879 
	204.313,159.879 204.313,152.88 208.988,145.494 "/>
<g>
	<g>
		<path fill="#DE8D42" d="M161.404,194.102c0.858-0.971,1.934-0.924,2.391,0.105c0.456,1.028,1.298,2.585,1.87,3.459
			c0.572,0.875,1.04,2.465,1.04,3.533c0,1.069-0.608,2.6-1.352,3.399s-2.24,1.222-3.326,0.936c-1.085-0.286-2.255-1.256-2.598-2.155
			c-0.343-0.9-0.39-2.958-0.104-4.574C159.611,197.189,160.547,195.073,161.404,194.102z"/>
	</g>
	<polygon fill="#DE8D42" points="163.932,194.516 162.964,192.336 161.04,194.516 	"/>
</g>
<polygon fill="#DE8D42" points="187.534,198.817 183.559,192.675 179.223,199.18 179.223,204.413 182.683,209.423 182.683,213.862 
	184.462,213.862 184.462,209.266 187.534,204.413 "/>
<polygon fill="#DE8D42" points="132.16,197.723 128.185,191.58 123.848,198.085 123.848,203.318 127.309,208.328 127.309,212.768 
	129.088,212.768 129.088,208.171 132.16,203.318 "/>
<g>
	<g>
		<path fill="#DE8D42" d="M202.975,34.855c0.736-0.834,1.66-0.794,2.053,0.089s1.116,2.221,1.607,2.972
			c0.49,0.75,0.893,2.116,0.893,3.034s-0.522,2.231-1.16,2.919c-0.639,0.687-1.924,1.049-2.857,0.804
			c-0.933-0.245-1.937-1.078-2.23-1.852c-0.295-0.773-0.335-2.541-0.09-3.928C201.435,37.507,202.238,35.689,202.975,34.855z"/>
	</g>
	<polygon fill="#DE8D42" points="205.146,35.21 204.313,33.338 202.662,35.21 	"/>
</g>
<g>
	<g>
		<path fill="#DE8D42" d="M189.851,103.985c1.036-1.174,2.336-1.118,2.888,0.126c0.552,1.243,1.569,3.124,2.26,4.18
			s1.256,2.977,1.256,4.269s-0.734,3.14-1.633,4.106c-0.897,0.967-2.705,1.476-4.018,1.131c-1.312-0.345-2.724-1.517-3.139-2.604
			s-0.472-3.574-0.126-5.525S188.814,105.159,189.851,103.985z"/>
	</g>
	<polygon fill="#DE8D42" points="192.904,104.484 191.734,101.851 189.41,104.484 	"/>
</g>
<g>
	<g>
		<path fill="#DE8D42" d="M204.815,86.279c0.736-0.834,1.66-0.794,2.053,0.089s1.115,2.221,1.606,2.972
			c0.491,0.75,0.893,2.116,0.893,3.034s-0.522,2.231-1.16,2.919c-0.638,0.687-1.924,1.049-2.856,0.804s-1.938-1.078-2.231-1.852
			c-0.294-0.773-0.334-2.541-0.089-3.928C203.275,88.931,204.079,87.113,204.815,86.279z"/>
	</g>
	<polygon fill="#DE8D42" points="206.986,86.634 206.154,84.762 204.502,86.634 	"/>
</g>
</svg>
