<?xml version="1.0" encoding="utf-8"?>
<!-- Generator: Adobe Illustrator 16.0.0, SVG Export Plug-In . SVG Version: 6.00 Build 0)  -->
<!DOCTYPE svg PUBLIC "-//W3C//DTD SVG 1.1//EN" "http://www.w3.org/Graphics/SVG/1.1/DTD/svg11.dtd">
<svg version="1.1" id="Layer_1" xmlns="http://www.w3.org/2000/svg" xmlns:xlink="http://www.w3.org/1999/xlink" x="0px" y="0px"
	 width="209.368px" height="47.437px" viewBox="0 0 209.368 47.437" enable-background="new 0 0 209.368 47.437"
	 xml:space="preserve">
<g>
	<path fill="#69B7C0" d="M22.635,16.063c-1.29,0-2.359,0.46-3.209,1.382c-0.849,0.921-1.273,2.062-1.273,3.423
		c0,1.374,0.416,2.513,1.249,3.418s1.892,1.357,3.175,1.357c0.11,0,0.265-0.011,0.462-0.034c0.198-0.023,0.433-0.057,0.705-0.103
		l-2.052-2.363h2.976l1.05,1.24c0.44-0.456,0.779-0.991,1.017-1.606c0.236-0.615,0.354-1.251,0.354-1.909
		c0-1.354-0.425-2.494-1.273-3.418C24.965,16.526,23.905,16.063,22.635,16.063z"/>
	<path fill="#69B7C0" d="M119.49,20.644c-0.769,0-1.377,0.231-1.826,0.693s-0.674,1.087-0.674,1.875
		c0,0.781,0.225,1.406,0.674,1.875s1.058,0.703,1.826,0.703c0.762,0,1.372-0.234,1.831-0.703s0.688-1.094,0.688-1.875
		s-0.228-1.405-0.684-1.87S120.259,20.644,119.49,20.644z"/>
	<path fill="#69B7C0" d="M152.137,20.644c-0.769,0-1.377,0.231-1.826,0.693s-0.674,1.087-0.674,1.875
		c0,0.781,0.225,1.406,0.674,1.875s1.058,0.703,1.826,0.703c0.762,0,1.372-0.234,1.831-0.703s0.688-1.094,0.688-1.875
		s-0.228-1.405-0.684-1.87S152.905,20.644,152.137,20.644z"/>
	<path fill="#69B7C0" d="M49.451,20.37c-0.625,0-1.125,0.155-1.499,0.464s-0.613,0.767-0.718,1.372h4.355
		c-0.078-0.605-0.298-1.063-0.659-1.372S50.076,20.37,49.451,20.37z"/>
	<path fill="#69B7C0" d="M82.186,20.644c-0.769,0-1.377,0.231-1.826,0.693s-0.674,1.087-0.674,1.875
		c0,0.781,0.225,1.406,0.674,1.875s1.058,0.703,1.826,0.703c0.762,0,1.372-0.234,1.831-0.703s0.688-1.094,0.688-1.875
		s-0.228-1.405-0.684-1.87S82.954,20.644,82.186,20.644z"/>
	<path fill="#69B7C0" d="M164.246,20.39c-0.755,0-1.35,0.246-1.782,0.737s-0.649,1.17-0.649,2.036s0.213,1.543,0.64,2.031
		s1.018,0.732,1.772,0.732c0.769,0,1.364-0.241,1.787-0.723s0.635-1.156,0.635-2.021c0-0.859-0.217-1.54-0.649-2.041
		S164.981,20.39,164.246,20.39z"/>
	<path fill="#69B7C0" d="M176.57,20.39c-0.755,0-1.35,0.249-1.782,0.747s-0.649,1.18-0.649,2.046s0.213,1.54,0.64,2.021
		s1.018,0.723,1.772,0.723c0.769,0,1.364-0.241,1.787-0.723s0.635-1.156,0.635-2.021c0-0.859-0.217-1.54-0.649-2.041
		S177.306,20.39,176.57,20.39z"/>
	<path fill="#69B7C0" d="M205.642,12.675l-5-10.248h-20.805l-27.195,6.958l-27-6.962l-41.001,3.91l-30.42,3.051L28.753,0
		L-0.001,9.384v14.334l14.032,17.719l23.436,6l29.174-6h38.043h13.958l19-6l33,6h27l11.729-13.449L205.642,12.675z M30.154,29.647
		h-3.042l-1.551-1.836c-0.701,0.182-1.284,0.314-1.748,0.396s-0.878,0.122-1.241,0.122c-0.98,0-1.94-0.192-2.882-0.576
		s-1.762-0.918-2.463-1.602c-0.721-0.703-1.273-1.512-1.66-2.427c-0.386-0.915-0.579-1.874-0.579-2.876s0.191-1.958,0.574-2.866
		c0.384-0.908,0.938-1.72,1.666-2.437c0.708-0.703,1.527-1.242,2.46-1.616c0.932-0.375,1.914-0.562,2.946-0.562
		c1.013,0,1.983,0.187,2.912,0.562s1.754,0.913,2.475,1.616c0.721,0.709,1.272,1.517,1.655,2.422
		c0.384,0.905,0.575,1.865,0.575,2.881c0,1.12-0.231,2.165-0.693,3.135s-1.14,1.833-2.031,2.588L30.154,29.647z M42.313,23.446
		c0,1.686-0.394,2.928-1.182,3.726s-2.009,1.196-3.662,1.196c-1.687,0-2.925-0.397-3.716-1.191s-1.187-2.038-1.187-3.73v-5.039
		h2.764v5.039c0,0.846,0.164,1.452,0.493,1.816s0.864,0.547,1.606,0.547c0.735,0,1.27-0.184,1.602-0.552s0.498-0.972,0.498-1.812
		v-5.039h2.783V23.446z M54.383,23.441c-0.007,0.101-0.02,0.249-0.039,0.444h-7.197c0.11,0.69,0.361,1.206,0.752,1.548
		s0.921,0.513,1.592,0.513c0.508,0,0.945-0.098,1.313-0.293s0.676-0.492,0.923-0.889l2.246,1.123
		c-0.521,0.84-1.152,1.463-1.895,1.87s-1.624,0.61-2.646,0.61c-1.55,0-2.776-0.462-3.682-1.387s-1.357-2.168-1.357-3.73
		c0-1.504,0.474-2.741,1.421-3.711s2.16-1.455,3.638-1.455c1.523,0,2.728,0.454,3.613,1.362s1.328,2.147,1.328,3.716
		C54.393,23.248,54.39,23.34,54.383,23.441z M62.43,27.528c-0.735,0.56-1.729,0.84-2.979,0.84c-0.989,0-1.834-0.184-2.534-0.552
		s-1.167-0.871-1.401-1.509l2.139-1.104c0.071,0.371,0.264,0.664,0.576,0.879s0.7,0.322,1.162,0.322
		c0.456,0,0.813-0.083,1.074-0.249s0.391-0.396,0.391-0.688c0-0.462-0.462-0.85-1.387-1.162c-0.286-0.098-0.515-0.179-0.684-0.244
		c-1.126-0.423-1.906-0.85-2.339-1.279s-0.649-0.96-0.649-1.592c0-0.938,0.368-1.696,1.104-2.275s1.706-0.869,2.91-0.869
		c0.859,0,1.604,0.172,2.231,0.518s1.086,0.833,1.372,1.465l-2.041,1.016c-0.11-0.358-0.303-0.63-0.576-0.815
		s-0.615-0.278-1.025-0.278s-0.742,0.084-0.996,0.254s-0.381,0.391-0.381,0.664c0,0.475,0.632,0.918,1.895,1.328
		c0.149,0.045,0.264,0.082,0.342,0.107c1.048,0.345,1.794,0.747,2.236,1.206s0.664,1.043,0.664,1.753
		C63.533,26.213,63.165,26.968,62.43,27.528z M70.037,20.585h-1.338v7.402h-2.783v-7.402h-1.338v-2.178h1.338v-3.184h2.783v3.184
		h1.338V20.585z M74.637,27.987h-2.773v-9.58h2.773V27.987z M74.397,15.624c-0.322,0.319-0.708,0.479-1.157,0.479
		c-0.442,0-0.823-0.163-1.143-0.488s-0.479-0.707-0.479-1.143c0-0.443,0.159-0.824,0.479-1.143s0.7-0.479,1.143-0.479
		c0.449,0,0.835,0.158,1.157,0.474s0.483,0.698,0.483,1.147S74.72,15.305,74.397,15.624z M86.028,26.903
		c-1.006,0.977-2.28,1.465-3.823,1.465c-1.556,0-2.839-0.488-3.848-1.465s-1.514-2.201-1.514-3.672c0-1.465,0.508-2.689,1.523-3.672
		s2.295-1.475,3.838-1.475c1.55,0,2.825,0.485,3.828,1.455s1.504,2.201,1.504,3.691C87.537,24.703,87.034,25.927,86.028,26.903z
		 M99.363,22.392v5.596H96.58v-4.736c0-1.178-0.137-1.957-0.41-2.334s-0.742-0.566-1.406-0.566c-0.384,0-0.737,0.08-1.06,0.239
		s-0.591,0.386-0.806,0.679c-0.169,0.228-0.291,0.488-0.366,0.781s-0.112,0.739-0.112,1.338v0.381v4.219h-2.783v-9.58h2.725v1.504
		c0.501-0.625,1.04-1.085,1.616-1.382s1.216-0.444,1.919-0.444c0.742,0,1.365,0.125,1.87,0.376s0.903,0.633,1.196,1.147
		c0.144,0.267,0.246,0.568,0.308,0.903s0.093,0.861,0.093,1.577V22.392z M113.602,15.067c-0.169-0.091-0.332-0.158-0.488-0.2
		s-0.319-0.063-0.488-0.063c-0.488,0-0.837,0.128-1.045,0.386s-0.313,0.702-0.313,1.333v1.885h1.777v2.178h-1.777v7.402h-2.783
		v-7.402h-1.24v-2.178h1.24v-2.158c0-1.289,0.296-2.212,0.889-2.769s1.569-0.835,2.93-0.835c0.149,0,0.324,0.015,0.522,0.044
		s0.457,0.083,0.776,0.161V15.067z M123.333,26.903c-1.006,0.977-2.28,1.465-3.823,1.465c-1.556,0-2.839-0.488-3.848-1.465
		s-1.514-2.201-1.514-3.672c0-1.465,0.508-2.689,1.523-3.672s2.295-1.475,3.838-1.475c1.55,0,2.825,0.485,3.828,1.455
		s1.504,2.201,1.504,3.691C124.842,24.703,124.339,25.927,123.333,26.903z M133.406,21.2c-0.208-0.084-0.418-0.148-0.63-0.19
		s-0.435-0.063-0.669-0.063c-0.847,0-1.455,0.216-1.826,0.649s-0.557,1.157-0.557,2.173v4.219h-2.783v-9.58h2.744l-0.059,2.461
		c0.28-0.931,0.682-1.627,1.206-2.09s1.174-0.693,1.948-0.693c0.176,0,0.466,0.033,0.869,0.098c0.078,0.013,0.137,0.023,0.176,0.029
		L133.406,21.2z M145.691,20.585h-1.338v7.402h-2.783v-7.402h-1.338v-2.178h1.338v-3.184h2.783v3.184h1.338V20.585z M155.979,26.903
		c-1.006,0.977-2.28,1.465-3.823,1.465c-1.556,0-2.839-0.488-3.848-1.465s-1.514-2.201-1.514-3.672c0-1.465,0.508-2.689,1.523-3.672
		s2.295-1.475,3.838-1.475c1.55,0,2.825,0.485,3.828,1.455s1.504,2.201,1.504,3.691C157.488,24.703,156.985,25.927,155.979,26.903z
		 M169.188,27.987h-2.695l0.039-1.377c-0.378,0.605-0.832,1.05-1.362,1.333s-1.177,0.425-1.938,0.425
		c-1.27,0-2.293-0.472-3.071-1.416s-1.167-2.191-1.167-3.74c0-1.621,0.383-2.884,1.147-3.789s1.828-1.357,3.188-1.357
		c0.696,0,1.309,0.16,1.836,0.479s1.022,0.824,1.484,1.514c-0.032-0.234-0.057-0.493-0.073-0.776s-0.024-0.607-0.024-0.972v-5.459
		h2.637V27.987z M181.512,27.987h-2.695l0.039-1.377c-0.378,0.605-0.832,1.05-1.362,1.333s-1.177,0.425-1.938,0.425
		c-1.27,0-2.293-0.472-3.071-1.416s-1.167-2.191-1.167-3.74c0-1.615,0.383-2.873,1.147-3.774s1.828-1.353,3.188-1.353
		c0.71,0,1.333,0.16,1.87,0.479s0.988,0.794,1.353,1.426v-1.582h2.637V27.987z M187.488,32.343h-3.076l2.08-5.098l-3.857-8.838
		h3.213l1.66,4.385c0.11,0.273,0.202,0.587,0.273,0.942s0.127,0.75,0.166,1.187c0.065-0.352,0.146-0.709,0.244-1.074
		s0.218-0.752,0.361-1.162l1.455-4.277h3.184L187.488,32.343z"/>
</g>
</svg>
