<?xml version="1.0" encoding="utf-8"?>
<!-- Generator: Adobe Illustrator 16.0.0, SVG Export Plug-In . SVG Version: 6.00 Build 0)  -->
<!DOCTYPE svg PUBLIC "-//W3C//DTD SVG 1.1//EN" "http://www.w3.org/Graphics/SVG/1.1/DTD/svg11.dtd">
<svg version="1.1" id="Layer_1" xmlns="http://www.w3.org/2000/svg" xmlns:xlink="http://www.w3.org/1999/xlink" x="0px" y="0px"
	 width="231.498px" height="91.373px" viewBox="0 0 231.498 91.373" enable-background="new 0 0 231.498 91.373"
	 xml:space="preserve">
<g>
	<g>
		<g id="XMLID_1_">
			<g>
				<path fill="#68B7C0" d="M2.583,60.817c-3.51-5.747-2.801-12.853,1.773-17.931c3.191-3.537,7.208-5.606,11.798-6.649
					c1.211-0.276,2.445-0.453,3.737-0.688c-0.117-0.206-0.22-0.412-0.343-0.596c-1.426-2.143-2.625-4.385-3.234-6.916
					c-1.603-6.661,1.047-13.411,6.758-17.206c3.396-2.259,7.137-3.44,11.198-3.633c6.653-0.32,12.578,1.65,17.842,5.701
					c0.132,0.098,0.27,0.192,0.406,0.29C57.75,3.754,65.608-0.762,76.447,0.231c10.753,1.84,17.103,8.288,19.65,18.795
					c0.141-0.052,0.31-0.107,0.47-0.186c2.757-1.321,5.642-2.247,8.688-2.581c6.625-0.72,12.759,0.57,18.058,4.789
					c3.621,2.881,5.861,6.635,6.359,11.293c0.527,4.909-1.068,9.193-4.176,12.93c-0.994,1.198-2.217,2.216-3.342,3.309
					c-0.183,0.175-0.391,0.329-0.614,0.513c0.792,0.97,1.597,1.856,2.291,2.824c2.01,2.766,3.144,5.854,3.139,9.295
					c-0.003,3.601-1.244,6.786-3.539,9.544c-3.004,3.618-6.917,5.783-11.418,6.896c-6.75,1.669-13.269,0.924-19.529-2.108
					c-0.107-0.052-0.211-0.1-0.323-0.148c-0.049-0.022-0.094-0.041-0.125-0.054c-0.896,0.781-1.756,1.59-2.681,2.311
					c-3.227,2.517-6.867,4.093-10.904,4.757c-5.664,0.932-11.038,0.068-16.118-2.603c-0.286-0.152-0.58-0.3-0.844-0.485
					c-0.339-0.248-0.59-0.233-0.926,0.06c-4.116,3.596-8.972,5.366-14.381,5.693c-5.924,0.355-11.429-0.973-16.396-4.272
					c-3.424-2.274-6.041-5.247-7.511-9.146c-0.124-0.335-0.305-0.45-0.662-0.473c-4.075-0.247-7.942-1.246-11.511-3.264
					C7.014,66.169,4.443,63.868,2.583,60.817z"/>
			</g>
			<g>
			</g>
		</g>
	</g>
	<g>
		<g id="XMLID_2_">
			<g>
				<path fill="#68B7C0" d="M231.399,59.127c0.526-4.908-1.069-9.194-4.174-12.932c-0.998-1.199-2.221-2.216-3.345-3.306
					c-0.182-0.178-0.389-0.334-0.611-0.517c0.788-0.968,1.593-1.857,2.289-2.82c2.009-2.769,3.143-5.861,3.14-9.298
					c-0.002-3.601-1.247-6.787-3.54-9.546c-3.005-3.613-6.92-5.78-11.416-6.891c-6.751-1.668-13.272-0.925-19.534,2.109
					c-0.101,0.05-0.208,0.099-0.319,0.148c-0.049,0.021-0.096,0.036-0.122,0.051c-0.901-0.781-1.76-1.588-2.688-2.308
					c-3.226-2.518-6.866-4.097-10.901-4.759c-5.664-0.93-11.036-0.069-16.12,2.604c-0.284,0.15-0.578,0.299-0.841,0.487
					c-0.342,0.245-0.589,0.231-0.93-0.064c-4.116-3.596-8.97-5.362-14.379-5.688c-5.923-0.358-11.429,0.969-16.396,4.266
					c-3.425,2.277-6.043,5.253-7.51,9.15c-0.126,0.335-0.306,0.451-0.664,0.472c-4.075,0.247-7.944,1.245-11.513,3.266
					c-3.086,1.748-5.658,4.053-7.515,7.1c-3.508,5.746-2.804,12.85,1.773,17.932c3.188,3.536,7.207,5.606,11.795,6.648
					c1.213,0.277,2.447,0.454,3.737,0.688c-0.116,0.208-0.217,0.408-0.344,0.599c-1.422,2.141-2.623,4.382-3.232,6.916
					c-1.6,6.66,1.046,13.409,6.759,17.207c3.396,2.257,7.139,3.435,11.198,3.632c6.652,0.318,12.578-1.653,17.84-5.701
					c0.137-0.102,0.271-0.19,0.407-0.292c5.232,9.436,13.09,13.951,23.926,12.96c10.756-1.84,17.106-8.289,19.652-18.797
					c0.142,0.055,0.312,0.11,0.468,0.185c2.759,1.322,5.644,2.251,8.688,2.582c6.628,0.723,12.76-0.569,18.057-4.789
					C228.663,67.539,230.899,63.785,231.399,59.127z"/>
			</g>
			<g>
			</g>
		</g>
	</g>
</g>
<g>
	<path fill="#CAEAEF" d="M43.693,53.317h-8.62c-2.294,0-4.127-0.641-5.5-1.92c-1.374-1.281-2.061-3.061-2.061-5.341
		c0-2.134,0.727-3.88,2.181-5.24c1.453-1.36,3.286-2.04,5.5-2.04c2.213,0,4.036,0.674,5.47,2.02c1.433,1.348,2.149,3.08,2.149,5.201
		c0,1-0.206,1.906-0.619,2.719c-0.414,0.814-0.907,1.441-1.48,1.881v0.061l2.98-0.061V53.317z M39.193,46.096
		c0-1.24-0.374-2.254-1.12-3.04c-0.747-0.786-1.707-1.181-2.88-1.181c-1.147,0-2.101,0.397-2.86,1.19
		c-0.76,0.794-1.14,1.804-1.14,3.03c0,1.267,0.369,2.3,1.109,3.1c0.74,0.801,1.697,1.201,2.87,1.201c1.16,0,2.12-0.4,2.88-1.201
		C38.813,48.396,39.193,47.363,39.193,46.096z"/>
	<path fill="#CAEAEF" d="M54.933,53.317h-3.16v-1.381h-0.04c-0.24,0.467-0.633,0.859-1.18,1.18s-1.153,0.48-1.82,0.48
		c-1.24,0-2.153-0.396-2.74-1.189s-0.88-1.758-0.88-2.891v-6.16h3.301v5.4c0,1.414,0.492,2.119,1.479,2.119
		c0.547,0,0.977-0.205,1.29-0.619s0.47-0.92,0.47-1.521v-5.38h3.28V53.317z"/>
	<path fill="#CAEAEF" d="M67.373,48.456c0,0.36-0.007,0.62-0.021,0.78h-7.22c0.053,0.534,0.313,0.979,0.78,1.341
		c0.467,0.359,1,0.539,1.6,0.539c0.96,0,1.693-0.346,2.2-1.039l2.28,1.439c-0.974,1.414-2.48,2.119-4.521,2.119
		c-1.56,0-2.863-0.469-3.91-1.408c-1.047-0.941-1.569-2.225-1.569-3.852c0-1.6,0.51-2.89,1.529-3.869
		c1.021-0.98,2.304-1.471,3.851-1.471c1.493,0,2.7,0.484,3.62,1.45C66.913,45.453,67.373,46.776,67.373,48.456z M60.133,47.196h4.22
		c0-0.547-0.17-1-0.51-1.359c-0.34-0.36-0.823-0.541-1.45-0.541c-0.613,0-1.133,0.188-1.56,0.561S60.173,46.676,60.133,47.196z"/>
	<path fill="#CAEAEF" d="M77.073,44.436l-1.801,1.859c-0.627-0.6-1.319-0.899-2.08-0.899c-0.347,0-0.64,0.067-0.88,0.2
		c-0.239,0.133-0.359,0.333-0.359,0.6c0,0.268,0.126,0.46,0.38,0.58c0.253,0.12,0.733,0.26,1.439,0.42
		c2.12,0.48,3.181,1.494,3.181,3.041c0,1.16-0.417,2.016-1.25,2.57c-0.834,0.553-1.837,0.828-3.011,0.828
		c-0.826,0-1.63-0.133-2.409-0.398c-0.78-0.268-1.424-0.646-1.931-1.141l1.84-1.939c0.681,0.746,1.493,1.119,2.44,1.119
		c0.32,0,0.597-0.07,0.83-0.209c0.233-0.141,0.35-0.357,0.35-0.65s-0.144-0.514-0.43-0.66c-0.287-0.146-0.804-0.307-1.55-0.48
		c-1.934-0.453-2.9-1.42-2.9-2.9c0-1.093,0.42-1.923,1.26-2.49c0.841-0.566,1.801-0.85,2.881-0.85
		C74.739,43.036,76.073,43.502,77.073,44.436z"/>
	<path fill="#CAEAEF" d="M84.752,45.816h-2.34v3.8c0,0.48,0.094,0.834,0.28,1.061s0.507,0.34,0.96,0.34
		c0.387,0,0.706-0.053,0.96-0.16l0.04,2.4c-0.547,0.199-1.18,0.301-1.9,0.301c-1.267,0-2.173-0.307-2.72-0.922
		c-0.547-0.611-0.82-1.486-0.82-2.619v-4.2h-1.6v-2.46h1.58v-2.62h3.22v2.62h2.34V45.816z"/>
	<path fill="#CAEAEF" d="M89.853,40.176c0,0.506-0.184,0.934-0.55,1.279c-0.367,0.348-0.81,0.521-1.33,0.521
		c-0.52,0-0.964-0.177-1.33-0.53c-0.367-0.354-0.55-0.776-0.55-1.27c0-0.48,0.183-0.9,0.55-1.26c0.366-0.36,0.811-0.541,1.33-0.541
		c0.521,0,0.963,0.178,1.33,0.53C89.669,39.259,89.853,39.682,89.853,40.176z M89.612,53.317h-3.279v-9.961h3.279V53.317z"/>
	<path fill="#CAEAEF" d="M101.172,44.476c1.066,0.96,1.6,2.233,1.6,3.819c0,1.588-0.533,2.875-1.6,3.861
		c-1.068,0.986-2.381,1.479-3.941,1.479c-1.547,0-2.854-0.492-3.919-1.479c-1.066-0.986-1.6-2.273-1.6-3.861
		c0-1.586,0.533-2.859,1.6-3.819c1.066-0.96,2.373-1.44,3.919-1.44C98.792,43.036,100.104,43.516,101.172,44.476z M99.612,48.295
		c0-0.68-0.213-1.272-0.641-1.779c-0.426-0.507-1.006-0.76-1.74-0.76c-0.732,0-1.307,0.25-1.719,0.75
		c-0.414,0.5-0.621,1.097-0.621,1.789c0,0.693,0.211,1.297,0.631,1.811s0.996,0.77,1.73,0.77c0.732,0,1.309-0.256,1.729-0.77
		S99.612,48.989,99.612,48.295z"/>
	<path fill="#CAEAEF" d="M114.692,53.317h-3.299v-5.441c0-1.399-0.494-2.1-1.48-2.1c-0.561,0-0.994,0.207-1.301,0.62
		s-0.459,0.92-0.459,1.521v5.4h-3.301v-9.961h3.18v1.38h0.041c0.24-0.466,0.629-0.86,1.17-1.18c0.539-0.32,1.143-0.48,1.811-0.48
		c1.238,0,2.156,0.397,2.75,1.19c0.592,0.793,0.889,1.757,0.889,2.89V53.317z"/>
	<path fill="#CAEAEF" d="M128.572,38.016l-0.221,2.6c-0.279-0.093-0.58-0.14-0.9-0.14c-0.973,0-1.459,0.627-1.459,1.88v1h2.221v2.46
		h-2.221v7.501h-3.279v-7.501h-1.82v-2.46h1.82v-0.96c0-3.054,1.426-4.58,4.279-4.58C127.632,37.816,128.158,37.883,128.572,38.016z
		"/>
	<path fill="#CAEAEF" d="M138.412,44.476c1.066,0.96,1.6,2.233,1.6,3.819c0,1.588-0.533,2.875-1.6,3.861s-2.379,1.479-3.939,1.479
		c-1.547,0-2.854-0.492-3.92-1.479s-1.6-2.273-1.6-3.861c0-1.586,0.533-2.859,1.6-3.819s2.373-1.44,3.92-1.44
		C136.033,43.036,137.345,43.516,138.412,44.476z M136.851,48.295c0-0.68-0.213-1.272-0.639-1.779
		c-0.428-0.507-1.008-0.76-1.74-0.76c-0.734,0-1.307,0.25-1.721,0.75c-0.412,0.5-0.619,1.097-0.619,1.789
		c0,0.693,0.209,1.297,0.629,1.811s0.998,0.77,1.73,0.77s1.311-0.256,1.73-0.77S136.851,48.989,136.851,48.295z"/>
	<path fill="#CAEAEF" d="M148.691,43.156l-0.139,2.88c-0.254-0.066-0.533-0.1-0.84-0.1c-0.787,0-1.375,0.243-1.762,0.73
		c-0.387,0.486-0.58,0.996-0.58,1.529v5.121h-3.279v-9.961h3.16v1.439h0.041c0.252-0.52,0.619-0.936,1.1-1.25
		c0.479-0.313,1.012-0.47,1.6-0.47C148.312,43.076,148.544,43.103,148.691,43.156z"/>
	<path fill="#CAEAEF" d="M160.912,45.816h-2.34v3.8c0,0.48,0.094,0.834,0.279,1.061c0.188,0.227,0.508,0.34,0.961,0.34
		c0.387,0,0.705-0.053,0.959-0.16l0.041,2.4c-0.547,0.199-1.18,0.301-1.9,0.301c-1.268,0-2.174-0.307-2.721-0.922
		c-0.547-0.611-0.82-1.486-0.82-2.619v-4.2h-1.6v-2.46h1.58v-2.62h3.221v2.62h2.34V45.816z"/>
	<path fill="#CAEAEF" d="M171.412,44.476c1.066,0.96,1.6,2.233,1.6,3.819c0,1.588-0.533,2.875-1.6,3.861
		c-1.068,0.986-2.381,1.479-3.941,1.479c-1.547,0-2.854-0.492-3.92-1.479s-1.6-2.273-1.6-3.861c0-1.586,0.533-2.859,1.6-3.819
		s2.373-1.44,3.92-1.44C169.031,43.036,170.343,43.516,171.412,44.476z M169.851,48.295c0-0.68-0.213-1.272-0.641-1.779
		c-0.426-0.507-1.006-0.76-1.74-0.76c-0.732,0-1.307,0.25-1.719,0.75c-0.414,0.5-0.621,1.097-0.621,1.789
		c0,0.693,0.211,1.297,0.631,1.811s0.996,0.77,1.73,0.77c0.732,0,1.309-0.256,1.729-0.77S169.851,48.989,169.851,48.295z"/>
	<path fill="#CAEAEF" d="M185.652,53.317h-3.02v-1.301h-0.041c-0.32,0.494-0.777,0.881-1.369,1.16
		c-0.594,0.279-1.225,0.42-1.891,0.42c-1.439,0-2.59-0.516-3.449-1.551c-0.861-1.033-1.291-2.283-1.291-3.75
		c0-1.439,0.434-2.67,1.301-3.689c0.865-1.02,2-1.53,3.4-1.53c1.266,0,2.279,0.447,3.039,1.341h0.039v-6.221h3.281V53.317z
		 M182.511,48.316c0-0.667-0.223-1.26-0.67-1.78c-0.447-0.52-1.023-0.779-1.73-0.779c-0.732,0-1.309,0.25-1.729,0.75
		s-0.631,1.097-0.631,1.789c0,0.707,0.211,1.314,0.631,1.82c0.42,0.508,0.996,0.76,1.729,0.76c0.707,0,1.283-0.256,1.73-0.77
		S182.511,48.997,182.511,48.316z"/>
	<path fill="#CAEAEF" d="M189.771,46.497l-1.66-1.781c1.186-1.119,2.666-1.68,4.439-1.68c1.641,0,2.814,0.417,3.52,1.25
		c0.707,0.834,1.061,2.17,1.061,4.01v5.021h-3v-1.061h-0.061c-0.238,0.4-0.619,0.717-1.139,0.949c-0.52,0.234-1.08,0.352-1.68,0.352
		c-0.588,0-1.137-0.092-1.65-0.271s-0.971-0.516-1.371-1.01c-0.398-0.492-0.6-1.105-0.6-1.84c0-2.24,2.133-3.36,6.4-3.36v-0.159
		c0-0.467-0.166-0.824-0.5-1.07c-0.334-0.247-0.768-0.37-1.301-0.37C191.324,45.476,190.503,45.816,189.771,46.497z M194.13,49.317
		v-0.341h-0.42c-2.039,0-3.061,0.454-3.061,1.36c0,0.346,0.141,0.604,0.42,0.77c0.281,0.168,0.613,0.25,1,0.25
		c0.654,0,1.16-0.184,1.521-0.549C193.951,50.44,194.13,49.944,194.13,49.317z"/>
	<path fill="#CAEAEF" d="M209.652,43.356l-4.461,11.461c-0.428,1.119-0.967,1.949-1.619,2.49c-0.654,0.539-1.574,0.809-2.762,0.809
		c-0.613,0-1.213-0.072-1.799-0.219l0.359-2.762c0.387,0.121,0.74,0.182,1.061,0.182c0.48,0,0.836-0.104,1.07-0.311
		c0.232-0.207,0.436-0.551,0.609-1.029l0.32-0.82l-4.16-9.801h3.641l2.219,6.4h0.061l1.98-6.4H209.652z"/>
</g>
</svg>
