<?xml version="1.0" encoding="utf-8"?>
<!-- Generator: Adobe Illustrator 16.0.0, SVG Export Plug-In . SVG Version: 6.00 Build 0)  -->
<!DOCTYPE svg PUBLIC "-//W3C//DTD SVG 1.1//EN" "http://www.w3.org/Graphics/SVG/1.1/DTD/svg11.dtd">
<svg version="1.1" id="Layer_1" xmlns="http://www.w3.org/2000/svg" xmlns:xlink="http://www.w3.org/1999/xlink" x="0px" y="0px"
	 width="209.37px" height="47.437px" viewBox="0 0 209.37 47.437" enable-background="new 0 0 209.37 47.437" xml:space="preserve">
<polyline fill="#68B7C0" points="0,9.384 28.754,0 54.222,9.384 84.642,6.333 125.641,2.423 152.641,9.385 179.836,2.427 
	200.641,2.427 205.641,12.675 209.37,27.988 197.641,41.437 170.641,41.437 137.641,35.437 118.641,41.437 104.685,41.437 
	66.642,41.437 37.468,47.437 14.032,41.437 0,23.718 "/>
<g>
	<path fill="#C3E7EB" d="M30.933,28.988h-8.62c-2.294,0-4.127-0.641-5.5-1.92c-1.374-1.281-2.061-3.061-2.061-5.34
		c0-2.133,0.727-3.88,2.181-5.24c1.453-1.36,3.286-2.04,5.5-2.04c2.213,0,4.036,0.673,5.47,2.02c1.433,1.347,2.149,3.08,2.149,5.2
		c0,1-0.206,1.907-0.619,2.72c-0.414,0.813-0.907,1.44-1.48,1.88v0.061l2.98-0.061V28.988z M26.433,21.767
		c0-1.24-0.374-2.253-1.12-3.04c-0.747-0.787-1.707-1.18-2.88-1.18c-1.147,0-2.101,0.397-2.86,1.19
		c-0.76,0.793-1.14,1.803-1.14,3.03c0,1.267,0.369,2.3,1.109,3.1c0.74,0.8,1.697,1.201,2.87,1.201c1.16,0,2.12-0.4,2.88-1.201
		C26.052,24.067,26.433,23.034,26.433,21.767z"/>
	<path fill="#C3E7EB" d="M42.172,28.988h-3.16v-1.381h-0.04c-0.24,0.467-0.633,0.86-1.18,1.18c-0.547,0.32-1.153,0.48-1.82,0.48
		c-1.24,0-2.153-0.396-2.74-1.189s-0.88-1.757-0.88-2.891v-6.16h3.301v5.4c0,1.414,0.492,2.12,1.479,2.12
		c0.547,0,0.977-0.206,1.29-0.62c0.313-0.413,0.47-0.92,0.47-1.52v-5.38h3.28V28.988z"/>
	<path fill="#C3E7EB" d="M54.612,24.127c0,0.36-0.007,0.62-0.021,0.78h-7.22c0.053,0.534,0.313,0.98,0.78,1.34
		c0.467,0.359,1,0.539,1.6,0.539c0.96,0,1.693-0.346,2.2-1.039l2.28,1.439c-0.974,1.414-2.48,2.12-4.521,2.12
		c-1.56,0-2.863-0.47-3.91-1.409c-1.047-0.94-1.569-2.224-1.569-3.851c0-1.6,0.51-2.89,1.529-3.87c1.021-0.98,2.304-1.47,3.851-1.47
		c1.493,0,2.7,0.483,3.62,1.45C54.152,21.124,54.612,22.447,54.612,24.127z M47.372,22.867h4.22c0-0.546-0.17-1-0.51-1.36
		s-0.823-0.54-1.45-0.54c-0.613,0-1.133,0.187-1.56,0.56C47.646,21.901,47.412,22.347,47.372,22.867z"/>
	<path fill="#C3E7EB" d="M64.313,20.107l-1.801,1.86c-0.627-0.6-1.319-0.9-2.08-0.9c-0.347,0-0.64,0.067-0.88,0.2
		c-0.239,0.134-0.359,0.333-0.359,0.6c0,0.267,0.126,0.46,0.38,0.58c0.253,0.12,0.733,0.26,1.439,0.42
		c2.12,0.48,3.181,1.494,3.181,3.041c0,1.16-0.417,2.017-1.25,2.57c-0.834,0.553-1.837,0.829-3.011,0.829
		c-0.826,0-1.63-0.134-2.409-0.399c-0.78-0.268-1.424-0.646-1.931-1.141l1.84-1.939c0.681,0.746,1.493,1.119,2.44,1.119
		c0.32,0,0.597-0.069,0.83-0.209c0.233-0.141,0.35-0.357,0.35-0.65s-0.144-0.514-0.43-0.66c-0.287-0.146-0.804-0.307-1.55-0.48
		c-1.934-0.453-2.9-1.419-2.9-2.899c0-1.093,0.42-1.923,1.26-2.49c0.841-0.566,1.801-0.85,2.881-0.85
		C61.979,18.708,63.313,19.174,64.313,20.107z"/>
	<path fill="#C3E7EB" d="M71.991,21.487h-2.34v3.799c0,0.48,0.094,0.834,0.28,1.061s0.507,0.34,0.96,0.34
		c0.387,0,0.706-0.053,0.96-0.16l0.04,2.4c-0.547,0.2-1.18,0.301-1.9,0.301c-1.267,0-2.173-0.307-2.72-0.921
		c-0.547-0.612-0.82-1.486-0.82-2.62v-4.2h-1.6v-2.46h1.58v-2.62h3.22v2.62h2.34V21.487z"/>
	<path fill="#C3E7EB" d="M77.092,15.847c0,0.507-0.184,0.934-0.55,1.28c-0.367,0.347-0.81,0.52-1.33,0.52
		c-0.52,0-0.964-0.177-1.33-0.53c-0.367-0.353-0.55-0.776-0.55-1.27c0-0.48,0.183-0.9,0.55-1.26c0.366-0.36,0.811-0.54,1.33-0.54
		c0.521,0,0.963,0.177,1.33,0.53C76.908,14.931,77.092,15.354,77.092,15.847z M76.852,28.988h-3.279v-9.96h3.279V28.988z"/>
	<path fill="#C3E7EB" d="M88.411,20.147c1.066,0.96,1.6,2.233,1.6,3.82c0,1.587-0.533,2.874-1.6,3.86
		c-1.067,0.986-2.38,1.479-3.94,1.479c-1.547,0-2.854-0.493-3.92-1.479s-1.6-2.273-1.6-3.86c0-1.586,0.533-2.86,1.6-3.82
		s2.373-1.44,3.92-1.44C86.031,18.708,87.344,19.188,88.411,20.147z M86.851,23.967c0-0.68-0.213-1.273-0.64-1.78
		s-1.007-0.76-1.74-0.76s-1.307,0.25-1.72,0.75s-0.62,1.097-0.62,1.79c0,0.693,0.21,1.297,0.63,1.81
		c0.42,0.514,0.997,0.771,1.73,0.771c0.732,0,1.31-0.257,1.729-0.771C86.641,25.264,86.851,24.661,86.851,23.967z"/>
	<path fill="#C3E7EB" d="M101.932,28.988h-3.3v-5.44c0-1.4-0.494-2.1-1.48-2.1c-0.56,0-0.993,0.207-1.3,0.62
		c-0.307,0.414-0.46,0.92-0.46,1.52v5.4h-3.3v-9.96h3.18v1.38h0.04c0.24-0.466,0.63-0.86,1.17-1.18c0.54-0.32,1.144-0.48,1.811-0.48
		c1.239,0,2.156,0.397,2.75,1.19c0.593,0.793,0.89,1.757,0.89,2.89V28.988z"/>
	<path fill="#C3E7EB" d="M115.811,13.688l-0.221,2.6c-0.279-0.093-0.58-0.14-0.9-0.14c-0.973,0-1.459,0.627-1.459,1.88v1h2.221v2.46
		h-2.221v7.5h-3.279v-7.5h-1.82v-2.46h1.82v-0.96c0-3.053,1.426-4.58,4.279-4.58C114.872,13.487,115.397,13.554,115.811,13.688z"/>
	<path fill="#C3E7EB" d="M125.651,20.147c1.066,0.96,1.6,2.233,1.6,3.82c0,1.587-0.533,2.874-1.6,3.86s-2.379,1.479-3.939,1.479
		c-1.547,0-2.854-0.493-3.92-1.479s-1.6-2.273-1.6-3.86c0-1.586,0.533-2.86,1.6-3.82s2.373-1.44,3.92-1.44
		C123.272,18.708,124.584,19.188,125.651,20.147z M124.09,23.967c0-0.68-0.213-1.273-0.639-1.78c-0.428-0.507-1.008-0.76-1.74-0.76
		c-0.734,0-1.307,0.25-1.721,0.75c-0.412,0.5-0.619,1.097-0.619,1.79c0,0.693,0.209,1.297,0.629,1.81
		c0.42,0.514,0.998,0.771,1.73,0.771s1.311-0.257,1.73-0.771C123.881,25.264,124.09,24.661,124.09,23.967z"/>
	<path fill="#C3E7EB" d="M135.93,18.827l-0.139,2.88c-0.254-0.067-0.533-0.1-0.84-0.1c-0.787,0-1.375,0.243-1.762,0.73
		s-0.58,0.997-0.58,1.53v5.121h-3.279v-9.96h3.16v1.44h0.041c0.252-0.52,0.619-0.937,1.1-1.25c0.479-0.313,1.012-0.47,1.6-0.47
		C135.551,18.747,135.784,18.774,135.93,18.827z"/>
	<path fill="#C3E7EB" d="M148.151,21.487h-2.34v3.799c0,0.48,0.094,0.834,0.279,1.061c0.188,0.227,0.508,0.34,0.961,0.34
		c0.387,0,0.705-0.053,0.959-0.16l0.041,2.4c-0.547,0.2-1.18,0.301-1.9,0.301c-1.268,0-2.174-0.307-2.721-0.921
		c-0.547-0.612-0.82-1.486-0.82-2.62v-4.2h-1.6v-2.46h1.58v-2.62h3.221v2.62h2.34V21.487z"/>
	<path fill="#C3E7EB" d="M158.651,20.147c1.066,0.96,1.6,2.233,1.6,3.82c0,1.587-0.533,2.874-1.6,3.86
		c-1.068,0.986-2.381,1.479-3.941,1.479c-1.547,0-2.854-0.493-3.92-1.479s-1.6-2.273-1.6-3.86c0-1.586,0.533-2.86,1.6-3.82
		s2.373-1.44,3.92-1.44C156.27,18.708,157.583,19.188,158.651,20.147z M157.09,23.967c0-0.68-0.213-1.273-0.641-1.78
		c-0.426-0.507-1.006-0.76-1.74-0.76c-0.732,0-1.307,0.25-1.719,0.75c-0.414,0.5-0.621,1.097-0.621,1.79
		c0,0.693,0.211,1.297,0.631,1.81c0.42,0.514,0.996,0.771,1.73,0.771c0.732,0,1.309-0.257,1.729-0.771
		C156.879,25.264,157.09,24.661,157.09,23.967z"/>
	<path fill="#C3E7EB" d="M172.891,28.988h-3.02v-1.301h-0.041c-0.32,0.494-0.777,0.881-1.369,1.16
		c-0.594,0.28-1.225,0.42-1.891,0.42c-1.439,0-2.59-0.516-3.449-1.55c-0.861-1.033-1.291-2.283-1.291-3.75
		c0-1.44,0.434-2.67,1.301-3.69c0.865-1.02,2-1.53,3.4-1.53c1.266,0,2.279,0.447,3.039,1.34h0.039v-6.22h3.281V28.988z
		 M169.75,23.987c0-0.667-0.223-1.26-0.67-1.78s-1.023-0.78-1.73-0.78c-0.732,0-1.309,0.25-1.729,0.75s-0.631,1.097-0.631,1.79
		c0,0.707,0.211,1.313,0.631,1.819c0.42,0.508,0.996,0.761,1.729,0.761c0.707,0,1.283-0.257,1.73-0.771
		C169.528,25.264,169.75,24.667,169.75,23.987z"/>
	<path fill="#C3E7EB" d="M177.01,22.167l-1.66-1.78c1.186-1.12,2.666-1.68,4.439-1.68c1.641,0,2.814,0.417,3.52,1.25
		c0.707,0.833,1.061,2.17,1.061,4.01v5.021h-3v-1.061h-0.061c-0.238,0.4-0.619,0.717-1.139,0.95s-1.08,0.351-1.68,0.351
		c-0.588,0-1.137-0.091-1.65-0.271c-0.514-0.181-0.971-0.517-1.371-1.011c-0.398-0.492-0.6-1.105-0.6-1.84
		c0-2.24,2.133-3.36,6.4-3.36v-0.16c0-0.467-0.166-0.823-0.5-1.07c-0.334-0.247-0.768-0.37-1.301-0.37
		C178.563,21.147,177.743,21.487,177.01,22.167z M181.37,24.988v-0.34h-0.42c-2.039,0-3.061,0.454-3.061,1.36
		c0,0.347,0.141,0.604,0.42,0.77c0.281,0.168,0.613,0.25,1,0.25c0.654,0,1.16-0.183,1.521-0.549
		C181.19,26.111,181.37,25.615,181.37,24.988z"/>
	<path fill="#C3E7EB" d="M196.891,19.027l-4.461,11.46c-0.428,1.119-0.967,1.949-1.619,2.49c-0.654,0.539-1.574,0.809-2.762,0.809
		c-0.613,0-1.213-0.072-1.799-0.219l0.359-2.761c0.387,0.12,0.74,0.181,1.061,0.181c0.48,0,0.836-0.104,1.07-0.311
		c0.232-0.207,0.436-0.55,0.609-1.029l0.32-0.82l-4.16-9.8h3.641l2.219,6.4h0.061l1.98-6.4H196.891z"/>
</g>
</svg>
